<svg xmlns="http://www.w3.org/2000/svg" xmlns:xlink="http://www.w3.org/1999/xlink" width="500" zoomAndPan="magnify" viewBox="0 0 375 374.999991" height="500" preserveAspectRatio="xMidYMid meet" version="1.0"><defs><g/></defs><g fill="#ffffff" fill-opacity="1"><g transform="translate(94.608397, 212.249986)"><g><path d="M 4.75 -50.21875 L 19.34375 -50.21875 L 19.34375 0 L 4.75 0 Z M 22.40625 -11.171875 L 25.40625 -11.171875 C 26.769531 -11.171875 27.800781 -11.207031 28.5 -11.28125 C 29.207031 -11.351562 29.734375 -11.535156 30.078125 -11.828125 C 30.421875 -12.117188 30.648438 -12.53125 30.765625 -13.0625 C 30.890625 -13.601562 30.953125 -14.382812 30.953125 -15.40625 C 30.953125 -16.476562 30.890625 -17.28125 30.765625 -17.8125 C 30.648438 -18.34375 30.421875 -18.753906 30.078125 -19.046875 C 29.492188 -19.535156 27.9375 -19.78125 25.40625 -19.78125 L 22.40625 -19.78125 L 22.40625 -30.953125 L 24.96875 -30.953125 C 26.332031 -30.953125 27.363281 -30.988281 28.0625 -31.0625 C 28.769531 -31.132812 29.296875 -31.316406 29.640625 -31.609375 C 29.984375 -31.898438 30.210938 -32.300781 30.328125 -32.8125 C 30.453125 -33.320312 30.515625 -34.039062 30.515625 -34.96875 C 30.515625 -35.9375 30.453125 -36.675781 30.328125 -37.1875 C 30.210938 -37.695312 29.984375 -38.097656 29.640625 -38.390625 C 29.296875 -38.691406 28.769531 -38.878906 28.0625 -38.953125 C 27.363281 -39.023438 26.332031 -39.0625 24.96875 -39.0625 L 22.40625 -39.0625 L 22.40625 -50.21875 L 30.734375 -50.21875 C 40.515625 -50.21875 45.40625 -46.007812 45.40625 -37.59375 C 45.40625 -34.039062 44.710938 -31.363281 43.328125 -29.5625 C 41.941406 -27.757812 39.738281 -26.492188 36.71875 -25.765625 L 36.71875 -25.484375 C 39.882812 -24.742188 42.148438 -23.597656 43.515625 -22.046875 C 45.066406 -20.191406 45.84375 -17.320312 45.84375 -13.4375 C 45.84375 -8.957031 44.648438 -5.597656 42.265625 -3.359375 C 39.878906 -1.117188 36.0625 0 30.8125 0 L 22.40625 0 Z M 22.40625 -11.171875 "/></g></g></g><g fill="#ffffff" fill-opacity="1"><g transform="translate(143.515807, 212.249986)"><g><path d="M 21.390625 -50.65625 C 23.335938 -50.757812 24.941406 -50.8125 26.203125 -50.8125 C 30.585938 -50.8125 34.601562 -50.519531 38.25 -49.9375 C 40.101562 -49.738281 41.878906 -49.445312 43.578125 -49.0625 L 43.578125 -38.609375 C 41.535156 -38.804688 40.003906 -38.976562 38.984375 -39.125 C 38.148438 -39.175781 36.8125 -39.300781 34.96875 -39.5 C 33.113281 -39.59375 31.894531 -39.640625 31.3125 -39.640625 C 28.34375 -39.640625 26.164062 -39.578125 24.78125 -39.453125 C 23.394531 -39.335938 22.265625 -39.035156 21.390625 -38.546875 Z M 26.203125 0.578125 C 21.335938 0.578125 17.457031 0.210938 14.5625 -0.515625 C 11.664062 -1.242188 9.414062 -2.53125 7.8125 -4.375 C 6.207031 -6.226562 5.078125 -8.785156 4.421875 -12.046875 C 3.765625 -15.304688 3.4375 -19.660156 3.4375 -25.109375 C 3.4375 -29.734375 3.65625 -33.53125 4.09375 -36.5 C 4.53125 -39.46875 5.28125 -41.898438 6.34375 -43.796875 C 7.46875 -45.742188 8.976562 -47.226562 10.875 -48.25 C 12.769531 -49.269531 15.253906 -49.976562 18.328125 -50.375 L 18.328125 -25.109375 C 18.328125 -21.648438 18.421875 -19.007812 18.609375 -17.1875 C 18.804688 -15.363281 19.171875 -13.96875 19.703125 -13 C 20.296875 -11.976562 21.140625 -11.269531 22.234375 -10.875 C 23.328125 -10.488281 24.894531 -10.296875 26.9375 -10.296875 L 26.9375 0.578125 Z M 30 -19.265625 L 24.8125 -19.265625 L 24.8125 -29.859375 L 43.796875 -29.859375 L 43.796875 -1.234375 C 41.515625 -0.703125 38.671875 -0.289062 35.265625 0 C 33.609375 0.238281 31.851562 0.382812 30 0.4375 Z M 30 -19.265625 "/></g></g></g><g fill="#ffffff" fill-opacity="1"><g transform="translate(191.693256, 212.249986)"><g><path d="M 4.75 -48.03125 L 4.75 -50.21875 L 18.171875 -50.21875 L 39.203125 -5.546875 L 36.796875 0 L 27.296875 0 Z M 45.984375 -21.09375 L 45.703125 -21.09375 L 40.8125 -9.265625 L 34.53125 -22.703125 L 45.984375 -50.21875 L 59.859375 -50.21875 L 59.859375 0 L 45.984375 0 Z M 4.75 -40.8125 L 18.171875 -12.1875 L 18.171875 0 L 4.75 0 Z M 4.75 -40.8125 "/></g></g></g><g fill="#ffffff" fill-opacity="1"><g transform="translate(256.294841, 212.249986)"><g><path d="M 4.75 -50.21875 L 19.34375 -50.21875 L 19.34375 0 L 4.75 0 Z M 4.75 -50.21875 "/></g></g></g></svg>