<svg xmlns="http://www.w3.org/2000/svg" xmlns:xlink="http://www.w3.org/1999/xlink" width="500" zoomAndPan="magnify" viewBox="0 0 375 374.999991" height="500" preserveAspectRatio="xMidYMid meet" version="1.0"><defs><g/></defs><g fill="#ff1f00" fill-opacity="0.4"><g transform="translate(90.701817, 204.048225)"><g><path d="M 30.359375 -45.359375 L 30.359375 -9.9375 L 12.53125 -9.9375 L 12.53125 0 L 3.265625 0 L 3.265625 -45.359375 Z M 12.53125 -36.03125 L 12.53125 -19.25 L 21.109375 -19.25 L 21.109375 -36.03125 Z M 12.53125 -36.03125 "/></g></g></g><g fill="#ff1f00" fill-opacity="0.4"><g transform="translate(124.328225, 204.048225)"><g><path d="M 30.96875 0 L 21.65625 0 L 18.015625 -11.84375 L 12.53125 -6.421875 L 12.53125 0 L 3.265625 0 L 3.265625 -45.359375 L 30.359375 -45.359375 L 30.359375 -24.125 L 25.171875 -18.9375 Z M 12.53125 -36.03125 L 12.53125 -19.25 L 21.109375 -27.765625 L 21.109375 -36.03125 Z M 12.53125 -36.03125 "/></g></g></g><g fill="#ff1f00" fill-opacity="0.4"><g transform="translate(158.509932, 204.048225)"><g><path d="M 3.265625 -45.359375 L 30.359375 -45.359375 L 30.359375 0 L 21.109375 0 L 21.109375 -8.453125 L 12.53125 0 L 3.265625 0 Z M 21.109375 -21.34375 L 21.109375 -36.03125 L 12.53125 -36.03125 L 12.53125 -12.828125 Z M 21.109375 -21.34375 "/></g></g></g><g fill="#ff1f00" fill-opacity="0.4"><g transform="translate(192.13634, 204.048225)"><g><path d="M 21.109375 -45.359375 L 30.421875 -45.359375 L 30.421875 -17.53125 L 21.109375 -8.390625 L 12.59375 0 L 3.265625 0 L 3.265625 -45.359375 L 12.59375 -45.359375 L 12.59375 -12.703125 L 21.109375 -21.171875 Z M 21.109375 -45.359375 "/></g></g></g><g fill="#ff1f00" fill-opacity="0.4"><g transform="translate(225.824451, 204.048225)"><g><path d="M 3.265625 0 L 3.265625 -21.21875 L 21.109375 -38.9375 L 21.109375 -45.359375 L 30.421875 -45.359375 L 30.421875 0 Z M 21.109375 -9.3125 L 21.109375 -26.09375 L 12.59375 -17.578125 L 12.59375 -9.3125 Z M 21.109375 -9.3125 "/></g></g></g><g fill="#ff1f00" fill-opacity="0.4"><g transform="translate(259.512555, 204.048225)"><g><path d="M 3.265625 -45.359375 L 30.359375 -45.359375 L 30.359375 0 L 21.109375 0 L 21.109375 -8.453125 L 12.53125 0 L 3.265625 0 Z M 21.109375 -21.34375 L 21.109375 -36.03125 L 12.53125 -36.03125 L 12.53125 -12.828125 Z M 21.109375 -21.34375 "/></g></g></g><g fill="#ff1f00" fill-opacity="1"><g transform="translate(86.277747, 197.730002)"><g><path d="M 30.359375 -45.359375 L 30.359375 -9.9375 L 12.53125 -9.9375 L 12.53125 0 L 3.265625 0 L 3.265625 -45.359375 Z M 12.53125 -36.03125 L 12.53125 -19.25 L 21.109375 -19.25 L 21.109375 -36.03125 Z M 12.53125 -36.03125 "/></g></g></g><g fill="#ff1f00" fill-opacity="1"><g transform="translate(119.904155, 197.730002)"><g><path d="M 30.96875 0 L 21.65625 0 L 18.015625 -11.84375 L 12.53125 -6.421875 L 12.53125 0 L 3.265625 0 L 3.265625 -45.359375 L 30.359375 -45.359375 L 30.359375 -24.125 L 25.171875 -18.9375 Z M 12.53125 -36.03125 L 12.53125 -19.25 L 21.109375 -27.765625 L 21.109375 -36.03125 Z M 12.53125 -36.03125 "/></g></g></g><g fill="#ff1f00" fill-opacity="1"><g transform="translate(154.085862, 197.730002)"><g><path d="M 3.265625 -45.359375 L 30.359375 -45.359375 L 30.359375 0 L 21.109375 0 L 21.109375 -8.453125 L 12.53125 0 L 3.265625 0 Z M 21.109375 -21.34375 L 21.109375 -36.03125 L 12.53125 -36.03125 L 12.53125 -12.828125 Z M 21.109375 -21.34375 "/></g></g></g><g fill="#ff1f00" fill-opacity="1"><g transform="translate(187.71227, 197.730002)"><g><path d="M 21.109375 -45.359375 L 30.421875 -45.359375 L 30.421875 -17.53125 L 21.109375 -8.390625 L 12.59375 0 L 3.265625 0 L 3.265625 -45.359375 L 12.59375 -45.359375 L 12.59375 -12.703125 L 21.109375 -21.171875 Z M 21.109375 -45.359375 "/></g></g></g><g fill="#ff1f00" fill-opacity="1"><g transform="translate(221.400382, 197.730002)"><g><path d="M 3.265625 0 L 3.265625 -21.21875 L 21.109375 -38.9375 L 21.109375 -45.359375 L 30.421875 -45.359375 L 30.421875 0 Z M 21.109375 -9.3125 L 21.109375 -26.09375 L 12.59375 -17.578125 L 12.59375 -9.3125 Z M 21.109375 -9.3125 "/></g></g></g><g fill="#ff1f00" fill-opacity="1"><g transform="translate(255.088485, 197.730002)"><g><path d="M 3.265625 -45.359375 L 30.359375 -45.359375 L 30.359375 0 L 21.109375 0 L 21.109375 -8.453125 L 12.53125 0 L 3.265625 0 Z M 21.109375 -21.34375 L 21.109375 -36.03125 L 12.53125 -36.03125 L 12.53125 -12.828125 Z M 21.109375 -21.34375 "/></g></g></g></svg>