<svg xmlns="http://www.w3.org/2000/svg" xmlns:xlink="http://www.w3.org/1999/xlink" width="500" zoomAndPan="magnify" viewBox="0 0 375 374.999991" height="500" preserveAspectRatio="xMidYMid meet" version="1.0"><defs><g/></defs><g fill="#ff00ff" fill-opacity="1"><g transform="translate(3.026941, 204.158148)"><g><path d="M 41.875 -25.921875 C 41.539062 -25.835938 41.28125 -25.753906 41.09375 -25.671875 C 40.914062 -25.597656 40.753906 -25.488281 40.609375 -25.34375 C 40.066406 -24.832031 39.796875 -23.835938 39.796875 -22.359375 L 39.796875 -4.609375 C 38.535156 -4.578125 37.316406 -4.429688 36.140625 -4.171875 C 34.960938 -3.921875 33.894531 -3.566406 32.9375 -3.109375 C 32.113281 -2.722656 31.296875 -2.195312 30.484375 -1.53125 C 29.890625 -1.019531 29.441406 -0.5625 29.140625 -0.15625 C 28.835938 0.25 28.519531 0.859375 28.1875 1.671875 C 27.582031 0.890625 27.09375 0.296875 26.71875 -0.109375 C 26.34375 -0.515625 25.867188 -0.929688 25.296875 -1.359375 C 24.515625 -1.960938 23.738281 -2.410156 22.96875 -2.703125 C 22.195312 -3.003906 21.46875 -3.15625 20.78125 -3.15625 C 19.78125 -3.15625 18.726562 -2.710938 17.625 -1.828125 C 16.53125 -0.941406 15.59375 0.222656 14.8125 1.671875 L 14.3125 0.859375 C 14.039062 0.410156 13.65625 -0.0195312 13.15625 -0.4375 C 12.664062 -0.863281 12.109375 -1.242188 11.484375 -1.578125 C 10.867188 -1.910156 10.226562 -2.175781 9.5625 -2.375 C 8.90625 -2.570312 8.289062 -2.671875 7.71875 -2.671875 C 6.664062 -2.671875 5.804688 -2.375 5.140625 -1.78125 C 4.484375 -1.195312 4.15625 -0.453125 4.15625 0.453125 C 4.15625 1.140625 4.394531 1.769531 4.875 2.34375 C 5.332031 2.882812 5.859375 3.273438 6.453125 3.515625 C 7.328125 3.847656 8.40625 4.113281 9.6875 4.3125 C 10.96875 4.507812 12.285156 4.609375 13.640625 4.609375 C 15.535156 4.609375 17.125 4.429688 18.40625 4.078125 C 19.6875 3.734375 20.582031 3.21875 21.09375 2.53125 C 21.425781 2.101562 21.644531 1.632812 21.75 1.125 C 21.851562 0.613281 21.921875 -0.148438 21.953125 -1.171875 L 22.546875 -1.171875 L 22.546875 -0.8125 C 22.546875 0.539062 22.328125 1.757812 21.890625 2.84375 C 21.453125 3.925781 20.828125 4.859375 20.015625 5.640625 C 19.203125 6.429688 18.222656 7.035156 17.078125 7.453125 C 15.929688 7.867188 14.664062 8.078125 13.28125 8.078125 C 11.894531 8.078125 10.597656 7.851562 9.390625 7.40625 C 8.191406 6.957031 7.140625 6.332031 6.234375 5.53125 C 5.328125 4.738281 4.617188 3.8125 4.109375 2.75 C 3.597656 1.695312 3.34375 0.554688 3.34375 -0.671875 C 3.34375 -3.023438 4.203125 -5.015625 5.921875 -6.640625 C 6.335938 -7.035156 6.617188 -7.320312 6.765625 -7.5 C 6.921875 -7.675781 7.046875 -7.867188 7.140625 -8.078125 C 7.285156 -8.328125 7.40625 -8.707031 7.5 -9.21875 C 7.59375 -9.726562 7.640625 -10.191406 7.640625 -10.609375 L 7.640625 -14.28125 L 5.734375 -14.28125 C 4.890625 -14.28125 4.226562 -14.066406 3.75 -13.640625 C 3.539062 -13.429688 3.40625 -13.195312 3.34375 -12.9375 C 3.28125 -12.6875 3.234375 -12.210938 3.203125 -11.515625 L 2.578125 -11.515625 L 2.578125 -12.734375 C 2.578125 -14.003906 2.628906 -15.0625 2.734375 -15.90625 C 2.835938 -16.75 3.015625 -17.414062 3.265625 -17.90625 C 3.523438 -18.40625 3.859375 -18.757812 4.265625 -18.96875 C 4.671875 -19.175781 5.191406 -19.28125 5.828125 -19.28125 L 7.640625 -19.28125 L 7.640625 -22.59375 C 7.640625 -23.21875 7.539062 -23.628906 7.34375 -23.828125 C 7.144531 -24.023438 6.742188 -24.125 6.140625 -24.125 L 5.15625 -24.125 C 4.632812 -24.125 4.207031 -24.210938 3.875 -24.390625 C 3.550781 -24.566406 3.289062 -24.890625 3.09375 -25.359375 C 2.894531 -25.828125 2.757812 -26.46875 2.6875 -27.28125 C 2.613281 -28.09375 2.578125 -29.117188 2.578125 -30.359375 L 2.578125 -31.75 L 3.203125 -31.75 C 3.203125 -31.0625 3.320312 -30.585938 3.5625 -30.328125 C 3.8125 -30.078125 4.25 -29.953125 4.875 -29.953125 C 5.0625 -29.953125 5.25 -29.957031 5.4375 -29.96875 C 5.632812 -29.988281 5.851562 -30 6.09375 -30 L 8 -30.171875 L 10.078125 -30.40625 C 10.222656 -30.4375 10.363281 -30.453125 10.5 -30.453125 C 10.632812 -30.453125 10.796875 -30.453125 10.984375 -30.453125 C 12.242188 -30.453125 13.128906 -30.222656 13.640625 -29.765625 C 14.148438 -29.316406 14.40625 -28.566406 14.40625 -27.515625 L 14.40625 -23.078125 L 23.484375 -31.75 L 27.109375 -28.375 L 27.109375 -23.3125 L 35.828125 -31.703125 C 36.242188 -31.015625 36.59375 -30.484375 36.875 -30.109375 C 37.164062 -29.734375 37.566406 -29.289062 38.078125 -28.78125 C 38.378906 -28.445312 38.65625 -28.164062 38.90625 -27.9375 C 39.164062 -27.707031 39.4375 -27.488281 39.71875 -27.28125 C 40.007812 -27.070312 40.320312 -26.859375 40.65625 -26.640625 C 40.988281 -26.429688 41.394531 -26.191406 41.875 -25.921875 Z M 32.96875 -24.171875 L 31.078125 -26.375 L 29.71875 -24.984375 L 29.71875 -6.453125 L 30.71875 -5.828125 C 30.863281 -5.703125 31.019531 -5.570312 31.1875 -5.4375 C 31.351562 -5.300781 31.554688 -5.144531 31.796875 -4.96875 C 32.398438 -4.394531 32.78125 -4.0625 32.9375 -3.96875 L 32.96875 -3.9375 Z M 29.1875 -24.53125 L 27.109375 -22.625 L 27.109375 -7.5 C 27.648438 -7.34375 28.023438 -7.226562 28.234375 -7.15625 C 28.441406 -7.082031 28.742188 -6.925781 29.140625 -6.6875 L 29.1875 -6.6875 Z M 20.28125 -24.75 L 18.65625 -26.375 L 17.03125 -24.75 L 17.03125 -6.59375 L 18.03125 -5.96875 C 18.269531 -5.8125 18.535156 -5.597656 18.828125 -5.328125 C 19.128906 -5.054688 19.597656 -4.601562 20.234375 -3.96875 L 20.28125 -3.9375 Z M 16.484375 -24.484375 L 14.40625 -22.359375 L 14.40625 -9.71875 L 13.28125 -9.71875 C 12.34375 -9.71875 11.53125 -9.65625 10.84375 -9.53125 C 10.476562 -9.46875 10.164062 -9.390625 9.90625 -9.296875 C 9.65625 -9.210938 9.410156 -9.09375 9.171875 -8.9375 C 8.929688 -8.789062 8.6875 -8.601562 8.4375 -8.375 C 8.195312 -8.15625 7.914062 -7.878906 7.59375 -7.546875 L 7.453125 -7.453125 L 7.59375 -7.5 C 7.945312 -7.644531 8.238281 -7.769531 8.46875 -7.875 C 8.695312 -7.988281 8.882812 -8.054688 9.03125 -8.078125 C 9.570312 -8.234375 10.28125 -8.3125 11.15625 -8.3125 C 12.125 -8.3125 13.023438 -8.195312 13.859375 -7.96875 C 14.703125 -7.75 15.5625 -7.378906 16.4375 -6.859375 L 16.484375 -6.859375 Z M 16.484375 -24.484375 "/></g></g></g><g fill="#ff00ff" fill-opacity="1"><g transform="translate(51.544258, 204.158148)"><g><path d="M 19.515625 -18.34375 C 19.003906 -17.914062 18.632812 -17.566406 18.40625 -17.296875 C 18.175781 -17.023438 18.019531 -16.738281 17.9375 -16.4375 C 17.84375 -16.132812 17.75 -15.65625 17.65625 -15 C 17.601562 -14.664062 17.578125 -14.363281 17.578125 -14.09375 C 17.578125 -13.820312 17.578125 -13.550781 17.578125 -13.28125 L 17.578125 -3.25 L 17.125 -3.25 C 15.976562 -3.25 15.082031 -3.1875 14.4375 -3.0625 C 13.789062 -2.945312 13.132812 -2.722656 12.46875 -2.390625 C 11.65625 -1.972656 10.945312 -1.4375 10.34375 -0.78125 C 9.738281 -0.132812 9.269531 0.59375 8.9375 1.40625 C 8.882812 1.25 8.828125 1.125 8.765625 1.03125 C 8.703125 0.945312 8.65625 0.875 8.625 0.8125 C 8.382812 0.476562 8.082031 0.117188 7.71875 -0.265625 C 7.363281 -0.660156 6.851562 -1.128906 6.1875 -1.671875 C 5.226562 -2.484375 4.5 -3.046875 4 -3.359375 C 3.5 -3.679688 3.082031 -3.84375 2.75 -3.84375 C 2.539062 -3.84375 2.304688 -3.75 2.046875 -3.5625 C 1.796875 -3.382812 1.367188 -2.992188 0.765625 -2.390625 L 0.3125 -2.984375 L 0.90625 -3.4375 C 1.351562 -3.769531 1.660156 -4.070312 1.828125 -4.34375 C 1.992188 -4.613281 2.148438 -4.957031 2.296875 -5.375 C 2.453125 -5.800781 2.550781 -6.21875 2.59375 -6.625 C 2.644531 -7.03125 2.671875 -7.625 2.671875 -8.40625 L 2.671875 -17.984375 C 2.816406 -17.953125 2.992188 -17.9375 3.203125 -17.9375 L 4.375 -17.9375 C 5.070312 -17.9375 5.84375 -18.03125 6.6875 -18.21875 C 7.53125 -18.414062 8.269531 -18.664062 8.90625 -18.96875 C 10.132812 -19.570312 11.140625 -20.65625 11.921875 -22.21875 C 12.460938 -21.53125 12.875 -21.035156 13.15625 -20.734375 C 13.445312 -20.429688 13.773438 -20.128906 14.140625 -19.828125 L 15.765625 -18.515625 C 16.128906 -18.210938 16.421875 -18.007812 16.640625 -17.90625 C 16.867188 -17.800781 17.101562 -17.75 17.34375 -17.75 C 17.644531 -17.75 17.9375 -17.835938 18.21875 -18.015625 C 18.507812 -18.203125 18.910156 -18.566406 19.421875 -19.109375 L 19.828125 -18.65625 Z M 11.921875 -14.1875 C 11.503906 -14.425781 11.171875 -14.613281 10.921875 -14.75 C 10.679688 -14.882812 10.441406 -15.070312 10.203125 -15.3125 C 9.878906 -15.644531 9.617188 -15.96875 9.421875 -16.28125 C 9.222656 -16.601562 8.988281 -17.0625 8.71875 -17.65625 L 8.3125 -17.484375 L 8.3125 -7.09375 C 8.457031 -6.96875 8.582031 -6.867188 8.6875 -6.796875 C 8.800781 -6.722656 8.882812 -6.65625 8.9375 -6.59375 C 9.332031 -6.257812 9.65625 -5.988281 9.90625 -5.78125 C 10.164062 -5.570312 10.382812 -5.367188 10.5625 -5.171875 C 10.75 -4.972656 10.914062 -4.753906 11.0625 -4.515625 C 11.21875 -4.273438 11.382812 -3.972656 11.5625 -3.609375 L 11.921875 -3.84375 Z M 11.921875 -14.1875 "/></g></g></g><g fill="#ff00ff" fill-opacity="1"><g transform="translate(77.836026, 204.158148)"><g><path d="M 18.25 -19.515625 C 18.25 -18.097656 17.863281 -16.90625 17.09375 -15.9375 C 16.332031 -14.976562 15.378906 -14.5 14.234375 -14.5 C 12.691406 -14.5 11.578125 -15.3125 10.890625 -16.9375 L 9.125 -15.578125 L 9.125 -6.640625 L 12.78125 -4.34375 L 14.859375 -6.640625 L 15.359375 -6.09375 L 9.125 0.671875 C 7.675781 -0.679688 6.476562 -1.679688 5.53125 -2.328125 C 4.582031 -2.972656 3.804688 -3.296875 3.203125 -3.296875 C 2.898438 -3.296875 2.507812 -3.128906 2.03125 -2.796875 L 1.40625 -2.34375 L 1 -2.03125 L 0.59375 -2.578125 C 0.863281 -2.785156 1.078125 -2.957031 1.234375 -3.09375 C 1.398438 -3.226562 1.546875 -3.335938 1.671875 -3.421875 C 1.796875 -3.515625 1.898438 -3.609375 1.984375 -3.703125 C 2.078125 -3.796875 2.179688 -3.898438 2.296875 -4.015625 C 2.722656 -4.441406 3.023438 -4.878906 3.203125 -5.328125 C 3.390625 -5.785156 3.484375 -6.359375 3.484375 -7.046875 L 3.484375 -16.078125 L 1.484375 -17.484375 L 0.046875 -16.078125 L -0.359375 -16.484375 L 4.921875 -21.953125 L 9.125 -19.15625 L 9.125 -16.484375 C 9.488281 -16.722656 9.796875 -16.941406 10.046875 -17.140625 C 10.304688 -17.335938 10.546875 -17.523438 10.765625 -17.703125 C 10.992188 -17.890625 11.222656 -18.078125 11.453125 -18.265625 C 11.679688 -18.460938 11.957031 -18.695312 12.28125 -18.96875 C 12.550781 -19.207031 12.789062 -19.414062 13 -19.59375 C 13.21875 -19.78125 13.414062 -19.960938 13.59375 -20.140625 C 13.78125 -20.328125 13.96875 -20.523438 14.15625 -20.734375 C 14.351562 -20.941406 14.585938 -21.179688 14.859375 -21.453125 C 15.492188 -19.410156 16.171875 -18.390625 16.890625 -18.390625 C 17.128906 -18.390625 17.304688 -18.5 17.421875 -18.71875 C 17.546875 -18.945312 17.609375 -19.226562 17.609375 -19.5625 C 17.609375 -19.707031 17.609375 -19.847656 17.609375 -19.984375 C 17.609375 -20.117188 17.597656 -20.28125 17.578125 -20.46875 L 18.15625 -20.46875 C 18.1875 -20.21875 18.207031 -20.03125 18.21875 -19.90625 C 18.238281 -19.789062 18.25 -19.660156 18.25 -19.515625 Z M 18.25 -19.515625 "/></g></g></g><g fill="#ff00ff" fill-opacity="1"><g transform="translate(101.507708, 204.158148)"><g><path d="M 7.359375 0.765625 C 7.148438 0.523438 6.96875 0.3125 6.8125 0.125 C 6.664062 -0.0507812 6.515625 -0.21875 6.359375 -0.375 C 6.210938 -0.539062 6.039062 -0.722656 5.84375 -0.921875 C 5.65625 -1.117188 5.410156 -1.367188 5.109375 -1.671875 C 4.503906 -2.273438 4.039062 -2.6875 3.71875 -2.90625 C 3.40625 -3.132812 3.160156 -3.25 2.984375 -3.25 C 2.585938 -3.25 1.9375 -2.796875 1.03125 -1.890625 L 0.625 -2.390625 C 1.082031 -2.785156 1.421875 -3.078125 1.640625 -3.265625 C 1.867188 -3.460938 2.101562 -3.710938 2.34375 -4.015625 C 2.53125 -4.234375 2.679688 -4.4375 2.796875 -4.625 C 2.921875 -4.820312 3.007812 -5.0625 3.0625 -5.34375 C 3.125 -5.632812 3.160156 -6 3.171875 -6.4375 C 3.191406 -6.875 3.203125 -7.4375 3.203125 -8.125 L 3.203125 -17.84375 L 0.1875 -17.84375 L 0.1875 -21 L 3.203125 -21 L 3.203125 -25.703125 L 6.734375 -29.046875 L 8.859375 -29.046875 L 8.859375 -21 L 12.46875 -21 L 12.46875 -17.84375 L 8.859375 -17.84375 L 8.859375 -5.921875 L 10.890625 -4.0625 L 12.46875 -5.640625 L 13.015625 -5.15625 Z M 7.359375 0.765625 "/></g></g></g><g fill="#ff00ff" fill-opacity="1"><g transform="translate(120.436132, 204.158148)"><g/></g></g><g fill="#ff00ff" fill-opacity="1"><g transform="translate(136.563778, 204.158148)"><g><path d="M 17.484375 0.671875 L 13.328125 -2.484375 L 13.328125 -5.515625 C 12.898438 -5.117188 12.535156 -4.785156 12.234375 -4.515625 C 11.941406 -4.242188 11.671875 -3.992188 11.421875 -3.765625 C 11.179688 -3.546875 10.957031 -3.328125 10.75 -3.109375 C 10.539062 -2.898438 10.332031 -2.691406 10.125 -2.484375 C 9.601562 -1.941406 9.160156 -1.46875 8.796875 -1.0625 C 8.441406 -0.65625 7.960938 -0.078125 7.359375 0.671875 C 6.460938 -0.410156 5.613281 -1.257812 4.8125 -1.875 C 4.007812 -2.488281 3.367188 -2.796875 2.890625 -2.796875 C 2.648438 -2.796875 2.257812 -2.585938 1.71875 -2.171875 C 1.5625 -2.078125 1.363281 -1.925781 1.125 -1.71875 L 0.71875 -2.21875 L 1.125 -2.53125 L 2.03125 -3.25 C 2.539062 -3.675781 2.910156 -4.117188 3.140625 -4.578125 C 3.367188 -5.046875 3.484375 -5.660156 3.484375 -6.421875 L 3.484375 -15.578125 L 1.578125 -16.9375 L 0.265625 -15.578125 L -0.1875 -16.03125 L 4.921875 -21.328125 L 9.125 -18.515625 L 9.125 -5.515625 L 10.890625 -4.0625 L 13.328125 -6.421875 L 13.328125 -15.171875 L 10.890625 -16.9375 L 14.6875 -21.328125 C 15.851562 -20.179688 16.769531 -19.363281 17.4375 -18.875 C 18.101562 -18.394531 18.628906 -18.15625 19.015625 -18.15625 C 19.492188 -18.15625 20.15625 -18.578125 21 -19.421875 L 21.453125 -18.796875 C 20.578125 -18.191406 19.941406 -17.554688 19.546875 -16.890625 C 19.160156 -16.234375 18.96875 -15.421875 18.96875 -14.453125 L 18.96875 -5.515625 L 20.953125 -4.0625 L 22.21875 -5.421875 L 22.671875 -4.96875 Z M 17.484375 0.671875 "/></g></g></g><g fill="#ff00ff" fill-opacity="1"><g transform="translate(165.069059, 204.158148)"><g><path d="M 17.125 0.8125 L 13.140625 -2.4375 L 13.140625 -15.765625 L 11.65625 -17.078125 L 9.125 -15 L 9.125 -6.140625 C 9.125 -5.535156 9.164062 -5.097656 9.25 -4.828125 C 9.34375 -4.554688 9.539062 -4.300781 9.84375 -4.0625 C 10.082031 -3.914062 10.316406 -3.796875 10.546875 -3.703125 C 10.773438 -3.609375 11.144531 -3.488281 11.65625 -3.34375 C 10.78125 -3.039062 10.113281 -2.785156 9.65625 -2.578125 C 9.207031 -2.367188 8.773438 -2.097656 8.359375 -1.765625 C 7.898438 -1.398438 7.53125 -1.015625 7.25 -0.609375 C 6.96875 -0.203125 6.613281 0.421875 6.1875 1.265625 C 5.820312 0.546875 5.484375 -0.0507812 5.171875 -0.53125 C 4.859375 -1.019531 4.503906 -1.429688 4.109375 -1.765625 C 3.710938 -2.097656 3.25 -2.382812 2.71875 -2.625 C 2.195312 -2.863281 1.578125 -3.101562 0.859375 -3.34375 C 1.003906 -3.375 1.125 -3.40625 1.21875 -3.4375 C 1.3125 -3.46875 1.390625 -3.484375 1.453125 -3.484375 C 1.597656 -3.535156 1.726562 -3.578125 1.84375 -3.609375 C 1.96875 -3.640625 2.078125 -3.671875 2.171875 -3.703125 C 2.472656 -3.796875 2.726562 -3.945312 2.9375 -4.15625 C 3.300781 -4.457031 3.484375 -5.117188 3.484375 -6.140625 L 3.484375 -16.265625 L 1.625 -17.703125 L 0.140625 -16.265625 L -0.265625 -16.796875 L 5.015625 -22.09375 C 5.429688 -21.664062 5.789062 -21.316406 6.09375 -21.046875 C 6.394531 -20.773438 6.6875 -20.523438 6.96875 -20.296875 C 7.257812 -20.078125 7.570312 -19.859375 7.90625 -19.640625 C 8.238281 -19.429688 8.644531 -19.175781 9.125 -18.875 L 9.125 -15.765625 L 9.9375 -16.390625 C 10.71875 -16.992188 11.429688 -17.582031 12.078125 -18.15625 C 12.734375 -18.726562 13.375 -19.316406 14 -19.921875 C 14.425781 -20.316406 14.726562 -20.609375 14.90625 -20.796875 C 15.082031 -20.992188 15.335938 -21.289062 15.671875 -21.6875 C 16.210938 -20.84375 16.648438 -20.203125 16.984375 -19.765625 C 17.316406 -19.328125 17.664062 -18.925781 18.03125 -18.5625 C 18.269531 -18.320312 18.515625 -18.125 18.765625 -17.96875 C 19.023438 -17.820312 19.226562 -17.75 19.375 -17.75 C 19.707031 -17.75 20.234375 -18.113281 20.953125 -18.84375 L 21.40625 -18.25 C 20.445312 -17.5 19.765625 -16.8125 19.359375 -16.1875 C 18.953125 -15.570312 18.75 -14.890625 18.75 -14.140625 L 18.75 -5.5625 L 20.515625 -3.890625 L 21.734375 -5.0625 L 22.21875 -4.609375 Z M 17.125 0.8125 "/></g></g></g><g fill="#ff00ff" fill-opacity="1"><g transform="translate(193.348473, 204.158148)"><g><path d="M 19.515625 -18.25 C 19.003906 -17.800781 18.648438 -17.46875 18.453125 -17.25 C 18.253906 -17.039062 18.113281 -16.816406 18.03125 -16.578125 C 17.96875 -16.398438 17.90625 -16.007812 17.84375 -15.40625 C 17.78125 -14.800781 17.75 -14.210938 17.75 -13.640625 L 17.75 -3.296875 C 17.414062 -3.328125 17.164062 -3.34375 17 -3.34375 C 16.84375 -3.34375 16.671875 -3.34375 16.484375 -3.34375 C 15.191406 -3.34375 13.867188 -3.085938 12.515625 -2.578125 C 12.117188 -2.421875 11.75 -2.253906 11.40625 -2.078125 C 11.0625 -1.898438 10.722656 -1.691406 10.390625 -1.453125 C 10.023438 -1.171875 9.691406 -0.863281 9.390625 -0.53125 C 9.085938 -0.207031 8.726562 0.253906 8.3125 0.859375 L 7.59375 0.1875 C 7.164062 -0.207031 6.804688 -0.539062 6.515625 -0.8125 C 6.234375 -1.082031 5.972656 -1.328125 5.734375 -1.546875 C 5.492188 -1.773438 5.242188 -2.003906 4.984375 -2.234375 C 4.734375 -2.460938 4.425781 -2.710938 4.0625 -2.984375 C 3.070312 -3.796875 2.320312 -4.203125 1.8125 -4.203125 C 1.507812 -4.203125 1.054688 -3.988281 0.453125 -3.5625 L 0.1875 -4.015625 C 0.300781 -4.109375 0.394531 -4.1875 0.46875 -4.25 C 0.550781 -4.3125 0.617188 -4.367188 0.671875 -4.421875 C 1.128906 -4.753906 1.460938 -5.054688 1.671875 -5.328125 C 1.941406 -5.597656 2.164062 -5.929688 2.34375 -6.328125 C 2.5625 -6.898438 2.671875 -7.441406 2.671875 -7.953125 L 2.671875 -16.984375 C 3.085938 -16.921875 3.414062 -16.890625 3.65625 -16.890625 C 3.894531 -16.890625 4.132812 -16.890625 4.375 -16.890625 C 5.007812 -16.890625 5.566406 -16.921875 6.046875 -16.984375 C 6.535156 -17.046875 7.125 -17.179688 7.8125 -17.390625 L 2.34375 -21.5 L 2.34375 -28.328125 L 16.171875 -18.15625 C 16.710938 -17.769531 17.148438 -17.578125 17.484375 -17.578125 C 17.816406 -17.578125 18.539062 -18.070312 19.65625 -19.0625 L 19.96875 -18.65625 Z M 12.109375 -14.28125 L 8.53125 -16.84375 L 8.3125 -16.71875 L 8.3125 -6.59375 L 11.875 -3.203125 L 12.109375 -3.296875 Z M 12.109375 -14.28125 "/></g></g></g><g fill="#ff00ff" fill-opacity="1"><g transform="translate(219.820941, 204.158148)"><g/></g></g><g fill="#ff00ff" fill-opacity="1"><g transform="translate(235.948578, 204.158148)"><g><path d="M 36.8125 0.59375 C 36.363281 0.320312 35.972656 0.0820312 35.640625 -0.125 C 35.304688 -0.34375 35.007812 -0.5625 34.75 -0.78125 C 34.5 -1.007812 34.257812 -1.242188 34.03125 -1.484375 C 33.8125 -1.734375 33.582031 -2.019531 33.34375 -2.34375 C 33.09375 -2.644531 32.898438 -2.910156 32.765625 -3.140625 C 32.628906 -3.367188 32.523438 -3.601562 32.453125 -3.84375 C 32.378906 -4.082031 32.332031 -4.359375 32.3125 -4.671875 C 32.300781 -4.992188 32.296875 -5.394531 32.296875 -5.875 L 32.296875 -24.125 L 31.078125 -25.4375 L 29.90625 -24.125 L 29.90625 -5.6875 L 31.078125 -7 L 31.53125 -6.59375 L 25.078125 0.59375 C 24.679688 0.132812 24.351562 -0.242188 24.09375 -0.546875 C 23.84375 -0.847656 23.617188 -1.101562 23.421875 -1.3125 C 23.222656 -1.519531 23.039062 -1.707031 22.875 -1.875 C 22.707031 -2.039062 22.519531 -2.226562 22.3125 -2.4375 C 21.832031 -2.882812 21.347656 -3.242188 20.859375 -3.515625 C 20.378906 -3.796875 19.707031 -4.128906 18.84375 -4.515625 L 18.84375 -5.015625 C 19.625 -5.046875 20.117188 -5.316406 20.328125 -5.828125 C 20.421875 -6.035156 20.492188 -6.347656 20.546875 -6.765625 C 20.609375 -7.191406 20.640625 -7.585938 20.640625 -7.953125 L 20.640625 -13.421875 L 18.4375 -13.421875 L 18.4375 -5.46875 C 18.4375 -4.59375 18.394531 -3.890625 18.3125 -3.359375 C 18.238281 -2.835938 18.097656 -2.273438 17.890625 -1.671875 C 17.554688 -0.796875 17.140625 -0.1875 16.640625 0.15625 C 16.148438 0.5 15.453125 0.671875 14.546875 0.671875 C 14.210938 0.671875 13.910156 0.648438 13.640625 0.609375 C 13.367188 0.566406 13.066406 0.488281 12.734375 0.375 C 12.398438 0.269531 12.023438 0.125 11.609375 -0.0625 C 11.191406 -0.257812 10.664062 -0.523438 10.03125 -0.859375 C 8.851562 -1.460938 7.914062 -1.890625 7.21875 -2.140625 C 6.53125 -2.398438 5.929688 -2.53125 5.421875 -2.53125 C 4.703125 -2.53125 4.109375 -2.285156 3.640625 -1.796875 C 3.171875 -1.316406 2.9375 -0.703125 2.9375 0.046875 C 2.9375 1.816406 3.929688 3.082031 5.921875 3.84375 C 6.878906 4.195312 7.960938 4.476562 9.171875 4.6875 C 10.378906 4.90625 11.507812 5.015625 12.5625 5.015625 C 13.976562 5.015625 15.28125 4.8125 16.46875 4.40625 C 17.65625 4 18.503906 3.460938 19.015625 2.796875 C 19.378906 2.347656 19.617188 1.84375 19.734375 1.28125 C 19.859375 0.726562 19.921875 -0.117188 19.921875 -1.265625 L 20.640625 -1.265625 L 20.640625 -1 C 20.640625 1.863281 19.847656 4.113281 18.265625 5.75 C 16.691406 7.394531 14.519531 8.21875 11.75 8.21875 C 10.363281 8.21875 9.097656 8 7.953125 7.5625 C 6.804688 7.125 5.816406 6.515625 4.984375 5.734375 C 4.160156 4.953125 3.515625 4.019531 3.046875 2.9375 C 2.578125 1.851562 2.34375 0.648438 2.34375 -0.671875 C 2.34375 -1.785156 2.515625 -2.863281 2.859375 -3.90625 C 3.210938 -4.945312 3.691406 -5.8125 4.296875 -6.5 C 4.617188 -6.894531 5 -7.21875 5.4375 -7.46875 C 5.875 -7.726562 6.441406 -7.976562 7.140625 -8.21875 C 7.984375 -8.488281 8.539062 -8.757812 8.8125 -9.03125 C 9.082031 -9.300781 9.21875 -9.722656 9.21875 -10.296875 L 9.21875 -14.40625 L 6.546875 -14.40625 C 6.128906 -14.40625 5.722656 -14.335938 5.328125 -14.203125 C 4.941406 -14.066406 4.640625 -13.878906 4.421875 -13.640625 C 4.273438 -13.492188 4.171875 -13.273438 4.109375 -12.984375 C 4.046875 -12.703125 4.015625 -12.289062 4.015625 -11.75 L 3.4375 -11.75 C 3.4375 -12.4375 3.445312 -13.019531 3.46875 -13.5 C 3.5 -13.988281 3.53125 -14.410156 3.5625 -14.765625 C 3.59375 -15.128906 3.628906 -15.453125 3.671875 -15.734375 C 3.722656 -16.023438 3.78125 -16.335938 3.84375 -16.671875 C 4.257812 -18.535156 5.359375 -19.46875 7.140625 -19.46875 L 9.21875 -19.46875 L 9.21875 -24.125 L 7 -24.125 C 6.28125 -24.125 5.8125 -24.144531 5.59375 -24.1875 C 5.382812 -24.226562 5.175781 -24.359375 4.96875 -24.578125 C 4.632812 -24.910156 4.367188 -25.488281 4.171875 -26.3125 C 3.984375 -27.144531 3.890625 -28.144531 3.890625 -29.3125 C 3.890625 -29.613281 3.894531 -29.890625 3.90625 -30.140625 C 3.925781 -30.398438 3.960938 -30.785156 4.015625 -31.296875 L 4.609375 -31.296875 C 4.609375 -30.878906 4.664062 -30.585938 4.78125 -30.421875 C 4.90625 -30.253906 5.117188 -30.171875 5.421875 -30.171875 C 5.515625 -30.171875 5.71875 -30.175781 6.03125 -30.1875 C 6.34375 -30.207031 6.785156 -30.25 7.359375 -30.3125 L 9.890625 -30.578125 L 12.375 -30.8125 C 12.5 -30.84375 12.664062 -30.859375 12.875 -30.859375 C 13.382812 -30.859375 13.859375 -30.78125 14.296875 -30.625 C 14.734375 -30.476562 15.070312 -30.269531 15.3125 -30 C 15.550781 -29.664062 15.726562 -29.21875 15.84375 -28.65625 C 15.96875 -28.101562 16.03125 -27.316406 16.03125 -26.296875 L 16.03125 -23.765625 L 23.625 -30.765625 C 24.164062 -30.460938 24.609375 -30.195312 24.953125 -29.96875 C 25.304688 -29.75 25.617188 -29.53125 25.890625 -29.3125 C 26.160156 -29.101562 26.40625 -28.867188 26.625 -28.609375 C 26.851562 -28.359375 27.132812 -28.050781 27.46875 -27.6875 L 27.46875 -22.859375 L 35.453125 -30.765625 C 35.722656 -30.285156 35.960938 -29.882812 36.171875 -29.5625 C 36.390625 -29.25 36.601562 -28.957031 36.8125 -28.6875 C 37.019531 -28.414062 37.253906 -28.148438 37.515625 -27.890625 C 37.773438 -27.640625 38.082031 -27.347656 38.4375 -27.015625 C 38.738281 -26.742188 39.003906 -26.515625 39.234375 -26.328125 C 39.460938 -26.148438 39.679688 -25.984375 39.890625 -25.828125 C 40.097656 -25.679688 40.3125 -25.539062 40.53125 -25.40625 C 40.757812 -25.269531 41.039062 -25.113281 41.375 -24.9375 C 40.863281 -24.78125 40.457031 -24.625 40.15625 -24.46875 C 39.851562 -24.320312 39.625 -24.128906 39.46875 -23.890625 C 39.320312 -23.648438 39.226562 -23.34375 39.1875 -22.96875 C 39.144531 -22.59375 39.125 -22.085938 39.125 -21.453125 L 39.125 -7.953125 C 39.125 -6.441406 39.546875 -5.6875 40.390625 -5.6875 C 40.710938 -5.6875 41.175781 -6.003906 41.78125 -6.640625 L 42.1875 -6.28125 Z M 29.265625 -23.765625 L 27.46875 -21.8125 L 27.46875 -18.25 L 29.265625 -18.25 Z M 20.640625 -22.21875 C 20.640625 -23.09375 20.503906 -23.804688 20.234375 -24.359375 C 19.960938 -24.921875 19.617188 -25.203125 19.203125 -25.203125 C 19.046875 -25.203125 18.789062 -25.113281 18.4375 -24.9375 L 18.4375 -18.25 L 20.640625 -18.25 Z M 29.265625 -13.421875 L 27.46875 -13.421875 L 27.46875 -6.640625 L 29.265625 -5.015625 Z M 17.84375 -24.390625 L 16.03125 -22.5 L 16.03125 -9.265625 C 15.101562 -9.265625 14.320312 -9.25 13.6875 -9.21875 C 13.050781 -9.1875 12.460938 -9.128906 11.921875 -9.046875 C 11.378906 -8.972656 10.84375 -8.863281 10.3125 -8.71875 C 9.789062 -8.570312 9.171875 -8.390625 8.453125 -8.171875 C 9.410156 -7.992188 10.160156 -7.835938 10.703125 -7.703125 C 11.242188 -7.566406 11.863281 -7.332031 12.5625 -7 C 13.757812 -6.457031 14.492188 -6.140625 14.765625 -6.046875 C 15.097656 -5.929688 15.492188 -5.875 15.953125 -5.875 C 17.210938 -5.875 17.84375 -6.835938 17.84375 -8.765625 Z M 17.84375 -24.390625 "/></g></g></g><g fill="#ff00ff" fill-opacity="1"><g transform="translate(283.833455, 204.158148)"><g><path d="M 21.59375 -4.296875 C 21.320312 -4.078125 21.078125 -3.882812 20.859375 -3.71875 C 20.648438 -3.5625 20.457031 -3.40625 20.28125 -3.25 C 20.101562 -3.101562 19.914062 -2.9375 19.71875 -2.75 C 19.519531 -2.570312 19.285156 -2.363281 19.015625 -2.125 C 18.679688 -1.820312 18.398438 -1.5625 18.171875 -1.34375 C 17.953125 -1.132812 17.75 -0.929688 17.5625 -0.734375 C 17.382812 -0.546875 17.195312 -0.335938 17 -0.109375 C 16.8125 0.109375 16.582031 0.367188 16.3125 0.671875 L 12.328125 -2.03125 L 12.328125 -5.59375 L 6.453125 0.671875 L 2.671875 -2.265625 L 2.671875 -17.890625 C 2.992188 -17.859375 3.238281 -17.84375 3.40625 -17.84375 C 3.570312 -17.84375 3.75 -17.84375 3.9375 -17.84375 C 4.53125 -17.84375 5.160156 -17.894531 5.828125 -18 C 6.492188 -18.101562 7.082031 -18.25 7.59375 -18.4375 C 8.25 -18.675781 8.96875 -19.066406 9.75 -19.609375 C 10.175781 -19.910156 10.5625 -20.207031 10.90625 -20.5 C 11.25 -20.800781 11.722656 -21.285156 12.328125 -21.953125 L 16.484375 -18.5625 C 16.785156 -18.320312 17.101562 -18.125 17.4375 -17.96875 C 17.769531 -17.820312 18.054688 -17.75 18.296875 -17.75 C 18.535156 -17.75 18.765625 -17.816406 18.984375 -17.953125 C 19.210938 -18.085938 19.597656 -18.367188 20.140625 -18.796875 L 20.515625 -18.34375 C 19.941406 -17.914062 19.488281 -17.535156 19.15625 -17.203125 C 18.820312 -16.878906 18.5625 -16.535156 18.375 -16.171875 C 18.195312 -15.804688 18.085938 -15.390625 18.046875 -14.921875 C 18.003906 -14.460938 17.984375 -13.882812 17.984375 -13.1875 L 17.984375 -5.328125 L 20.140625 -3.96875 L 21.234375 -4.78125 Z M 12.328125 -15.21875 L 8.578125 -18.03125 L 8.3125 -17.890625 L 8.3125 -5.78125 L 10.4375 -4.46875 L 12.328125 -6.421875 Z M 12.328125 -15.21875 "/></g></g></g><g fill="#ff00ff" fill-opacity="1"><g transform="translate(311.344903, 204.158148)"><g><path d="M 15.171875 -20.953125 C 14.960938 -19.179688 14.5625 -17.894531 13.96875 -17.09375 C 13.382812 -16.300781 12.523438 -15.90625 11.390625 -15.90625 C 9.878906 -15.90625 8.941406 -16.757812 8.578125 -18.46875 L 8.3125 -18.390625 L 8.3125 -6.015625 L 12.515625 -3.609375 L 14.640625 -6.421875 L 15.125 -6.015625 L 9.625 1.3125 C 9.113281 0.882812 8.695312 0.566406 8.375 0.359375 C 8.0625 0.148438 7.617188 -0.117188 7.046875 -0.453125 C 6.804688 -0.597656 6.519531 -0.769531 6.1875 -0.96875 C 5.851562 -1.164062 5.476562 -1.382812 5.0625 -1.625 C 4.457031 -1.957031 3.992188 -2.191406 3.671875 -2.328125 C 3.359375 -2.460938 3.082031 -2.53125 2.84375 -2.53125 C 2.570312 -2.53125 2.300781 -2.421875 2.03125 -2.203125 C 1.757812 -1.992188 1.351562 -1.59375 0.8125 -1 L 0.359375 -1.40625 C 0.722656 -1.757812 0.945312 -2 1.03125 -2.125 C 1.457031 -2.539062 1.769531 -2.898438 1.96875 -3.203125 C 2.164062 -3.503906 2.304688 -3.820312 2.390625 -4.15625 C 2.453125 -4.457031 2.515625 -5.019531 2.578125 -5.84375 C 2.640625 -6.675781 2.671875 -7.46875 2.671875 -8.21875 L 2.671875 -18.390625 C 3.085938 -18.328125 3.40625 -18.28125 3.625 -18.25 C 3.851562 -18.21875 4.09375 -18.203125 4.34375 -18.203125 C 5.425781 -18.203125 6.550781 -18.414062 7.71875 -18.84375 C 8.414062 -19.113281 9.066406 -19.441406 9.671875 -19.828125 C 10.179688 -20.160156 10.578125 -20.476562 10.859375 -20.78125 C 11.148438 -21.082031 11.503906 -21.546875 11.921875 -22.171875 C 12.078125 -21.335938 12.3125 -20.671875 12.625 -20.171875 C 12.9375 -19.671875 13.273438 -19.421875 13.640625 -19.421875 C 14.117188 -19.421875 14.453125 -19.929688 14.640625 -20.953125 Z M 15.171875 -20.953125 "/></g></g></g><g fill="#ff00ff" fill-opacity="1"><g transform="translate(332.75788, 204.158148)"><g><path d="M 20.015625 -19.375 C 19.554688 -18.957031 19.195312 -18.628906 18.9375 -18.390625 C 18.6875 -18.148438 18.488281 -17.921875 18.34375 -17.703125 C 18.1875 -17.523438 18.054688 -17.304688 17.953125 -17.046875 C 17.847656 -16.796875 17.765625 -16.472656 17.703125 -16.078125 C 17.640625 -15.691406 17.601562 -15.210938 17.59375 -14.640625 C 17.582031 -14.066406 17.578125 -13.359375 17.578125 -12.515625 L 17.578125 -8.046875 C 17.578125 -6.835938 17.550781 -5.773438 17.5 -4.859375 C 17.457031 -3.941406 17.390625 -3.101562 17.296875 -2.34375 C 17.210938 -1.59375 17.085938 -0.914062 16.921875 -0.3125 C 16.753906 0.289062 16.550781 0.863281 16.3125 1.40625 C 15.800781 2.601562 15.109375 3.671875 14.234375 4.609375 C 13.359375 5.546875 12.273438 6.359375 10.984375 7.046875 C 10.617188 7.253906 10.285156 7.425781 9.984375 7.5625 C 9.679688 7.695312 9.378906 7.816406 9.078125 7.921875 C 8.773438 8.023438 8.441406 8.113281 8.078125 8.1875 C 7.722656 8.269531 7.304688 8.359375 6.828125 8.453125 L 6.828125 7.671875 C 7.117188 7.585938 7.382812 7.503906 7.625 7.421875 C 7.875 7.347656 8.101562 7.285156 8.3125 7.234375 C 8.757812 7.078125 9.203125 6.847656 9.640625 6.546875 C 10.078125 6.242188 10.414062 5.941406 10.65625 5.640625 C 11.5 4.503906 11.921875 1.492188 11.921875 -3.390625 L 11.921875 -16.03125 L 10.390625 -17.578125 L 8.3125 -15.3125 L 8.3125 -7.90625 C 8.3125 -7.125 8.34375 -6.554688 8.40625 -6.203125 C 8.46875 -5.859375 8.570312 -5.519531 8.71875 -5.1875 C 8.863281 -4.914062 9.023438 -4.71875 9.203125 -4.59375 C 9.390625 -4.476562 9.738281 -4.347656 10.25 -4.203125 C 10.3125 -4.203125 10.429688 -4.171875 10.609375 -4.109375 C 10.035156 -3.992188 9.546875 -3.820312 9.140625 -3.59375 C 8.734375 -3.363281 8.257812 -3.007812 7.71875 -2.53125 C 7.394531 -2.257812 7.125 -1.992188 6.90625 -1.734375 C 6.695312 -1.484375 6.5 -1.210938 6.3125 -0.921875 C 6.132812 -0.640625 5.96875 -0.316406 5.8125 0.046875 C 5.664062 0.410156 5.503906 0.863281 5.328125 1.40625 C 5.085938 0.707031 4.882812 0.195312 4.71875 -0.125 C 4.550781 -0.457031 4.378906 -0.773438 4.203125 -1.078125 C 3.960938 -1.378906 3.644531 -1.742188 3.25 -2.171875 C 2.800781 -2.585938 2.390625 -2.921875 2.015625 -3.171875 C 1.640625 -3.429688 1.070312 -3.742188 0.3125 -4.109375 C 0.769531 -4.234375 1.109375 -4.363281 1.328125 -4.5 C 1.554688 -4.632812 1.773438 -4.851562 1.984375 -5.15625 C 2.253906 -5.476562 2.4375 -5.878906 2.53125 -6.359375 C 2.625 -6.847656 2.671875 -7.601562 2.671875 -8.625 L 2.671875 -28.375 L 8.3125 -30.125 L 8.3125 -16.03125 L 14.3125 -22.265625 C 14.582031 -21.785156 14.875 -21.328125 15.1875 -20.890625 C 15.507812 -20.453125 15.835938 -20.070312 16.171875 -19.75 C 16.503906 -19.4375 16.820312 -19.191406 17.125 -19.015625 C 17.425781 -18.835938 17.695312 -18.75 17.9375 -18.75 C 18.207031 -18.75 18.628906 -18.988281 19.203125 -19.46875 C 19.253906 -19.53125 19.3125 -19.582031 19.375 -19.625 C 19.4375 -19.664062 19.53125 -19.734375 19.65625 -19.828125 Z M 20.015625 -19.375 "/></g></g></g><g fill="#ff00ff" fill-opacity="1"><g transform="translate(359.094832, 204.158148)"><g><path d="M 7.359375 0.765625 C 7.148438 0.523438 6.96875 0.3125 6.8125 0.125 C 6.664062 -0.0507812 6.515625 -0.21875 6.359375 -0.375 C 6.210938 -0.539062 6.039062 -0.722656 5.84375 -0.921875 C 5.65625 -1.117188 5.410156 -1.367188 5.109375 -1.671875 C 4.503906 -2.273438 4.039062 -2.6875 3.71875 -2.90625 C 3.40625 -3.132812 3.160156 -3.25 2.984375 -3.25 C 2.585938 -3.25 1.9375 -2.796875 1.03125 -1.890625 L 0.625 -2.390625 C 1.082031 -2.785156 1.421875 -3.078125 1.640625 -3.265625 C 1.867188 -3.460938 2.101562 -3.710938 2.34375 -4.015625 C 2.53125 -4.234375 2.679688 -4.4375 2.796875 -4.625 C 2.921875 -4.820312 3.007812 -5.0625 3.0625 -5.34375 C 3.125 -5.632812 3.160156 -6 3.171875 -6.4375 C 3.191406 -6.875 3.203125 -7.4375 3.203125 -8.125 L 3.203125 -17.84375 L 0.1875 -17.84375 L 0.1875 -21 L 3.203125 -21 L 3.203125 -25.703125 L 6.734375 -29.046875 L 8.859375 -29.046875 L 8.859375 -21 L 12.46875 -21 L 12.46875 -17.84375 L 8.859375 -17.84375 L 8.859375 -5.921875 L 10.890625 -4.0625 L 12.46875 -5.640625 L 13.015625 -5.15625 Z M 7.359375 0.765625 "/></g></g></g><g fill="#00ffff" fill-opacity="1"><g transform="translate(3.026941, 198.510883)"><g><path d="M 41.875 -25.921875 C 41.539062 -25.835938 41.28125 -25.753906 41.09375 -25.671875 C 40.914062 -25.597656 40.753906 -25.488281 40.609375 -25.34375 C 40.066406 -24.832031 39.796875 -23.835938 39.796875 -22.359375 L 39.796875 -4.609375 C 38.535156 -4.578125 37.316406 -4.429688 36.140625 -4.171875 C 34.960938 -3.921875 33.894531 -3.566406 32.9375 -3.109375 C 32.113281 -2.722656 31.296875 -2.195312 30.484375 -1.53125 C 29.890625 -1.019531 29.441406 -0.5625 29.140625 -0.15625 C 28.835938 0.25 28.519531 0.859375 28.1875 1.671875 C 27.582031 0.890625 27.09375 0.296875 26.71875 -0.109375 C 26.34375 -0.515625 25.867188 -0.929688 25.296875 -1.359375 C 24.515625 -1.960938 23.738281 -2.410156 22.96875 -2.703125 C 22.195312 -3.003906 21.46875 -3.15625 20.78125 -3.15625 C 19.78125 -3.15625 18.726562 -2.710938 17.625 -1.828125 C 16.53125 -0.941406 15.59375 0.222656 14.8125 1.671875 L 14.3125 0.859375 C 14.039062 0.410156 13.65625 -0.0195312 13.15625 -0.4375 C 12.664062 -0.863281 12.109375 -1.242188 11.484375 -1.578125 C 10.867188 -1.910156 10.226562 -2.175781 9.5625 -2.375 C 8.90625 -2.570312 8.289062 -2.671875 7.71875 -2.671875 C 6.664062 -2.671875 5.804688 -2.375 5.140625 -1.78125 C 4.484375 -1.195312 4.15625 -0.453125 4.15625 0.453125 C 4.15625 1.140625 4.394531 1.769531 4.875 2.34375 C 5.332031 2.882812 5.859375 3.273438 6.453125 3.515625 C 7.328125 3.847656 8.40625 4.113281 9.6875 4.3125 C 10.96875 4.507812 12.285156 4.609375 13.640625 4.609375 C 15.535156 4.609375 17.125 4.429688 18.40625 4.078125 C 19.6875 3.734375 20.582031 3.21875 21.09375 2.53125 C 21.425781 2.101562 21.644531 1.632812 21.75 1.125 C 21.851562 0.613281 21.921875 -0.148438 21.953125 -1.171875 L 22.546875 -1.171875 L 22.546875 -0.8125 C 22.546875 0.539062 22.328125 1.757812 21.890625 2.84375 C 21.453125 3.925781 20.828125 4.859375 20.015625 5.640625 C 19.203125 6.429688 18.222656 7.035156 17.078125 7.453125 C 15.929688 7.867188 14.664062 8.078125 13.28125 8.078125 C 11.894531 8.078125 10.597656 7.851562 9.390625 7.40625 C 8.191406 6.957031 7.140625 6.332031 6.234375 5.53125 C 5.328125 4.738281 4.617188 3.8125 4.109375 2.75 C 3.597656 1.695312 3.34375 0.554688 3.34375 -0.671875 C 3.34375 -3.023438 4.203125 -5.015625 5.921875 -6.640625 C 6.335938 -7.035156 6.617188 -7.320312 6.765625 -7.5 C 6.921875 -7.675781 7.046875 -7.867188 7.140625 -8.078125 C 7.285156 -8.328125 7.40625 -8.707031 7.5 -9.21875 C 7.59375 -9.726562 7.640625 -10.191406 7.640625 -10.609375 L 7.640625 -14.28125 L 5.734375 -14.28125 C 4.890625 -14.28125 4.226562 -14.066406 3.75 -13.640625 C 3.539062 -13.429688 3.40625 -13.195312 3.34375 -12.9375 C 3.28125 -12.6875 3.234375 -12.210938 3.203125 -11.515625 L 2.578125 -11.515625 L 2.578125 -12.734375 C 2.578125 -14.003906 2.628906 -15.0625 2.734375 -15.90625 C 2.835938 -16.75 3.015625 -17.414062 3.265625 -17.90625 C 3.523438 -18.40625 3.859375 -18.757812 4.265625 -18.96875 C 4.671875 -19.175781 5.191406 -19.28125 5.828125 -19.28125 L 7.640625 -19.28125 L 7.640625 -22.59375 C 7.640625 -23.21875 7.539062 -23.628906 7.34375 -23.828125 C 7.144531 -24.023438 6.742188 -24.125 6.140625 -24.125 L 5.15625 -24.125 C 4.632812 -24.125 4.207031 -24.210938 3.875 -24.390625 C 3.550781 -24.566406 3.289062 -24.890625 3.09375 -25.359375 C 2.894531 -25.828125 2.757812 -26.46875 2.6875 -27.28125 C 2.613281 -28.09375 2.578125 -29.117188 2.578125 -30.359375 L 2.578125 -31.75 L 3.203125 -31.75 C 3.203125 -31.0625 3.320312 -30.585938 3.5625 -30.328125 C 3.8125 -30.078125 4.25 -29.953125 4.875 -29.953125 C 5.0625 -29.953125 5.25 -29.957031 5.4375 -29.96875 C 5.632812 -29.988281 5.851562 -30 6.09375 -30 L 8 -30.171875 L 10.078125 -30.40625 C 10.222656 -30.4375 10.363281 -30.453125 10.5 -30.453125 C 10.632812 -30.453125 10.796875 -30.453125 10.984375 -30.453125 C 12.242188 -30.453125 13.128906 -30.222656 13.640625 -29.765625 C 14.148438 -29.316406 14.40625 -28.566406 14.40625 -27.515625 L 14.40625 -23.078125 L 23.484375 -31.75 L 27.109375 -28.375 L 27.109375 -23.3125 L 35.828125 -31.703125 C 36.242188 -31.015625 36.59375 -30.484375 36.875 -30.109375 C 37.164062 -29.734375 37.566406 -29.289062 38.078125 -28.78125 C 38.378906 -28.445312 38.65625 -28.164062 38.90625 -27.9375 C 39.164062 -27.707031 39.4375 -27.488281 39.71875 -27.28125 C 40.007812 -27.070312 40.320312 -26.859375 40.65625 -26.640625 C 40.988281 -26.429688 41.394531 -26.191406 41.875 -25.921875 Z M 32.96875 -24.171875 L 31.078125 -26.375 L 29.71875 -24.984375 L 29.71875 -6.453125 L 30.71875 -5.828125 C 30.863281 -5.703125 31.019531 -5.570312 31.1875 -5.4375 C 31.351562 -5.300781 31.554688 -5.144531 31.796875 -4.96875 C 32.398438 -4.394531 32.78125 -4.0625 32.9375 -3.96875 L 32.96875 -3.9375 Z M 29.1875 -24.53125 L 27.109375 -22.625 L 27.109375 -7.5 C 27.648438 -7.34375 28.023438 -7.226562 28.234375 -7.15625 C 28.441406 -7.082031 28.742188 -6.925781 29.140625 -6.6875 L 29.1875 -6.6875 Z M 20.28125 -24.75 L 18.65625 -26.375 L 17.03125 -24.75 L 17.03125 -6.59375 L 18.03125 -5.96875 C 18.269531 -5.8125 18.535156 -5.597656 18.828125 -5.328125 C 19.128906 -5.054688 19.597656 -4.601562 20.234375 -3.96875 L 20.28125 -3.9375 Z M 16.484375 -24.484375 L 14.40625 -22.359375 L 14.40625 -9.71875 L 13.28125 -9.71875 C 12.34375 -9.71875 11.53125 -9.65625 10.84375 -9.53125 C 10.476562 -9.46875 10.164062 -9.390625 9.90625 -9.296875 C 9.65625 -9.210938 9.410156 -9.09375 9.171875 -8.9375 C 8.929688 -8.789062 8.6875 -8.601562 8.4375 -8.375 C 8.195312 -8.15625 7.914062 -7.878906 7.59375 -7.546875 L 7.453125 -7.453125 L 7.59375 -7.5 C 7.945312 -7.644531 8.238281 -7.769531 8.46875 -7.875 C 8.695312 -7.988281 8.882812 -8.054688 9.03125 -8.078125 C 9.570312 -8.234375 10.28125 -8.3125 11.15625 -8.3125 C 12.125 -8.3125 13.023438 -8.195312 13.859375 -7.96875 C 14.703125 -7.75 15.5625 -7.378906 16.4375 -6.859375 L 16.484375 -6.859375 Z M 16.484375 -24.484375 "/></g></g></g><g fill="#00ffff" fill-opacity="1"><g transform="translate(51.544258, 198.510883)"><g><path d="M 19.515625 -18.34375 C 19.003906 -17.914062 18.632812 -17.566406 18.40625 -17.296875 C 18.175781 -17.023438 18.019531 -16.738281 17.9375 -16.4375 C 17.84375 -16.132812 17.75 -15.65625 17.65625 -15 C 17.601562 -14.664062 17.578125 -14.363281 17.578125 -14.09375 C 17.578125 -13.820312 17.578125 -13.550781 17.578125 -13.28125 L 17.578125 -3.25 L 17.125 -3.25 C 15.976562 -3.25 15.082031 -3.1875 14.4375 -3.0625 C 13.789062 -2.945312 13.132812 -2.722656 12.46875 -2.390625 C 11.65625 -1.972656 10.945312 -1.4375 10.34375 -0.78125 C 9.738281 -0.132812 9.269531 0.59375 8.9375 1.40625 C 8.882812 1.25 8.828125 1.125 8.765625 1.03125 C 8.703125 0.945312 8.65625 0.875 8.625 0.8125 C 8.382812 0.476562 8.082031 0.117188 7.71875 -0.265625 C 7.363281 -0.660156 6.851562 -1.128906 6.1875 -1.671875 C 5.226562 -2.484375 4.5 -3.046875 4 -3.359375 C 3.5 -3.679688 3.082031 -3.84375 2.75 -3.84375 C 2.539062 -3.84375 2.304688 -3.75 2.046875 -3.5625 C 1.796875 -3.382812 1.367188 -2.992188 0.765625 -2.390625 L 0.3125 -2.984375 L 0.90625 -3.4375 C 1.351562 -3.769531 1.660156 -4.070312 1.828125 -4.34375 C 1.992188 -4.613281 2.148438 -4.957031 2.296875 -5.375 C 2.453125 -5.800781 2.550781 -6.21875 2.59375 -6.625 C 2.644531 -7.03125 2.671875 -7.625 2.671875 -8.40625 L 2.671875 -17.984375 C 2.816406 -17.953125 2.992188 -17.9375 3.203125 -17.9375 L 4.375 -17.9375 C 5.070312 -17.9375 5.84375 -18.03125 6.6875 -18.21875 C 7.53125 -18.414062 8.269531 -18.664062 8.90625 -18.96875 C 10.132812 -19.570312 11.140625 -20.65625 11.921875 -22.21875 C 12.460938 -21.53125 12.875 -21.035156 13.15625 -20.734375 C 13.445312 -20.429688 13.773438 -20.128906 14.140625 -19.828125 L 15.765625 -18.515625 C 16.128906 -18.210938 16.421875 -18.007812 16.640625 -17.90625 C 16.867188 -17.800781 17.101562 -17.75 17.34375 -17.75 C 17.644531 -17.75 17.9375 -17.835938 18.21875 -18.015625 C 18.507812 -18.203125 18.910156 -18.566406 19.421875 -19.109375 L 19.828125 -18.65625 Z M 11.921875 -14.1875 C 11.503906 -14.425781 11.171875 -14.613281 10.921875 -14.75 C 10.679688 -14.882812 10.441406 -15.070312 10.203125 -15.3125 C 9.878906 -15.644531 9.617188 -15.96875 9.421875 -16.28125 C 9.222656 -16.601562 8.988281 -17.0625 8.71875 -17.65625 L 8.3125 -17.484375 L 8.3125 -7.09375 C 8.457031 -6.96875 8.582031 -6.867188 8.6875 -6.796875 C 8.800781 -6.722656 8.882812 -6.65625 8.9375 -6.59375 C 9.332031 -6.257812 9.65625 -5.988281 9.90625 -5.78125 C 10.164062 -5.570312 10.382812 -5.367188 10.5625 -5.171875 C 10.75 -4.972656 10.914062 -4.753906 11.0625 -4.515625 C 11.21875 -4.273438 11.382812 -3.972656 11.5625 -3.609375 L 11.921875 -3.84375 Z M 11.921875 -14.1875 "/></g></g></g><g fill="#00ffff" fill-opacity="1"><g transform="translate(77.836026, 198.510883)"><g><path d="M 18.25 -19.515625 C 18.25 -18.097656 17.863281 -16.90625 17.09375 -15.9375 C 16.332031 -14.976562 15.378906 -14.5 14.234375 -14.5 C 12.691406 -14.5 11.578125 -15.3125 10.890625 -16.9375 L 9.125 -15.578125 L 9.125 -6.640625 L 12.78125 -4.34375 L 14.859375 -6.640625 L 15.359375 -6.09375 L 9.125 0.671875 C 7.675781 -0.679688 6.476562 -1.679688 5.53125 -2.328125 C 4.582031 -2.972656 3.804688 -3.296875 3.203125 -3.296875 C 2.898438 -3.296875 2.507812 -3.128906 2.03125 -2.796875 L 1.40625 -2.34375 L 1 -2.03125 L 0.59375 -2.578125 C 0.863281 -2.785156 1.078125 -2.957031 1.234375 -3.09375 C 1.398438 -3.226562 1.546875 -3.335938 1.671875 -3.421875 C 1.796875 -3.515625 1.898438 -3.609375 1.984375 -3.703125 C 2.078125 -3.796875 2.179688 -3.898438 2.296875 -4.015625 C 2.722656 -4.441406 3.023438 -4.878906 3.203125 -5.328125 C 3.390625 -5.785156 3.484375 -6.359375 3.484375 -7.046875 L 3.484375 -16.078125 L 1.484375 -17.484375 L 0.046875 -16.078125 L -0.359375 -16.484375 L 4.921875 -21.953125 L 9.125 -19.15625 L 9.125 -16.484375 C 9.488281 -16.722656 9.796875 -16.941406 10.046875 -17.140625 C 10.304688 -17.335938 10.546875 -17.523438 10.765625 -17.703125 C 10.992188 -17.890625 11.222656 -18.078125 11.453125 -18.265625 C 11.679688 -18.460938 11.957031 -18.695312 12.28125 -18.96875 C 12.550781 -19.207031 12.789062 -19.414062 13 -19.59375 C 13.21875 -19.78125 13.414062 -19.960938 13.59375 -20.140625 C 13.78125 -20.328125 13.96875 -20.523438 14.15625 -20.734375 C 14.351562 -20.941406 14.585938 -21.179688 14.859375 -21.453125 C 15.492188 -19.410156 16.171875 -18.390625 16.890625 -18.390625 C 17.128906 -18.390625 17.304688 -18.5 17.421875 -18.71875 C 17.546875 -18.945312 17.609375 -19.226562 17.609375 -19.5625 C 17.609375 -19.707031 17.609375 -19.847656 17.609375 -19.984375 C 17.609375 -20.117188 17.597656 -20.28125 17.578125 -20.46875 L 18.15625 -20.46875 C 18.1875 -20.21875 18.207031 -20.03125 18.21875 -19.90625 C 18.238281 -19.789062 18.25 -19.660156 18.25 -19.515625 Z M 18.25 -19.515625 "/></g></g></g><g fill="#00ffff" fill-opacity="1"><g transform="translate(101.507708, 198.510883)"><g><path d="M 7.359375 0.765625 C 7.148438 0.523438 6.96875 0.3125 6.8125 0.125 C 6.664062 -0.0507812 6.515625 -0.21875 6.359375 -0.375 C 6.210938 -0.539062 6.039062 -0.722656 5.84375 -0.921875 C 5.65625 -1.117188 5.410156 -1.367188 5.109375 -1.671875 C 4.503906 -2.273438 4.039062 -2.6875 3.71875 -2.90625 C 3.40625 -3.132812 3.160156 -3.25 2.984375 -3.25 C 2.585938 -3.25 1.9375 -2.796875 1.03125 -1.890625 L 0.625 -2.390625 C 1.082031 -2.785156 1.421875 -3.078125 1.640625 -3.265625 C 1.867188 -3.460938 2.101562 -3.710938 2.34375 -4.015625 C 2.53125 -4.234375 2.679688 -4.4375 2.796875 -4.625 C 2.921875 -4.820312 3.007812 -5.0625 3.0625 -5.34375 C 3.125 -5.632812 3.160156 -6 3.171875 -6.4375 C 3.191406 -6.875 3.203125 -7.4375 3.203125 -8.125 L 3.203125 -17.84375 L 0.1875 -17.84375 L 0.1875 -21 L 3.203125 -21 L 3.203125 -25.703125 L 6.734375 -29.046875 L 8.859375 -29.046875 L 8.859375 -21 L 12.46875 -21 L 12.46875 -17.84375 L 8.859375 -17.84375 L 8.859375 -5.921875 L 10.890625 -4.0625 L 12.46875 -5.640625 L 13.015625 -5.15625 Z M 7.359375 0.765625 "/></g></g></g><g fill="#00ffff" fill-opacity="1"><g transform="translate(120.436132, 198.510883)"><g/></g></g><g fill="#00ffff" fill-opacity="1"><g transform="translate(136.563778, 198.510883)"><g><path d="M 17.484375 0.671875 L 13.328125 -2.484375 L 13.328125 -5.515625 C 12.898438 -5.117188 12.535156 -4.785156 12.234375 -4.515625 C 11.941406 -4.242188 11.671875 -3.992188 11.421875 -3.765625 C 11.179688 -3.546875 10.957031 -3.328125 10.75 -3.109375 C 10.539062 -2.898438 10.332031 -2.691406 10.125 -2.484375 C 9.601562 -1.941406 9.160156 -1.46875 8.796875 -1.0625 C 8.441406 -0.65625 7.960938 -0.078125 7.359375 0.671875 C 6.460938 -0.410156 5.613281 -1.257812 4.8125 -1.875 C 4.007812 -2.488281 3.367188 -2.796875 2.890625 -2.796875 C 2.648438 -2.796875 2.257812 -2.585938 1.71875 -2.171875 C 1.5625 -2.078125 1.363281 -1.925781 1.125 -1.71875 L 0.71875 -2.21875 L 1.125 -2.53125 L 2.03125 -3.25 C 2.539062 -3.675781 2.910156 -4.117188 3.140625 -4.578125 C 3.367188 -5.046875 3.484375 -5.660156 3.484375 -6.421875 L 3.484375 -15.578125 L 1.578125 -16.9375 L 0.265625 -15.578125 L -0.1875 -16.03125 L 4.921875 -21.328125 L 9.125 -18.515625 L 9.125 -5.515625 L 10.890625 -4.0625 L 13.328125 -6.421875 L 13.328125 -15.171875 L 10.890625 -16.9375 L 14.6875 -21.328125 C 15.851562 -20.179688 16.769531 -19.363281 17.4375 -18.875 C 18.101562 -18.394531 18.628906 -18.15625 19.015625 -18.15625 C 19.492188 -18.15625 20.15625 -18.578125 21 -19.421875 L 21.453125 -18.796875 C 20.578125 -18.191406 19.941406 -17.554688 19.546875 -16.890625 C 19.160156 -16.234375 18.96875 -15.421875 18.96875 -14.453125 L 18.96875 -5.515625 L 20.953125 -4.0625 L 22.21875 -5.421875 L 22.671875 -4.96875 Z M 17.484375 0.671875 "/></g></g></g><g fill="#00ffff" fill-opacity="1"><g transform="translate(165.069059, 198.510883)"><g><path d="M 17.125 0.8125 L 13.140625 -2.4375 L 13.140625 -15.765625 L 11.65625 -17.078125 L 9.125 -15 L 9.125 -6.140625 C 9.125 -5.535156 9.164062 -5.097656 9.25 -4.828125 C 9.34375 -4.554688 9.539062 -4.300781 9.84375 -4.0625 C 10.082031 -3.914062 10.316406 -3.796875 10.546875 -3.703125 C 10.773438 -3.609375 11.144531 -3.488281 11.65625 -3.34375 C 10.78125 -3.039062 10.113281 -2.785156 9.65625 -2.578125 C 9.207031 -2.367188 8.773438 -2.097656 8.359375 -1.765625 C 7.898438 -1.398438 7.53125 -1.015625 7.25 -0.609375 C 6.96875 -0.203125 6.613281 0.421875 6.1875 1.265625 C 5.820312 0.546875 5.484375 -0.0507812 5.171875 -0.53125 C 4.859375 -1.019531 4.503906 -1.429688 4.109375 -1.765625 C 3.710938 -2.097656 3.25 -2.382812 2.71875 -2.625 C 2.195312 -2.863281 1.578125 -3.101562 0.859375 -3.34375 C 1.003906 -3.375 1.125 -3.40625 1.21875 -3.4375 C 1.3125 -3.46875 1.390625 -3.484375 1.453125 -3.484375 C 1.597656 -3.535156 1.726562 -3.578125 1.84375 -3.609375 C 1.96875 -3.640625 2.078125 -3.671875 2.171875 -3.703125 C 2.472656 -3.796875 2.726562 -3.945312 2.9375 -4.15625 C 3.300781 -4.457031 3.484375 -5.117188 3.484375 -6.140625 L 3.484375 -16.265625 L 1.625 -17.703125 L 0.140625 -16.265625 L -0.265625 -16.796875 L 5.015625 -22.09375 C 5.429688 -21.664062 5.789062 -21.316406 6.09375 -21.046875 C 6.394531 -20.773438 6.6875 -20.523438 6.96875 -20.296875 C 7.257812 -20.078125 7.570312 -19.859375 7.90625 -19.640625 C 8.238281 -19.429688 8.644531 -19.175781 9.125 -18.875 L 9.125 -15.765625 L 9.9375 -16.390625 C 10.71875 -16.992188 11.429688 -17.582031 12.078125 -18.15625 C 12.734375 -18.726562 13.375 -19.316406 14 -19.921875 C 14.425781 -20.316406 14.726562 -20.609375 14.90625 -20.796875 C 15.082031 -20.992188 15.335938 -21.289062 15.671875 -21.6875 C 16.210938 -20.84375 16.648438 -20.203125 16.984375 -19.765625 C 17.316406 -19.328125 17.664062 -18.925781 18.03125 -18.5625 C 18.269531 -18.320312 18.515625 -18.125 18.765625 -17.96875 C 19.023438 -17.820312 19.226562 -17.75 19.375 -17.75 C 19.707031 -17.75 20.234375 -18.113281 20.953125 -18.84375 L 21.40625 -18.25 C 20.445312 -17.5 19.765625 -16.8125 19.359375 -16.1875 C 18.953125 -15.570312 18.75 -14.890625 18.75 -14.140625 L 18.75 -5.5625 L 20.515625 -3.890625 L 21.734375 -5.0625 L 22.21875 -4.609375 Z M 17.125 0.8125 "/></g></g></g><g fill="#00ffff" fill-opacity="1"><g transform="translate(193.348473, 198.510883)"><g><path d="M 19.515625 -18.25 C 19.003906 -17.800781 18.648438 -17.46875 18.453125 -17.25 C 18.253906 -17.039062 18.113281 -16.816406 18.03125 -16.578125 C 17.96875 -16.398438 17.90625 -16.007812 17.84375 -15.40625 C 17.78125 -14.800781 17.75 -14.210938 17.75 -13.640625 L 17.75 -3.296875 C 17.414062 -3.328125 17.164062 -3.34375 17 -3.34375 C 16.84375 -3.34375 16.671875 -3.34375 16.484375 -3.34375 C 15.191406 -3.34375 13.867188 -3.085938 12.515625 -2.578125 C 12.117188 -2.421875 11.75 -2.253906 11.40625 -2.078125 C 11.0625 -1.898438 10.722656 -1.691406 10.390625 -1.453125 C 10.023438 -1.171875 9.691406 -0.863281 9.390625 -0.53125 C 9.085938 -0.207031 8.726562 0.253906 8.3125 0.859375 L 7.59375 0.1875 C 7.164062 -0.207031 6.804688 -0.539062 6.515625 -0.8125 C 6.234375 -1.082031 5.972656 -1.328125 5.734375 -1.546875 C 5.492188 -1.773438 5.242188 -2.003906 4.984375 -2.234375 C 4.734375 -2.460938 4.425781 -2.710938 4.0625 -2.984375 C 3.070312 -3.796875 2.320312 -4.203125 1.8125 -4.203125 C 1.507812 -4.203125 1.054688 -3.988281 0.453125 -3.5625 L 0.1875 -4.015625 C 0.300781 -4.109375 0.394531 -4.1875 0.46875 -4.25 C 0.550781 -4.3125 0.617188 -4.367188 0.671875 -4.421875 C 1.128906 -4.753906 1.460938 -5.054688 1.671875 -5.328125 C 1.941406 -5.597656 2.164062 -5.929688 2.34375 -6.328125 C 2.5625 -6.898438 2.671875 -7.441406 2.671875 -7.953125 L 2.671875 -16.984375 C 3.085938 -16.921875 3.414062 -16.890625 3.65625 -16.890625 C 3.894531 -16.890625 4.132812 -16.890625 4.375 -16.890625 C 5.007812 -16.890625 5.566406 -16.921875 6.046875 -16.984375 C 6.535156 -17.046875 7.125 -17.179688 7.8125 -17.390625 L 2.34375 -21.5 L 2.34375 -28.328125 L 16.171875 -18.15625 C 16.710938 -17.769531 17.148438 -17.578125 17.484375 -17.578125 C 17.816406 -17.578125 18.539062 -18.070312 19.65625 -19.0625 L 19.96875 -18.65625 Z M 12.109375 -14.28125 L 8.53125 -16.84375 L 8.3125 -16.71875 L 8.3125 -6.59375 L 11.875 -3.203125 L 12.109375 -3.296875 Z M 12.109375 -14.28125 "/></g></g></g><g fill="#00ffff" fill-opacity="1"><g transform="translate(219.820941, 198.510883)"><g/></g></g><g fill="#00ffff" fill-opacity="1"><g transform="translate(235.948578, 198.510883)"><g><path d="M 36.8125 0.59375 C 36.363281 0.320312 35.972656 0.0820312 35.640625 -0.125 C 35.304688 -0.34375 35.007812 -0.5625 34.75 -0.78125 C 34.5 -1.007812 34.257812 -1.242188 34.03125 -1.484375 C 33.8125 -1.734375 33.582031 -2.019531 33.34375 -2.34375 C 33.09375 -2.644531 32.898438 -2.910156 32.765625 -3.140625 C 32.628906 -3.367188 32.523438 -3.601562 32.453125 -3.84375 C 32.378906 -4.082031 32.332031 -4.359375 32.3125 -4.671875 C 32.300781 -4.992188 32.296875 -5.394531 32.296875 -5.875 L 32.296875 -24.125 L 31.078125 -25.4375 L 29.90625 -24.125 L 29.90625 -5.6875 L 31.078125 -7 L 31.53125 -6.59375 L 25.078125 0.59375 C 24.679688 0.132812 24.351562 -0.242188 24.09375 -0.546875 C 23.84375 -0.847656 23.617188 -1.101562 23.421875 -1.3125 C 23.222656 -1.519531 23.039062 -1.707031 22.875 -1.875 C 22.707031 -2.039062 22.519531 -2.226562 22.3125 -2.4375 C 21.832031 -2.882812 21.347656 -3.242188 20.859375 -3.515625 C 20.378906 -3.796875 19.707031 -4.128906 18.84375 -4.515625 L 18.84375 -5.015625 C 19.625 -5.046875 20.117188 -5.316406 20.328125 -5.828125 C 20.421875 -6.035156 20.492188 -6.347656 20.546875 -6.765625 C 20.609375 -7.191406 20.640625 -7.585938 20.640625 -7.953125 L 20.640625 -13.421875 L 18.4375 -13.421875 L 18.4375 -5.46875 C 18.4375 -4.59375 18.394531 -3.890625 18.3125 -3.359375 C 18.238281 -2.835938 18.097656 -2.273438 17.890625 -1.671875 C 17.554688 -0.796875 17.140625 -0.1875 16.640625 0.15625 C 16.148438 0.5 15.453125 0.671875 14.546875 0.671875 C 14.210938 0.671875 13.910156 0.648438 13.640625 0.609375 C 13.367188 0.566406 13.066406 0.488281 12.734375 0.375 C 12.398438 0.269531 12.023438 0.125 11.609375 -0.0625 C 11.191406 -0.257812 10.664062 -0.523438 10.03125 -0.859375 C 8.851562 -1.460938 7.914062 -1.890625 7.21875 -2.140625 C 6.53125 -2.398438 5.929688 -2.53125 5.421875 -2.53125 C 4.703125 -2.53125 4.109375 -2.285156 3.640625 -1.796875 C 3.171875 -1.316406 2.9375 -0.703125 2.9375 0.046875 C 2.9375 1.816406 3.929688 3.082031 5.921875 3.84375 C 6.878906 4.195312 7.960938 4.476562 9.171875 4.6875 C 10.378906 4.90625 11.507812 5.015625 12.5625 5.015625 C 13.976562 5.015625 15.28125 4.8125 16.46875 4.40625 C 17.65625 4 18.503906 3.460938 19.015625 2.796875 C 19.378906 2.347656 19.617188 1.84375 19.734375 1.28125 C 19.859375 0.726562 19.921875 -0.117188 19.921875 -1.265625 L 20.640625 -1.265625 L 20.640625 -1 C 20.640625 1.863281 19.847656 4.113281 18.265625 5.75 C 16.691406 7.394531 14.519531 8.21875 11.75 8.21875 C 10.363281 8.21875 9.097656 8 7.953125 7.5625 C 6.804688 7.125 5.816406 6.515625 4.984375 5.734375 C 4.160156 4.953125 3.515625 4.019531 3.046875 2.9375 C 2.578125 1.851562 2.34375 0.648438 2.34375 -0.671875 C 2.34375 -1.785156 2.515625 -2.863281 2.859375 -3.90625 C 3.210938 -4.945312 3.691406 -5.8125 4.296875 -6.5 C 4.617188 -6.894531 5 -7.21875 5.4375 -7.46875 C 5.875 -7.726562 6.441406 -7.976562 7.140625 -8.21875 C 7.984375 -8.488281 8.539062 -8.757812 8.8125 -9.03125 C 9.082031 -9.300781 9.21875 -9.722656 9.21875 -10.296875 L 9.21875 -14.40625 L 6.546875 -14.40625 C 6.128906 -14.40625 5.722656 -14.335938 5.328125 -14.203125 C 4.941406 -14.066406 4.640625 -13.878906 4.421875 -13.640625 C 4.273438 -13.492188 4.171875 -13.273438 4.109375 -12.984375 C 4.046875 -12.703125 4.015625 -12.289062 4.015625 -11.75 L 3.4375 -11.75 C 3.4375 -12.4375 3.445312 -13.019531 3.46875 -13.5 C 3.5 -13.988281 3.53125 -14.410156 3.5625 -14.765625 C 3.59375 -15.128906 3.628906 -15.453125 3.671875 -15.734375 C 3.722656 -16.023438 3.78125 -16.335938 3.84375 -16.671875 C 4.257812 -18.535156 5.359375 -19.46875 7.140625 -19.46875 L 9.21875 -19.46875 L 9.21875 -24.125 L 7 -24.125 C 6.28125 -24.125 5.8125 -24.144531 5.59375 -24.1875 C 5.382812 -24.226562 5.175781 -24.359375 4.96875 -24.578125 C 4.632812 -24.910156 4.367188 -25.488281 4.171875 -26.3125 C 3.984375 -27.144531 3.890625 -28.144531 3.890625 -29.3125 C 3.890625 -29.613281 3.894531 -29.890625 3.90625 -30.140625 C 3.925781 -30.398438 3.960938 -30.785156 4.015625 -31.296875 L 4.609375 -31.296875 C 4.609375 -30.878906 4.664062 -30.585938 4.78125 -30.421875 C 4.90625 -30.253906 5.117188 -30.171875 5.421875 -30.171875 C 5.515625 -30.171875 5.71875 -30.175781 6.03125 -30.1875 C 6.34375 -30.207031 6.785156 -30.25 7.359375 -30.3125 L 9.890625 -30.578125 L 12.375 -30.8125 C 12.5 -30.84375 12.664062 -30.859375 12.875 -30.859375 C 13.382812 -30.859375 13.859375 -30.78125 14.296875 -30.625 C 14.734375 -30.476562 15.070312 -30.269531 15.3125 -30 C 15.550781 -29.664062 15.726562 -29.21875 15.84375 -28.65625 C 15.96875 -28.101562 16.03125 -27.316406 16.03125 -26.296875 L 16.03125 -23.765625 L 23.625 -30.765625 C 24.164062 -30.460938 24.609375 -30.195312 24.953125 -29.96875 C 25.304688 -29.75 25.617188 -29.53125 25.890625 -29.3125 C 26.160156 -29.101562 26.40625 -28.867188 26.625 -28.609375 C 26.851562 -28.359375 27.132812 -28.050781 27.46875 -27.6875 L 27.46875 -22.859375 L 35.453125 -30.765625 C 35.722656 -30.285156 35.960938 -29.882812 36.171875 -29.5625 C 36.390625 -29.25 36.601562 -28.957031 36.8125 -28.6875 C 37.019531 -28.414062 37.253906 -28.148438 37.515625 -27.890625 C 37.773438 -27.640625 38.082031 -27.347656 38.4375 -27.015625 C 38.738281 -26.742188 39.003906 -26.515625 39.234375 -26.328125 C 39.460938 -26.148438 39.679688 -25.984375 39.890625 -25.828125 C 40.097656 -25.679688 40.3125 -25.539062 40.53125 -25.40625 C 40.757812 -25.269531 41.039062 -25.113281 41.375 -24.9375 C 40.863281 -24.78125 40.457031 -24.625 40.15625 -24.46875 C 39.851562 -24.320312 39.625 -24.128906 39.46875 -23.890625 C 39.320312 -23.648438 39.226562 -23.34375 39.1875 -22.96875 C 39.144531 -22.59375 39.125 -22.085938 39.125 -21.453125 L 39.125 -7.953125 C 39.125 -6.441406 39.546875 -5.6875 40.390625 -5.6875 C 40.710938 -5.6875 41.175781 -6.003906 41.78125 -6.640625 L 42.1875 -6.28125 Z M 29.265625 -23.765625 L 27.46875 -21.8125 L 27.46875 -18.25 L 29.265625 -18.25 Z M 20.640625 -22.21875 C 20.640625 -23.09375 20.503906 -23.804688 20.234375 -24.359375 C 19.960938 -24.921875 19.617188 -25.203125 19.203125 -25.203125 C 19.046875 -25.203125 18.789062 -25.113281 18.4375 -24.9375 L 18.4375 -18.25 L 20.640625 -18.25 Z M 29.265625 -13.421875 L 27.46875 -13.421875 L 27.46875 -6.640625 L 29.265625 -5.015625 Z M 17.84375 -24.390625 L 16.03125 -22.5 L 16.03125 -9.265625 C 15.101562 -9.265625 14.320312 -9.25 13.6875 -9.21875 C 13.050781 -9.1875 12.460938 -9.128906 11.921875 -9.046875 C 11.378906 -8.972656 10.84375 -8.863281 10.3125 -8.71875 C 9.789062 -8.570312 9.171875 -8.390625 8.453125 -8.171875 C 9.410156 -7.992188 10.160156 -7.835938 10.703125 -7.703125 C 11.242188 -7.566406 11.863281 -7.332031 12.5625 -7 C 13.757812 -6.457031 14.492188 -6.140625 14.765625 -6.046875 C 15.097656 -5.929688 15.492188 -5.875 15.953125 -5.875 C 17.210938 -5.875 17.84375 -6.835938 17.84375 -8.765625 Z M 17.84375 -24.390625 "/></g></g></g><g fill="#00ffff" fill-opacity="1"><g transform="translate(283.833455, 198.510883)"><g><path d="M 21.59375 -4.296875 C 21.320312 -4.078125 21.078125 -3.882812 20.859375 -3.71875 C 20.648438 -3.5625 20.457031 -3.40625 20.28125 -3.25 C 20.101562 -3.101562 19.914062 -2.9375 19.71875 -2.75 C 19.519531 -2.570312 19.285156 -2.363281 19.015625 -2.125 C 18.679688 -1.820312 18.398438 -1.5625 18.171875 -1.34375 C 17.953125 -1.132812 17.75 -0.929688 17.5625 -0.734375 C 17.382812 -0.546875 17.195312 -0.335938 17 -0.109375 C 16.8125 0.109375 16.582031 0.367188 16.3125 0.671875 L 12.328125 -2.03125 L 12.328125 -5.59375 L 6.453125 0.671875 L 2.671875 -2.265625 L 2.671875 -17.890625 C 2.992188 -17.859375 3.238281 -17.84375 3.40625 -17.84375 C 3.570312 -17.84375 3.75 -17.84375 3.9375 -17.84375 C 4.53125 -17.84375 5.160156 -17.894531 5.828125 -18 C 6.492188 -18.101562 7.082031 -18.25 7.59375 -18.4375 C 8.25 -18.675781 8.96875 -19.066406 9.75 -19.609375 C 10.175781 -19.910156 10.5625 -20.207031 10.90625 -20.5 C 11.25 -20.800781 11.722656 -21.285156 12.328125 -21.953125 L 16.484375 -18.5625 C 16.785156 -18.320312 17.101562 -18.125 17.4375 -17.96875 C 17.769531 -17.820312 18.054688 -17.75 18.296875 -17.75 C 18.535156 -17.75 18.765625 -17.816406 18.984375 -17.953125 C 19.210938 -18.085938 19.597656 -18.367188 20.140625 -18.796875 L 20.515625 -18.34375 C 19.941406 -17.914062 19.488281 -17.535156 19.15625 -17.203125 C 18.820312 -16.878906 18.5625 -16.535156 18.375 -16.171875 C 18.195312 -15.804688 18.085938 -15.390625 18.046875 -14.921875 C 18.003906 -14.460938 17.984375 -13.882812 17.984375 -13.1875 L 17.984375 -5.328125 L 20.140625 -3.96875 L 21.234375 -4.78125 Z M 12.328125 -15.21875 L 8.578125 -18.03125 L 8.3125 -17.890625 L 8.3125 -5.78125 L 10.4375 -4.46875 L 12.328125 -6.421875 Z M 12.328125 -15.21875 "/></g></g></g><g fill="#00ffff" fill-opacity="1"><g transform="translate(311.344903, 198.510883)"><g><path d="M 15.171875 -20.953125 C 14.960938 -19.179688 14.5625 -17.894531 13.96875 -17.09375 C 13.382812 -16.300781 12.523438 -15.90625 11.390625 -15.90625 C 9.878906 -15.90625 8.941406 -16.757812 8.578125 -18.46875 L 8.3125 -18.390625 L 8.3125 -6.015625 L 12.515625 -3.609375 L 14.640625 -6.421875 L 15.125 -6.015625 L 9.625 1.3125 C 9.113281 0.882812 8.695312 0.566406 8.375 0.359375 C 8.0625 0.148438 7.617188 -0.117188 7.046875 -0.453125 C 6.804688 -0.597656 6.519531 -0.769531 6.1875 -0.96875 C 5.851562 -1.164062 5.476562 -1.382812 5.0625 -1.625 C 4.457031 -1.957031 3.992188 -2.191406 3.671875 -2.328125 C 3.359375 -2.460938 3.082031 -2.53125 2.84375 -2.53125 C 2.570312 -2.53125 2.300781 -2.421875 2.03125 -2.203125 C 1.757812 -1.992188 1.351562 -1.59375 0.8125 -1 L 0.359375 -1.40625 C 0.722656 -1.757812 0.945312 -2 1.03125 -2.125 C 1.457031 -2.539062 1.769531 -2.898438 1.96875 -3.203125 C 2.164062 -3.503906 2.304688 -3.820312 2.390625 -4.15625 C 2.453125 -4.457031 2.515625 -5.019531 2.578125 -5.84375 C 2.640625 -6.675781 2.671875 -7.46875 2.671875 -8.21875 L 2.671875 -18.390625 C 3.085938 -18.328125 3.40625 -18.28125 3.625 -18.25 C 3.851562 -18.21875 4.09375 -18.203125 4.34375 -18.203125 C 5.425781 -18.203125 6.550781 -18.414062 7.71875 -18.84375 C 8.414062 -19.113281 9.066406 -19.441406 9.671875 -19.828125 C 10.179688 -20.160156 10.578125 -20.476562 10.859375 -20.78125 C 11.148438 -21.082031 11.503906 -21.546875 11.921875 -22.171875 C 12.078125 -21.335938 12.3125 -20.671875 12.625 -20.171875 C 12.9375 -19.671875 13.273438 -19.421875 13.640625 -19.421875 C 14.117188 -19.421875 14.453125 -19.929688 14.640625 -20.953125 Z M 15.171875 -20.953125 "/></g></g></g><g fill="#00ffff" fill-opacity="1"><g transform="translate(332.75788, 198.510883)"><g><path d="M 20.015625 -19.375 C 19.554688 -18.957031 19.195312 -18.628906 18.9375 -18.390625 C 18.6875 -18.148438 18.488281 -17.921875 18.34375 -17.703125 C 18.1875 -17.523438 18.054688 -17.304688 17.953125 -17.046875 C 17.847656 -16.796875 17.765625 -16.472656 17.703125 -16.078125 C 17.640625 -15.691406 17.601562 -15.210938 17.59375 -14.640625 C 17.582031 -14.066406 17.578125 -13.359375 17.578125 -12.515625 L 17.578125 -8.046875 C 17.578125 -6.835938 17.550781 -5.773438 17.5 -4.859375 C 17.457031 -3.941406 17.390625 -3.101562 17.296875 -2.34375 C 17.210938 -1.59375 17.085938 -0.914062 16.921875 -0.3125 C 16.753906 0.289062 16.550781 0.863281 16.3125 1.40625 C 15.800781 2.601562 15.109375 3.671875 14.234375 4.609375 C 13.359375 5.546875 12.273438 6.359375 10.984375 7.046875 C 10.617188 7.253906 10.285156 7.425781 9.984375 7.5625 C 9.679688 7.695312 9.378906 7.816406 9.078125 7.921875 C 8.773438 8.023438 8.441406 8.113281 8.078125 8.1875 C 7.722656 8.269531 7.304688 8.359375 6.828125 8.453125 L 6.828125 7.671875 C 7.117188 7.585938 7.382812 7.503906 7.625 7.421875 C 7.875 7.347656 8.101562 7.285156 8.3125 7.234375 C 8.757812 7.078125 9.203125 6.847656 9.640625 6.546875 C 10.078125 6.242188 10.414062 5.941406 10.65625 5.640625 C 11.5 4.503906 11.921875 1.492188 11.921875 -3.390625 L 11.921875 -16.03125 L 10.390625 -17.578125 L 8.3125 -15.3125 L 8.3125 -7.90625 C 8.3125 -7.125 8.34375 -6.554688 8.40625 -6.203125 C 8.46875 -5.859375 8.570312 -5.519531 8.71875 -5.1875 C 8.863281 -4.914062 9.023438 -4.71875 9.203125 -4.59375 C 9.390625 -4.476562 9.738281 -4.347656 10.25 -4.203125 C 10.3125 -4.203125 10.429688 -4.171875 10.609375 -4.109375 C 10.035156 -3.992188 9.546875 -3.820312 9.140625 -3.59375 C 8.734375 -3.363281 8.257812 -3.007812 7.71875 -2.53125 C 7.394531 -2.257812 7.125 -1.992188 6.90625 -1.734375 C 6.695312 -1.484375 6.5 -1.210938 6.3125 -0.921875 C 6.132812 -0.640625 5.96875 -0.316406 5.8125 0.046875 C 5.664062 0.410156 5.503906 0.863281 5.328125 1.40625 C 5.085938 0.707031 4.882812 0.195312 4.71875 -0.125 C 4.550781 -0.457031 4.378906 -0.773438 4.203125 -1.078125 C 3.960938 -1.378906 3.644531 -1.742188 3.25 -2.171875 C 2.800781 -2.585938 2.390625 -2.921875 2.015625 -3.171875 C 1.640625 -3.429688 1.070312 -3.742188 0.3125 -4.109375 C 0.769531 -4.234375 1.109375 -4.363281 1.328125 -4.5 C 1.554688 -4.632812 1.773438 -4.851562 1.984375 -5.15625 C 2.253906 -5.476562 2.4375 -5.878906 2.53125 -6.359375 C 2.625 -6.847656 2.671875 -7.601562 2.671875 -8.625 L 2.671875 -28.375 L 8.3125 -30.125 L 8.3125 -16.03125 L 14.3125 -22.265625 C 14.582031 -21.785156 14.875 -21.328125 15.1875 -20.890625 C 15.507812 -20.453125 15.835938 -20.070312 16.171875 -19.75 C 16.503906 -19.4375 16.820312 -19.191406 17.125 -19.015625 C 17.425781 -18.835938 17.695312 -18.75 17.9375 -18.75 C 18.207031 -18.75 18.628906 -18.988281 19.203125 -19.46875 C 19.253906 -19.53125 19.3125 -19.582031 19.375 -19.625 C 19.4375 -19.664062 19.53125 -19.734375 19.65625 -19.828125 Z M 20.015625 -19.375 "/></g></g></g><g fill="#00ffff" fill-opacity="1"><g transform="translate(359.094832, 198.510883)"><g><path d="M 7.359375 0.765625 C 7.148438 0.523438 6.96875 0.3125 6.8125 0.125 C 6.664062 -0.0507812 6.515625 -0.21875 6.359375 -0.375 C 6.210938 -0.539062 6.039062 -0.722656 5.84375 -0.921875 C 5.65625 -1.117188 5.410156 -1.367188 5.109375 -1.671875 C 4.503906 -2.273438 4.039062 -2.6875 3.71875 -2.90625 C 3.40625 -3.132812 3.160156 -3.25 2.984375 -3.25 C 2.585938 -3.25 1.9375 -2.796875 1.03125 -1.890625 L 0.625 -2.390625 C 1.082031 -2.785156 1.421875 -3.078125 1.640625 -3.265625 C 1.867188 -3.460938 2.101562 -3.710938 2.34375 -4.015625 C 2.53125 -4.234375 2.679688 -4.4375 2.796875 -4.625 C 2.921875 -4.820312 3.007812 -5.0625 3.0625 -5.34375 C 3.125 -5.632812 3.160156 -6 3.171875 -6.4375 C 3.191406 -6.875 3.203125 -7.4375 3.203125 -8.125 L 3.203125 -17.84375 L 0.1875 -17.84375 L 0.1875 -21 L 3.203125 -21 L 3.203125 -25.703125 L 6.734375 -29.046875 L 8.859375 -29.046875 L 8.859375 -21 L 12.46875 -21 L 12.46875 -17.84375 L 8.859375 -17.84375 L 8.859375 -5.921875 L 10.890625 -4.0625 L 12.46875 -5.640625 L 13.015625 -5.15625 Z M 7.359375 0.765625 "/></g></g></g><g fill="#ffffff" fill-opacity="1"><g transform="translate(3.026941, 201.334517)"><g><path d="M 41.875 -25.921875 C 41.539062 -25.835938 41.28125 -25.753906 41.09375 -25.671875 C 40.914062 -25.597656 40.753906 -25.488281 40.609375 -25.34375 C 40.066406 -24.832031 39.796875 -23.835938 39.796875 -22.359375 L 39.796875 -4.609375 C 38.535156 -4.578125 37.316406 -4.429688 36.140625 -4.171875 C 34.960938 -3.921875 33.894531 -3.566406 32.9375 -3.109375 C 32.113281 -2.722656 31.296875 -2.195312 30.484375 -1.53125 C 29.890625 -1.019531 29.441406 -0.5625 29.140625 -0.15625 C 28.835938 0.25 28.519531 0.859375 28.1875 1.671875 C 27.582031 0.890625 27.09375 0.296875 26.71875 -0.109375 C 26.34375 -0.515625 25.867188 -0.929688 25.296875 -1.359375 C 24.515625 -1.960938 23.738281 -2.410156 22.96875 -2.703125 C 22.195312 -3.003906 21.46875 -3.15625 20.78125 -3.15625 C 19.78125 -3.15625 18.726562 -2.710938 17.625 -1.828125 C 16.53125 -0.941406 15.59375 0.222656 14.8125 1.671875 L 14.3125 0.859375 C 14.039062 0.410156 13.65625 -0.0195312 13.15625 -0.4375 C 12.664062 -0.863281 12.109375 -1.242188 11.484375 -1.578125 C 10.867188 -1.910156 10.226562 -2.175781 9.5625 -2.375 C 8.90625 -2.570312 8.289062 -2.671875 7.71875 -2.671875 C 6.664062 -2.671875 5.804688 -2.375 5.140625 -1.78125 C 4.484375 -1.195312 4.15625 -0.453125 4.15625 0.453125 C 4.15625 1.140625 4.394531 1.769531 4.875 2.34375 C 5.332031 2.882812 5.859375 3.273438 6.453125 3.515625 C 7.328125 3.847656 8.40625 4.113281 9.6875 4.3125 C 10.96875 4.507812 12.285156 4.609375 13.640625 4.609375 C 15.535156 4.609375 17.125 4.429688 18.40625 4.078125 C 19.6875 3.734375 20.582031 3.21875 21.09375 2.53125 C 21.425781 2.101562 21.644531 1.632812 21.75 1.125 C 21.851562 0.613281 21.921875 -0.148438 21.953125 -1.171875 L 22.546875 -1.171875 L 22.546875 -0.8125 C 22.546875 0.539062 22.328125 1.757812 21.890625 2.84375 C 21.453125 3.925781 20.828125 4.859375 20.015625 5.640625 C 19.203125 6.429688 18.222656 7.035156 17.078125 7.453125 C 15.929688 7.867188 14.664062 8.078125 13.28125 8.078125 C 11.894531 8.078125 10.597656 7.851562 9.390625 7.40625 C 8.191406 6.957031 7.140625 6.332031 6.234375 5.53125 C 5.328125 4.738281 4.617188 3.8125 4.109375 2.75 C 3.597656 1.695312 3.34375 0.554688 3.34375 -0.671875 C 3.34375 -3.023438 4.203125 -5.015625 5.921875 -6.640625 C 6.335938 -7.035156 6.617188 -7.320312 6.765625 -7.5 C 6.921875 -7.675781 7.046875 -7.867188 7.140625 -8.078125 C 7.285156 -8.328125 7.40625 -8.707031 7.5 -9.21875 C 7.59375 -9.726562 7.640625 -10.191406 7.640625 -10.609375 L 7.640625 -14.28125 L 5.734375 -14.28125 C 4.890625 -14.28125 4.226562 -14.066406 3.75 -13.640625 C 3.539062 -13.429688 3.40625 -13.195312 3.34375 -12.9375 C 3.28125 -12.6875 3.234375 -12.210938 3.203125 -11.515625 L 2.578125 -11.515625 L 2.578125 -12.734375 C 2.578125 -14.003906 2.628906 -15.0625 2.734375 -15.90625 C 2.835938 -16.75 3.015625 -17.414062 3.265625 -17.90625 C 3.523438 -18.40625 3.859375 -18.757812 4.265625 -18.96875 C 4.671875 -19.175781 5.191406 -19.28125 5.828125 -19.28125 L 7.640625 -19.28125 L 7.640625 -22.59375 C 7.640625 -23.21875 7.539062 -23.628906 7.34375 -23.828125 C 7.144531 -24.023438 6.742188 -24.125 6.140625 -24.125 L 5.15625 -24.125 C 4.632812 -24.125 4.207031 -24.210938 3.875 -24.390625 C 3.550781 -24.566406 3.289062 -24.890625 3.09375 -25.359375 C 2.894531 -25.828125 2.757812 -26.46875 2.6875 -27.28125 C 2.613281 -28.09375 2.578125 -29.117188 2.578125 -30.359375 L 2.578125 -31.75 L 3.203125 -31.75 C 3.203125 -31.0625 3.320312 -30.585938 3.5625 -30.328125 C 3.8125 -30.078125 4.25 -29.953125 4.875 -29.953125 C 5.0625 -29.953125 5.25 -29.957031 5.4375 -29.96875 C 5.632812 -29.988281 5.851562 -30 6.09375 -30 L 8 -30.171875 L 10.078125 -30.40625 C 10.222656 -30.4375 10.363281 -30.453125 10.5 -30.453125 C 10.632812 -30.453125 10.796875 -30.453125 10.984375 -30.453125 C 12.242188 -30.453125 13.128906 -30.222656 13.640625 -29.765625 C 14.148438 -29.316406 14.40625 -28.566406 14.40625 -27.515625 L 14.40625 -23.078125 L 23.484375 -31.75 L 27.109375 -28.375 L 27.109375 -23.3125 L 35.828125 -31.703125 C 36.242188 -31.015625 36.59375 -30.484375 36.875 -30.109375 C 37.164062 -29.734375 37.566406 -29.289062 38.078125 -28.78125 C 38.378906 -28.445312 38.65625 -28.164062 38.90625 -27.9375 C 39.164062 -27.707031 39.4375 -27.488281 39.71875 -27.28125 C 40.007812 -27.070312 40.320312 -26.859375 40.65625 -26.640625 C 40.988281 -26.429688 41.394531 -26.191406 41.875 -25.921875 Z M 32.96875 -24.171875 L 31.078125 -26.375 L 29.71875 -24.984375 L 29.71875 -6.453125 L 30.71875 -5.828125 C 30.863281 -5.703125 31.019531 -5.570312 31.1875 -5.4375 C 31.351562 -5.300781 31.554688 -5.144531 31.796875 -4.96875 C 32.398438 -4.394531 32.78125 -4.0625 32.9375 -3.96875 L 32.96875 -3.9375 Z M 29.1875 -24.53125 L 27.109375 -22.625 L 27.109375 -7.5 C 27.648438 -7.34375 28.023438 -7.226562 28.234375 -7.15625 C 28.441406 -7.082031 28.742188 -6.925781 29.140625 -6.6875 L 29.1875 -6.6875 Z M 20.28125 -24.75 L 18.65625 -26.375 L 17.03125 -24.75 L 17.03125 -6.59375 L 18.03125 -5.96875 C 18.269531 -5.8125 18.535156 -5.597656 18.828125 -5.328125 C 19.128906 -5.054688 19.597656 -4.601562 20.234375 -3.96875 L 20.28125 -3.9375 Z M 16.484375 -24.484375 L 14.40625 -22.359375 L 14.40625 -9.71875 L 13.28125 -9.71875 C 12.34375 -9.71875 11.53125 -9.65625 10.84375 -9.53125 C 10.476562 -9.46875 10.164062 -9.390625 9.90625 -9.296875 C 9.65625 -9.210938 9.410156 -9.09375 9.171875 -8.9375 C 8.929688 -8.789062 8.6875 -8.601562 8.4375 -8.375 C 8.195312 -8.15625 7.914062 -7.878906 7.59375 -7.546875 L 7.453125 -7.453125 L 7.59375 -7.5 C 7.945312 -7.644531 8.238281 -7.769531 8.46875 -7.875 C 8.695312 -7.988281 8.882812 -8.054688 9.03125 -8.078125 C 9.570312 -8.234375 10.28125 -8.3125 11.15625 -8.3125 C 12.125 -8.3125 13.023438 -8.195312 13.859375 -7.96875 C 14.703125 -7.75 15.5625 -7.378906 16.4375 -6.859375 L 16.484375 -6.859375 Z M 16.484375 -24.484375 "/></g></g></g><g fill="#ffffff" fill-opacity="1"><g transform="translate(51.544258, 201.334517)"><g><path d="M 19.515625 -18.34375 C 19.003906 -17.914062 18.632812 -17.566406 18.40625 -17.296875 C 18.175781 -17.023438 18.019531 -16.738281 17.9375 -16.4375 C 17.84375 -16.132812 17.75 -15.65625 17.65625 -15 C 17.601562 -14.664062 17.578125 -14.363281 17.578125 -14.09375 C 17.578125 -13.820312 17.578125 -13.550781 17.578125 -13.28125 L 17.578125 -3.25 L 17.125 -3.25 C 15.976562 -3.25 15.082031 -3.1875 14.4375 -3.0625 C 13.789062 -2.945312 13.132812 -2.722656 12.46875 -2.390625 C 11.65625 -1.972656 10.945312 -1.4375 10.34375 -0.78125 C 9.738281 -0.132812 9.269531 0.59375 8.9375 1.40625 C 8.882812 1.25 8.828125 1.125 8.765625 1.03125 C 8.703125 0.945312 8.65625 0.875 8.625 0.8125 C 8.382812 0.476562 8.082031 0.117188 7.71875 -0.265625 C 7.363281 -0.660156 6.851562 -1.128906 6.1875 -1.671875 C 5.226562 -2.484375 4.5 -3.046875 4 -3.359375 C 3.5 -3.679688 3.082031 -3.84375 2.75 -3.84375 C 2.539062 -3.84375 2.304688 -3.75 2.046875 -3.5625 C 1.796875 -3.382812 1.367188 -2.992188 0.765625 -2.390625 L 0.3125 -2.984375 L 0.90625 -3.4375 C 1.351562 -3.769531 1.660156 -4.070312 1.828125 -4.34375 C 1.992188 -4.613281 2.148438 -4.957031 2.296875 -5.375 C 2.453125 -5.800781 2.550781 -6.21875 2.59375 -6.625 C 2.644531 -7.03125 2.671875 -7.625 2.671875 -8.40625 L 2.671875 -17.984375 C 2.816406 -17.953125 2.992188 -17.9375 3.203125 -17.9375 L 4.375 -17.9375 C 5.070312 -17.9375 5.84375 -18.03125 6.6875 -18.21875 C 7.53125 -18.414062 8.269531 -18.664062 8.90625 -18.96875 C 10.132812 -19.570312 11.140625 -20.65625 11.921875 -22.21875 C 12.460938 -21.53125 12.875 -21.035156 13.15625 -20.734375 C 13.445312 -20.429688 13.773438 -20.128906 14.140625 -19.828125 L 15.765625 -18.515625 C 16.128906 -18.210938 16.421875 -18.007812 16.640625 -17.90625 C 16.867188 -17.800781 17.101562 -17.75 17.34375 -17.75 C 17.644531 -17.75 17.9375 -17.835938 18.21875 -18.015625 C 18.507812 -18.203125 18.910156 -18.566406 19.421875 -19.109375 L 19.828125 -18.65625 Z M 11.921875 -14.1875 C 11.503906 -14.425781 11.171875 -14.613281 10.921875 -14.75 C 10.679688 -14.882812 10.441406 -15.070312 10.203125 -15.3125 C 9.878906 -15.644531 9.617188 -15.96875 9.421875 -16.28125 C 9.222656 -16.601562 8.988281 -17.0625 8.71875 -17.65625 L 8.3125 -17.484375 L 8.3125 -7.09375 C 8.457031 -6.96875 8.582031 -6.867188 8.6875 -6.796875 C 8.800781 -6.722656 8.882812 -6.65625 8.9375 -6.59375 C 9.332031 -6.257812 9.65625 -5.988281 9.90625 -5.78125 C 10.164062 -5.570312 10.382812 -5.367188 10.5625 -5.171875 C 10.75 -4.972656 10.914062 -4.753906 11.0625 -4.515625 C 11.21875 -4.273438 11.382812 -3.972656 11.5625 -3.609375 L 11.921875 -3.84375 Z M 11.921875 -14.1875 "/></g></g></g><g fill="#ffffff" fill-opacity="1"><g transform="translate(77.836026, 201.334517)"><g><path d="M 18.25 -19.515625 C 18.25 -18.097656 17.863281 -16.90625 17.09375 -15.9375 C 16.332031 -14.976562 15.378906 -14.5 14.234375 -14.5 C 12.691406 -14.5 11.578125 -15.3125 10.890625 -16.9375 L 9.125 -15.578125 L 9.125 -6.640625 L 12.78125 -4.34375 L 14.859375 -6.640625 L 15.359375 -6.09375 L 9.125 0.671875 C 7.675781 -0.679688 6.476562 -1.679688 5.53125 -2.328125 C 4.582031 -2.972656 3.804688 -3.296875 3.203125 -3.296875 C 2.898438 -3.296875 2.507812 -3.128906 2.03125 -2.796875 L 1.40625 -2.34375 L 1 -2.03125 L 0.59375 -2.578125 C 0.863281 -2.785156 1.078125 -2.957031 1.234375 -3.09375 C 1.398438 -3.226562 1.546875 -3.335938 1.671875 -3.421875 C 1.796875 -3.515625 1.898438 -3.609375 1.984375 -3.703125 C 2.078125 -3.796875 2.179688 -3.898438 2.296875 -4.015625 C 2.722656 -4.441406 3.023438 -4.878906 3.203125 -5.328125 C 3.390625 -5.785156 3.484375 -6.359375 3.484375 -7.046875 L 3.484375 -16.078125 L 1.484375 -17.484375 L 0.046875 -16.078125 L -0.359375 -16.484375 L 4.921875 -21.953125 L 9.125 -19.15625 L 9.125 -16.484375 C 9.488281 -16.722656 9.796875 -16.941406 10.046875 -17.140625 C 10.304688 -17.335938 10.546875 -17.523438 10.765625 -17.703125 C 10.992188 -17.890625 11.222656 -18.078125 11.453125 -18.265625 C 11.679688 -18.460938 11.957031 -18.695312 12.28125 -18.96875 C 12.550781 -19.207031 12.789062 -19.414062 13 -19.59375 C 13.21875 -19.78125 13.414062 -19.960938 13.59375 -20.140625 C 13.78125 -20.328125 13.96875 -20.523438 14.15625 -20.734375 C 14.351562 -20.941406 14.585938 -21.179688 14.859375 -21.453125 C 15.492188 -19.410156 16.171875 -18.390625 16.890625 -18.390625 C 17.128906 -18.390625 17.304688 -18.5 17.421875 -18.71875 C 17.546875 -18.945312 17.609375 -19.226562 17.609375 -19.5625 C 17.609375 -19.707031 17.609375 -19.847656 17.609375 -19.984375 C 17.609375 -20.117188 17.597656 -20.28125 17.578125 -20.46875 L 18.15625 -20.46875 C 18.1875 -20.21875 18.207031 -20.03125 18.21875 -19.90625 C 18.238281 -19.789062 18.25 -19.660156 18.25 -19.515625 Z M 18.25 -19.515625 "/></g></g></g><g fill="#ffffff" fill-opacity="1"><g transform="translate(101.507708, 201.334517)"><g><path d="M 7.359375 0.765625 C 7.148438 0.523438 6.96875 0.3125 6.8125 0.125 C 6.664062 -0.0507812 6.515625 -0.21875 6.359375 -0.375 C 6.210938 -0.539062 6.039062 -0.722656 5.84375 -0.921875 C 5.65625 -1.117188 5.410156 -1.367188 5.109375 -1.671875 C 4.503906 -2.273438 4.039062 -2.6875 3.71875 -2.90625 C 3.40625 -3.132812 3.160156 -3.25 2.984375 -3.25 C 2.585938 -3.25 1.9375 -2.796875 1.03125 -1.890625 L 0.625 -2.390625 C 1.082031 -2.785156 1.421875 -3.078125 1.640625 -3.265625 C 1.867188 -3.460938 2.101562 -3.710938 2.34375 -4.015625 C 2.53125 -4.234375 2.679688 -4.4375 2.796875 -4.625 C 2.921875 -4.820312 3.007812 -5.0625 3.0625 -5.34375 C 3.125 -5.632812 3.160156 -6 3.171875 -6.4375 C 3.191406 -6.875 3.203125 -7.4375 3.203125 -8.125 L 3.203125 -17.84375 L 0.1875 -17.84375 L 0.1875 -21 L 3.203125 -21 L 3.203125 -25.703125 L 6.734375 -29.046875 L 8.859375 -29.046875 L 8.859375 -21 L 12.46875 -21 L 12.46875 -17.84375 L 8.859375 -17.84375 L 8.859375 -5.921875 L 10.890625 -4.0625 L 12.46875 -5.640625 L 13.015625 -5.15625 Z M 7.359375 0.765625 "/></g></g></g><g fill="#ffffff" fill-opacity="1"><g transform="translate(120.436132, 201.334517)"><g/></g></g><g fill="#ffffff" fill-opacity="1"><g transform="translate(136.563778, 201.334517)"><g><path d="M 17.484375 0.671875 L 13.328125 -2.484375 L 13.328125 -5.515625 C 12.898438 -5.117188 12.535156 -4.785156 12.234375 -4.515625 C 11.941406 -4.242188 11.671875 -3.992188 11.421875 -3.765625 C 11.179688 -3.546875 10.957031 -3.328125 10.75 -3.109375 C 10.539062 -2.898438 10.332031 -2.691406 10.125 -2.484375 C 9.601562 -1.941406 9.160156 -1.46875 8.796875 -1.0625 C 8.441406 -0.65625 7.960938 -0.078125 7.359375 0.671875 C 6.460938 -0.410156 5.613281 -1.257812 4.8125 -1.875 C 4.007812 -2.488281 3.367188 -2.796875 2.890625 -2.796875 C 2.648438 -2.796875 2.257812 -2.585938 1.71875 -2.171875 C 1.5625 -2.078125 1.363281 -1.925781 1.125 -1.71875 L 0.71875 -2.21875 L 1.125 -2.53125 L 2.03125 -3.25 C 2.539062 -3.675781 2.910156 -4.117188 3.140625 -4.578125 C 3.367188 -5.046875 3.484375 -5.660156 3.484375 -6.421875 L 3.484375 -15.578125 L 1.578125 -16.9375 L 0.265625 -15.578125 L -0.1875 -16.03125 L 4.921875 -21.328125 L 9.125 -18.515625 L 9.125 -5.515625 L 10.890625 -4.0625 L 13.328125 -6.421875 L 13.328125 -15.171875 L 10.890625 -16.9375 L 14.6875 -21.328125 C 15.851562 -20.179688 16.769531 -19.363281 17.4375 -18.875 C 18.101562 -18.394531 18.628906 -18.15625 19.015625 -18.15625 C 19.492188 -18.15625 20.15625 -18.578125 21 -19.421875 L 21.453125 -18.796875 C 20.578125 -18.191406 19.941406 -17.554688 19.546875 -16.890625 C 19.160156 -16.234375 18.96875 -15.421875 18.96875 -14.453125 L 18.96875 -5.515625 L 20.953125 -4.0625 L 22.21875 -5.421875 L 22.671875 -4.96875 Z M 17.484375 0.671875 "/></g></g></g><g fill="#ffffff" fill-opacity="1"><g transform="translate(165.069059, 201.334517)"><g><path d="M 17.125 0.8125 L 13.140625 -2.4375 L 13.140625 -15.765625 L 11.65625 -17.078125 L 9.125 -15 L 9.125 -6.140625 C 9.125 -5.535156 9.164062 -5.097656 9.25 -4.828125 C 9.34375 -4.554688 9.539062 -4.300781 9.84375 -4.0625 C 10.082031 -3.914062 10.316406 -3.796875 10.546875 -3.703125 C 10.773438 -3.609375 11.144531 -3.488281 11.65625 -3.34375 C 10.78125 -3.039062 10.113281 -2.785156 9.65625 -2.578125 C 9.207031 -2.367188 8.773438 -2.097656 8.359375 -1.765625 C 7.898438 -1.398438 7.53125 -1.015625 7.25 -0.609375 C 6.96875 -0.203125 6.613281 0.421875 6.1875 1.265625 C 5.820312 0.546875 5.484375 -0.0507812 5.171875 -0.53125 C 4.859375 -1.019531 4.503906 -1.429688 4.109375 -1.765625 C 3.710938 -2.097656 3.25 -2.382812 2.71875 -2.625 C 2.195312 -2.863281 1.578125 -3.101562 0.859375 -3.34375 C 1.003906 -3.375 1.125 -3.40625 1.21875 -3.4375 C 1.3125 -3.46875 1.390625 -3.484375 1.453125 -3.484375 C 1.597656 -3.535156 1.726562 -3.578125 1.84375 -3.609375 C 1.96875 -3.640625 2.078125 -3.671875 2.171875 -3.703125 C 2.472656 -3.796875 2.726562 -3.945312 2.9375 -4.15625 C 3.300781 -4.457031 3.484375 -5.117188 3.484375 -6.140625 L 3.484375 -16.265625 L 1.625 -17.703125 L 0.140625 -16.265625 L -0.265625 -16.796875 L 5.015625 -22.09375 C 5.429688 -21.664062 5.789062 -21.316406 6.09375 -21.046875 C 6.394531 -20.773438 6.6875 -20.523438 6.96875 -20.296875 C 7.257812 -20.078125 7.570312 -19.859375 7.90625 -19.640625 C 8.238281 -19.429688 8.644531 -19.175781 9.125 -18.875 L 9.125 -15.765625 L 9.9375 -16.390625 C 10.71875 -16.992188 11.429688 -17.582031 12.078125 -18.15625 C 12.734375 -18.726562 13.375 -19.316406 14 -19.921875 C 14.425781 -20.316406 14.726562 -20.609375 14.90625 -20.796875 C 15.082031 -20.992188 15.335938 -21.289062 15.671875 -21.6875 C 16.210938 -20.84375 16.648438 -20.203125 16.984375 -19.765625 C 17.316406 -19.328125 17.664062 -18.925781 18.03125 -18.5625 C 18.269531 -18.320312 18.515625 -18.125 18.765625 -17.96875 C 19.023438 -17.820312 19.226562 -17.75 19.375 -17.75 C 19.707031 -17.75 20.234375 -18.113281 20.953125 -18.84375 L 21.40625 -18.25 C 20.445312 -17.5 19.765625 -16.8125 19.359375 -16.1875 C 18.953125 -15.570312 18.75 -14.890625 18.75 -14.140625 L 18.75 -5.5625 L 20.515625 -3.890625 L 21.734375 -5.0625 L 22.21875 -4.609375 Z M 17.125 0.8125 "/></g></g></g><g fill="#ffffff" fill-opacity="1"><g transform="translate(193.348473, 201.334517)"><g><path d="M 19.515625 -18.25 C 19.003906 -17.800781 18.648438 -17.46875 18.453125 -17.25 C 18.253906 -17.039062 18.113281 -16.816406 18.03125 -16.578125 C 17.96875 -16.398438 17.90625 -16.007812 17.84375 -15.40625 C 17.78125 -14.800781 17.75 -14.210938 17.75 -13.640625 L 17.75 -3.296875 C 17.414062 -3.328125 17.164062 -3.34375 17 -3.34375 C 16.84375 -3.34375 16.671875 -3.34375 16.484375 -3.34375 C 15.191406 -3.34375 13.867188 -3.085938 12.515625 -2.578125 C 12.117188 -2.421875 11.75 -2.253906 11.40625 -2.078125 C 11.0625 -1.898438 10.722656 -1.691406 10.390625 -1.453125 C 10.023438 -1.171875 9.691406 -0.863281 9.390625 -0.53125 C 9.085938 -0.207031 8.726562 0.253906 8.3125 0.859375 L 7.59375 0.1875 C 7.164062 -0.207031 6.804688 -0.539062 6.515625 -0.8125 C 6.234375 -1.082031 5.972656 -1.328125 5.734375 -1.546875 C 5.492188 -1.773438 5.242188 -2.003906 4.984375 -2.234375 C 4.734375 -2.460938 4.425781 -2.710938 4.0625 -2.984375 C 3.070312 -3.796875 2.320312 -4.203125 1.8125 -4.203125 C 1.507812 -4.203125 1.054688 -3.988281 0.453125 -3.5625 L 0.1875 -4.015625 C 0.300781 -4.109375 0.394531 -4.1875 0.46875 -4.25 C 0.550781 -4.3125 0.617188 -4.367188 0.671875 -4.421875 C 1.128906 -4.753906 1.460938 -5.054688 1.671875 -5.328125 C 1.941406 -5.597656 2.164062 -5.929688 2.34375 -6.328125 C 2.5625 -6.898438 2.671875 -7.441406 2.671875 -7.953125 L 2.671875 -16.984375 C 3.085938 -16.921875 3.414062 -16.890625 3.65625 -16.890625 C 3.894531 -16.890625 4.132812 -16.890625 4.375 -16.890625 C 5.007812 -16.890625 5.566406 -16.921875 6.046875 -16.984375 C 6.535156 -17.046875 7.125 -17.179688 7.8125 -17.390625 L 2.34375 -21.5 L 2.34375 -28.328125 L 16.171875 -18.15625 C 16.710938 -17.769531 17.148438 -17.578125 17.484375 -17.578125 C 17.816406 -17.578125 18.539062 -18.070312 19.65625 -19.0625 L 19.96875 -18.65625 Z M 12.109375 -14.28125 L 8.53125 -16.84375 L 8.3125 -16.71875 L 8.3125 -6.59375 L 11.875 -3.203125 L 12.109375 -3.296875 Z M 12.109375 -14.28125 "/></g></g></g><g fill="#ffffff" fill-opacity="1"><g transform="translate(219.820941, 201.334517)"><g/></g></g><g fill="#ffffff" fill-opacity="1"><g transform="translate(235.948578, 201.334517)"><g><path d="M 36.8125 0.59375 C 36.363281 0.320312 35.972656 0.0820312 35.640625 -0.125 C 35.304688 -0.34375 35.007812 -0.5625 34.75 -0.78125 C 34.5 -1.007812 34.257812 -1.242188 34.03125 -1.484375 C 33.8125 -1.734375 33.582031 -2.019531 33.34375 -2.34375 C 33.09375 -2.644531 32.898438 -2.910156 32.765625 -3.140625 C 32.628906 -3.367188 32.523438 -3.601562 32.453125 -3.84375 C 32.378906 -4.082031 32.332031 -4.359375 32.3125 -4.671875 C 32.300781 -4.992188 32.296875 -5.394531 32.296875 -5.875 L 32.296875 -24.125 L 31.078125 -25.4375 L 29.90625 -24.125 L 29.90625 -5.6875 L 31.078125 -7 L 31.53125 -6.59375 L 25.078125 0.59375 C 24.679688 0.132812 24.351562 -0.242188 24.09375 -0.546875 C 23.84375 -0.847656 23.617188 -1.101562 23.421875 -1.3125 C 23.222656 -1.519531 23.039062 -1.707031 22.875 -1.875 C 22.707031 -2.039062 22.519531 -2.226562 22.3125 -2.4375 C 21.832031 -2.882812 21.347656 -3.242188 20.859375 -3.515625 C 20.378906 -3.796875 19.707031 -4.128906 18.84375 -4.515625 L 18.84375 -5.015625 C 19.625 -5.046875 20.117188 -5.316406 20.328125 -5.828125 C 20.421875 -6.035156 20.492188 -6.347656 20.546875 -6.765625 C 20.609375 -7.191406 20.640625 -7.585938 20.640625 -7.953125 L 20.640625 -13.421875 L 18.4375 -13.421875 L 18.4375 -5.46875 C 18.4375 -4.59375 18.394531 -3.890625 18.3125 -3.359375 C 18.238281 -2.835938 18.097656 -2.273438 17.890625 -1.671875 C 17.554688 -0.796875 17.140625 -0.1875 16.640625 0.15625 C 16.148438 0.5 15.453125 0.671875 14.546875 0.671875 C 14.210938 0.671875 13.910156 0.648438 13.640625 0.609375 C 13.367188 0.566406 13.066406 0.488281 12.734375 0.375 C 12.398438 0.269531 12.023438 0.125 11.609375 -0.0625 C 11.191406 -0.257812 10.664062 -0.523438 10.03125 -0.859375 C 8.851562 -1.460938 7.914062 -1.890625 7.21875 -2.140625 C 6.53125 -2.398438 5.929688 -2.53125 5.421875 -2.53125 C 4.703125 -2.53125 4.109375 -2.285156 3.640625 -1.796875 C 3.171875 -1.316406 2.9375 -0.703125 2.9375 0.046875 C 2.9375 1.816406 3.929688 3.082031 5.921875 3.84375 C 6.878906 4.195312 7.960938 4.476562 9.171875 4.6875 C 10.378906 4.90625 11.507812 5.015625 12.5625 5.015625 C 13.976562 5.015625 15.28125 4.8125 16.46875 4.40625 C 17.65625 4 18.503906 3.460938 19.015625 2.796875 C 19.378906 2.347656 19.617188 1.84375 19.734375 1.28125 C 19.859375 0.726562 19.921875 -0.117188 19.921875 -1.265625 L 20.640625 -1.265625 L 20.640625 -1 C 20.640625 1.863281 19.847656 4.113281 18.265625 5.75 C 16.691406 7.394531 14.519531 8.21875 11.75 8.21875 C 10.363281 8.21875 9.097656 8 7.953125 7.5625 C 6.804688 7.125 5.816406 6.515625 4.984375 5.734375 C 4.160156 4.953125 3.515625 4.019531 3.046875 2.9375 C 2.578125 1.851562 2.34375 0.648438 2.34375 -0.671875 C 2.34375 -1.785156 2.515625 -2.863281 2.859375 -3.90625 C 3.210938 -4.945312 3.691406 -5.8125 4.296875 -6.5 C 4.617188 -6.894531 5 -7.21875 5.4375 -7.46875 C 5.875 -7.726562 6.441406 -7.976562 7.140625 -8.21875 C 7.984375 -8.488281 8.539062 -8.757812 8.8125 -9.03125 C 9.082031 -9.300781 9.21875 -9.722656 9.21875 -10.296875 L 9.21875 -14.40625 L 6.546875 -14.40625 C 6.128906 -14.40625 5.722656 -14.335938 5.328125 -14.203125 C 4.941406 -14.066406 4.640625 -13.878906 4.421875 -13.640625 C 4.273438 -13.492188 4.171875 -13.273438 4.109375 -12.984375 C 4.046875 -12.703125 4.015625 -12.289062 4.015625 -11.75 L 3.4375 -11.75 C 3.4375 -12.4375 3.445312 -13.019531 3.46875 -13.5 C 3.5 -13.988281 3.53125 -14.410156 3.5625 -14.765625 C 3.59375 -15.128906 3.628906 -15.453125 3.671875 -15.734375 C 3.722656 -16.023438 3.78125 -16.335938 3.84375 -16.671875 C 4.257812 -18.535156 5.359375 -19.46875 7.140625 -19.46875 L 9.21875 -19.46875 L 9.21875 -24.125 L 7 -24.125 C 6.28125 -24.125 5.8125 -24.144531 5.59375 -24.1875 C 5.382812 -24.226562 5.175781 -24.359375 4.96875 -24.578125 C 4.632812 -24.910156 4.367188 -25.488281 4.171875 -26.3125 C 3.984375 -27.144531 3.890625 -28.144531 3.890625 -29.3125 C 3.890625 -29.613281 3.894531 -29.890625 3.90625 -30.140625 C 3.925781 -30.398438 3.960938 -30.785156 4.015625 -31.296875 L 4.609375 -31.296875 C 4.609375 -30.878906 4.664062 -30.585938 4.78125 -30.421875 C 4.90625 -30.253906 5.117188 -30.171875 5.421875 -30.171875 C 5.515625 -30.171875 5.71875 -30.175781 6.03125 -30.1875 C 6.34375 -30.207031 6.785156 -30.25 7.359375 -30.3125 L 9.890625 -30.578125 L 12.375 -30.8125 C 12.5 -30.84375 12.664062 -30.859375 12.875 -30.859375 C 13.382812 -30.859375 13.859375 -30.78125 14.296875 -30.625 C 14.734375 -30.476562 15.070312 -30.269531 15.3125 -30 C 15.550781 -29.664062 15.726562 -29.21875 15.84375 -28.65625 C 15.96875 -28.101562 16.03125 -27.316406 16.03125 -26.296875 L 16.03125 -23.765625 L 23.625 -30.765625 C 24.164062 -30.460938 24.609375 -30.195312 24.953125 -29.96875 C 25.304688 -29.75 25.617188 -29.53125 25.890625 -29.3125 C 26.160156 -29.101562 26.40625 -28.867188 26.625 -28.609375 C 26.851562 -28.359375 27.132812 -28.050781 27.46875 -27.6875 L 27.46875 -22.859375 L 35.453125 -30.765625 C 35.722656 -30.285156 35.960938 -29.882812 36.171875 -29.5625 C 36.390625 -29.25 36.601562 -28.957031 36.8125 -28.6875 C 37.019531 -28.414062 37.253906 -28.148438 37.515625 -27.890625 C 37.773438 -27.640625 38.082031 -27.347656 38.4375 -27.015625 C 38.738281 -26.742188 39.003906 -26.515625 39.234375 -26.328125 C 39.460938 -26.148438 39.679688 -25.984375 39.890625 -25.828125 C 40.097656 -25.679688 40.3125 -25.539062 40.53125 -25.40625 C 40.757812 -25.269531 41.039062 -25.113281 41.375 -24.9375 C 40.863281 -24.78125 40.457031 -24.625 40.15625 -24.46875 C 39.851562 -24.320312 39.625 -24.128906 39.46875 -23.890625 C 39.320312 -23.648438 39.226562 -23.34375 39.1875 -22.96875 C 39.144531 -22.59375 39.125 -22.085938 39.125 -21.453125 L 39.125 -7.953125 C 39.125 -6.441406 39.546875 -5.6875 40.390625 -5.6875 C 40.710938 -5.6875 41.175781 -6.003906 41.78125 -6.640625 L 42.1875 -6.28125 Z M 29.265625 -23.765625 L 27.46875 -21.8125 L 27.46875 -18.25 L 29.265625 -18.25 Z M 20.640625 -22.21875 C 20.640625 -23.09375 20.503906 -23.804688 20.234375 -24.359375 C 19.960938 -24.921875 19.617188 -25.203125 19.203125 -25.203125 C 19.046875 -25.203125 18.789062 -25.113281 18.4375 -24.9375 L 18.4375 -18.25 L 20.640625 -18.25 Z M 29.265625 -13.421875 L 27.46875 -13.421875 L 27.46875 -6.640625 L 29.265625 -5.015625 Z M 17.84375 -24.390625 L 16.03125 -22.5 L 16.03125 -9.265625 C 15.101562 -9.265625 14.320312 -9.25 13.6875 -9.21875 C 13.050781 -9.1875 12.460938 -9.128906 11.921875 -9.046875 C 11.378906 -8.972656 10.84375 -8.863281 10.3125 -8.71875 C 9.789062 -8.570312 9.171875 -8.390625 8.453125 -8.171875 C 9.410156 -7.992188 10.160156 -7.835938 10.703125 -7.703125 C 11.242188 -7.566406 11.863281 -7.332031 12.5625 -7 C 13.757812 -6.457031 14.492188 -6.140625 14.765625 -6.046875 C 15.097656 -5.929688 15.492188 -5.875 15.953125 -5.875 C 17.210938 -5.875 17.84375 -6.835938 17.84375 -8.765625 Z M 17.84375 -24.390625 "/></g></g></g><g fill="#ffffff" fill-opacity="1"><g transform="translate(283.833455, 201.334517)"><g><path d="M 21.59375 -4.296875 C 21.320312 -4.078125 21.078125 -3.882812 20.859375 -3.71875 C 20.648438 -3.5625 20.457031 -3.40625 20.28125 -3.25 C 20.101562 -3.101562 19.914062 -2.9375 19.71875 -2.75 C 19.519531 -2.570312 19.285156 -2.363281 19.015625 -2.125 C 18.679688 -1.820312 18.398438 -1.5625 18.171875 -1.34375 C 17.953125 -1.132812 17.75 -0.929688 17.5625 -0.734375 C 17.382812 -0.546875 17.195312 -0.335938 17 -0.109375 C 16.8125 0.109375 16.582031 0.367188 16.3125 0.671875 L 12.328125 -2.03125 L 12.328125 -5.59375 L 6.453125 0.671875 L 2.671875 -2.265625 L 2.671875 -17.890625 C 2.992188 -17.859375 3.238281 -17.84375 3.40625 -17.84375 C 3.570312 -17.84375 3.75 -17.84375 3.9375 -17.84375 C 4.53125 -17.84375 5.160156 -17.894531 5.828125 -18 C 6.492188 -18.101562 7.082031 -18.25 7.59375 -18.4375 C 8.25 -18.675781 8.96875 -19.066406 9.75 -19.609375 C 10.175781 -19.910156 10.5625 -20.207031 10.90625 -20.5 C 11.25 -20.800781 11.722656 -21.285156 12.328125 -21.953125 L 16.484375 -18.5625 C 16.785156 -18.320312 17.101562 -18.125 17.4375 -17.96875 C 17.769531 -17.820312 18.054688 -17.75 18.296875 -17.75 C 18.535156 -17.75 18.765625 -17.816406 18.984375 -17.953125 C 19.210938 -18.085938 19.597656 -18.367188 20.140625 -18.796875 L 20.515625 -18.34375 C 19.941406 -17.914062 19.488281 -17.535156 19.15625 -17.203125 C 18.820312 -16.878906 18.5625 -16.535156 18.375 -16.171875 C 18.195312 -15.804688 18.085938 -15.390625 18.046875 -14.921875 C 18.003906 -14.460938 17.984375 -13.882812 17.984375 -13.1875 L 17.984375 -5.328125 L 20.140625 -3.96875 L 21.234375 -4.78125 Z M 12.328125 -15.21875 L 8.578125 -18.03125 L 8.3125 -17.890625 L 8.3125 -5.78125 L 10.4375 -4.46875 L 12.328125 -6.421875 Z M 12.328125 -15.21875 "/></g></g></g><g fill="#ffffff" fill-opacity="1"><g transform="translate(311.344903, 201.334517)"><g><path d="M 15.171875 -20.953125 C 14.960938 -19.179688 14.5625 -17.894531 13.96875 -17.09375 C 13.382812 -16.300781 12.523438 -15.90625 11.390625 -15.90625 C 9.878906 -15.90625 8.941406 -16.757812 8.578125 -18.46875 L 8.3125 -18.390625 L 8.3125 -6.015625 L 12.515625 -3.609375 L 14.640625 -6.421875 L 15.125 -6.015625 L 9.625 1.3125 C 9.113281 0.882812 8.695312 0.566406 8.375 0.359375 C 8.0625 0.148438 7.617188 -0.117188 7.046875 -0.453125 C 6.804688 -0.597656 6.519531 -0.769531 6.1875 -0.96875 C 5.851562 -1.164062 5.476562 -1.382812 5.0625 -1.625 C 4.457031 -1.957031 3.992188 -2.191406 3.671875 -2.328125 C 3.359375 -2.460938 3.082031 -2.53125 2.84375 -2.53125 C 2.570312 -2.53125 2.300781 -2.421875 2.03125 -2.203125 C 1.757812 -1.992188 1.351562 -1.59375 0.8125 -1 L 0.359375 -1.40625 C 0.722656 -1.757812 0.945312 -2 1.03125 -2.125 C 1.457031 -2.539062 1.769531 -2.898438 1.96875 -3.203125 C 2.164062 -3.503906 2.304688 -3.820312 2.390625 -4.15625 C 2.453125 -4.457031 2.515625 -5.019531 2.578125 -5.84375 C 2.640625 -6.675781 2.671875 -7.46875 2.671875 -8.21875 L 2.671875 -18.390625 C 3.085938 -18.328125 3.40625 -18.28125 3.625 -18.25 C 3.851562 -18.21875 4.09375 -18.203125 4.34375 -18.203125 C 5.425781 -18.203125 6.550781 -18.414062 7.71875 -18.84375 C 8.414062 -19.113281 9.066406 -19.441406 9.671875 -19.828125 C 10.179688 -20.160156 10.578125 -20.476562 10.859375 -20.78125 C 11.148438 -21.082031 11.503906 -21.546875 11.921875 -22.171875 C 12.078125 -21.335938 12.3125 -20.671875 12.625 -20.171875 C 12.9375 -19.671875 13.273438 -19.421875 13.640625 -19.421875 C 14.117188 -19.421875 14.453125 -19.929688 14.640625 -20.953125 Z M 15.171875 -20.953125 "/></g></g></g><g fill="#ffffff" fill-opacity="1"><g transform="translate(332.75788, 201.334517)"><g><path d="M 20.015625 -19.375 C 19.554688 -18.957031 19.195312 -18.628906 18.9375 -18.390625 C 18.6875 -18.148438 18.488281 -17.921875 18.34375 -17.703125 C 18.1875 -17.523438 18.054688 -17.304688 17.953125 -17.046875 C 17.847656 -16.796875 17.765625 -16.472656 17.703125 -16.078125 C 17.640625 -15.691406 17.601562 -15.210938 17.59375 -14.640625 C 17.582031 -14.066406 17.578125 -13.359375 17.578125 -12.515625 L 17.578125 -8.046875 C 17.578125 -6.835938 17.550781 -5.773438 17.5 -4.859375 C 17.457031 -3.941406 17.390625 -3.101562 17.296875 -2.34375 C 17.210938 -1.59375 17.085938 -0.914062 16.921875 -0.3125 C 16.753906 0.289062 16.550781 0.863281 16.3125 1.40625 C 15.800781 2.601562 15.109375 3.671875 14.234375 4.609375 C 13.359375 5.546875 12.273438 6.359375 10.984375 7.046875 C 10.617188 7.253906 10.285156 7.425781 9.984375 7.5625 C 9.679688 7.695312 9.378906 7.816406 9.078125 7.921875 C 8.773438 8.023438 8.441406 8.113281 8.078125 8.1875 C 7.722656 8.269531 7.304688 8.359375 6.828125 8.453125 L 6.828125 7.671875 C 7.117188 7.585938 7.382812 7.503906 7.625 7.421875 C 7.875 7.347656 8.101562 7.285156 8.3125 7.234375 C 8.757812 7.078125 9.203125 6.847656 9.640625 6.546875 C 10.078125 6.242188 10.414062 5.941406 10.65625 5.640625 C 11.5 4.503906 11.921875 1.492188 11.921875 -3.390625 L 11.921875 -16.03125 L 10.390625 -17.578125 L 8.3125 -15.3125 L 8.3125 -7.90625 C 8.3125 -7.125 8.34375 -6.554688 8.40625 -6.203125 C 8.46875 -5.859375 8.570312 -5.519531 8.71875 -5.1875 C 8.863281 -4.914062 9.023438 -4.71875 9.203125 -4.59375 C 9.390625 -4.476562 9.738281 -4.347656 10.25 -4.203125 C 10.3125 -4.203125 10.429688 -4.171875 10.609375 -4.109375 C 10.035156 -3.992188 9.546875 -3.820312 9.140625 -3.59375 C 8.734375 -3.363281 8.257812 -3.007812 7.71875 -2.53125 C 7.394531 -2.257812 7.125 -1.992188 6.90625 -1.734375 C 6.695312 -1.484375 6.5 -1.210938 6.3125 -0.921875 C 6.132812 -0.640625 5.96875 -0.316406 5.8125 0.046875 C 5.664062 0.410156 5.503906 0.863281 5.328125 1.40625 C 5.085938 0.707031 4.882812 0.195312 4.71875 -0.125 C 4.550781 -0.457031 4.378906 -0.773438 4.203125 -1.078125 C 3.960938 -1.378906 3.644531 -1.742188 3.25 -2.171875 C 2.800781 -2.585938 2.390625 -2.921875 2.015625 -3.171875 C 1.640625 -3.429688 1.070312 -3.742188 0.3125 -4.109375 C 0.769531 -4.234375 1.109375 -4.363281 1.328125 -4.5 C 1.554688 -4.632812 1.773438 -4.851562 1.984375 -5.15625 C 2.253906 -5.476562 2.4375 -5.878906 2.53125 -6.359375 C 2.625 -6.847656 2.671875 -7.601562 2.671875 -8.625 L 2.671875 -28.375 L 8.3125 -30.125 L 8.3125 -16.03125 L 14.3125 -22.265625 C 14.582031 -21.785156 14.875 -21.328125 15.1875 -20.890625 C 15.507812 -20.453125 15.835938 -20.070312 16.171875 -19.75 C 16.503906 -19.4375 16.820312 -19.191406 17.125 -19.015625 C 17.425781 -18.835938 17.695312 -18.75 17.9375 -18.75 C 18.207031 -18.75 18.628906 -18.988281 19.203125 -19.46875 C 19.253906 -19.53125 19.3125 -19.582031 19.375 -19.625 C 19.4375 -19.664062 19.53125 -19.734375 19.65625 -19.828125 Z M 20.015625 -19.375 "/></g></g></g><g fill="#ffffff" fill-opacity="1"><g transform="translate(359.094832, 201.334517)"><g><path d="M 7.359375 0.765625 C 7.148438 0.523438 6.96875 0.3125 6.8125 0.125 C 6.664062 -0.0507812 6.515625 -0.21875 6.359375 -0.375 C 6.210938 -0.539062 6.039062 -0.722656 5.84375 -0.921875 C 5.65625 -1.117188 5.410156 -1.367188 5.109375 -1.671875 C 4.503906 -2.273438 4.039062 -2.6875 3.71875 -2.90625 C 3.40625 -3.132812 3.160156 -3.25 2.984375 -3.25 C 2.585938 -3.25 1.9375 -2.796875 1.03125 -1.890625 L 0.625 -2.390625 C 1.082031 -2.785156 1.421875 -3.078125 1.640625 -3.265625 C 1.867188 -3.460938 2.101562 -3.710938 2.34375 -4.015625 C 2.53125 -4.234375 2.679688 -4.4375 2.796875 -4.625 C 2.921875 -4.820312 3.007812 -5.0625 3.0625 -5.34375 C 3.125 -5.632812 3.160156 -6 3.171875 -6.4375 C 3.191406 -6.875 3.203125 -7.4375 3.203125 -8.125 L 3.203125 -17.84375 L 0.1875 -17.84375 L 0.1875 -21 L 3.203125 -21 L 3.203125 -25.703125 L 6.734375 -29.046875 L 8.859375 -29.046875 L 8.859375 -21 L 12.46875 -21 L 12.46875 -17.84375 L 8.859375 -17.84375 L 8.859375 -5.921875 L 10.890625 -4.0625 L 12.46875 -5.640625 L 13.015625 -5.15625 Z M 7.359375 0.765625 "/></g></g></g></svg>