<svg xmlns="http://www.w3.org/2000/svg" xmlns:xlink="http://www.w3.org/1999/xlink" width="500" zoomAndPan="magnify" viewBox="0 0 375 374.999991" height="500" preserveAspectRatio="xMidYMid meet" version="1.0"><path stroke-linecap="butt" transform="matrix(0.75, 0, 0, 0.75, 0.0000045, 121.124992)" fill="none" stroke-linejoin="miter" d="M 5.968744 124.703144 L 5.968744 54.786473 L -1.145839 54.786473 L -1.145839 45.66668 L 21.92187 45.66668 L 21.92187 54.786473 L 15.708328 54.786473 L 15.708328 124.703144 Z M -1.020839 138.00002 L -1.020839 131.291686 L 22.791662 131.291686 L 22.791662 138.00002 Z M -1.020839 39.32293 L -1.020839 32.614596 L 22.791662 32.614596 L 22.791662 39.32293 Z M 45.479164 107.604184 C 45.312497 111.067726 44.249997 113.942726 42.291663 116.229185 C 40.354163 118.500018 37.61458 119.630227 34.067705 119.630227 C 30.276038 119.630227 27.380204 118.416685 25.380204 115.984393 C 23.401037 113.531268 22.411454 110.395851 22.411454 106.583351 L 22.411454 70.250015 C 22.411454 66.619807 23.463537 63.619806 25.562496 61.250015 C 27.687496 58.880223 30.520829 57.692723 34.067705 57.692723 C 37.859371 57.692723 40.70833 58.859389 42.604163 61.187515 C 44.52083 63.494806 45.479164 66.51564 45.479164 70.250015 L 45.479164 92.265642 L 32.307288 92.265642 L 32.307288 108.218768 C 32.307288 108.901059 32.427079 109.520851 32.677079 110.078143 C 32.921871 110.614601 33.390621 110.880226 34.067705 110.880226 C 34.666663 110.880226 35.088538 110.614601 35.338538 110.078143 C 35.58333 109.520851 35.70833 108.901059 35.70833 108.218768 L 35.70833 97.213559 L 45.479164 97.213559 Z M 35.70833 68.70314 C 35.70833 66.927098 35.161455 66.041682 34.067705 66.041682 C 32.895829 66.041682 32.307288 66.927098 32.307288 68.70314 L 32.307288 83.916683 L 35.70833 83.916683 Z M 16.718745 138.00002 L 16.718745 131.291686 L 51.166664 131.291686 L 51.166664 138.00002 Z M 16.718745 39.32293 L 16.718745 32.614596 L 51.166664 32.614596 L 51.166664 39.32293 Z M 71.947915 106.953143 C 71.786457 110.765643 70.68229 113.83856 68.640624 116.166685 C 66.61979 118.479185 63.880207 119.630227 60.416665 119.630227 C 56.624998 119.630227 53.723956 118.437518 51.729164 116.046893 C 49.749997 113.630226 48.760414 110.479185 48.760414 106.583351 L 48.760414 70.250015 C 48.760414 66.432307 49.848956 63.395848 52.036456 61.125015 C 54.239581 58.838556 57.036456 57.692723 60.416665 57.692723 C 64.124998 57.692723 66.973957 58.838556 68.953124 61.125015 C 70.947915 63.395848 71.947915 66.432307 71.947915 70.250015 L 71.947915 82.645849 L 62.05729 82.645849 L 62.05729 68.70314 C 62.05729 66.927098 61.510415 66.041682 60.416665 66.041682 C 59.734373 66.041682 59.270831 66.302098 59.02604 66.817723 C 58.77604 67.333348 58.65104 67.958348 58.65104 68.70314 L 58.65104 108.218768 C 58.65104 108.984393 58.796873 109.625018 59.08854 110.140643 C 59.374998 110.635435 59.817706 110.880226 60.416665 110.880226 C 61.015623 110.880226 61.437498 110.635435 61.68229 110.140643 C 61.93229 109.625018 62.05729 108.984393 62.05729 108.218768 L 62.05729 95.203142 L 71.947915 95.203142 Z M 44.58333 138.00002 L 44.58333 131.291686 L 76.124999 131.291686 L 76.124999 138.00002 Z M 44.58333 39.32293 L 44.58333 32.614596 L 76.124999 32.614596 L 76.124999 39.32293 Z M 88.140625 119.260435 L 88.140625 68.854182 C 88.140625 67.083348 87.598958 66.197932 86.505208 66.197932 C 85.328125 66.197932 84.739583 67.083348 84.739583 68.854182 L 84.739583 119.260435 L 74.843749 119.260435 L 74.843749 45.66668 L 84.739583 45.66668 L 84.739583 59.458348 C 85.072916 59.125014 85.619791 58.796889 86.380208 58.468764 C 87.145833 58.114598 88.114583 57.942723 89.286458 57.942723 C 92.583333 57.942723 94.84375 58.880223 96.057292 60.755223 C 97.296875 62.60939 97.916667 65.218765 97.916667 68.57814 L 97.916667 119.260435 Z M 70.671874 138.00002 L 70.671874 131.291686 L 102.088542 131.291686 L 102.088542 138.00002 Z M 70.671874 39.32293 L 70.671874 32.614596 L 102.088542 32.614596 L 102.088542 39.32293 Z M 114.614585 119.135435 L 114.614585 68.70314 C 114.614585 66.927098 114.06771 66.041682 112.97396 66.041682 C 111.802085 66.041682 111.213543 66.927098 111.213543 68.70314 L 111.213543 119.135435 L 101.317709 119.135435 L 101.317709 58.218764 L 111.088543 58.218764 L 111.213543 59.333348 C 111.625001 58.921889 112.234376 58.567723 113.03646 58.281264 C 113.843751 57.973973 114.750002 57.817723 115.760418 57.817723 C 118.97396 57.817723 121.213544 58.942723 122.468752 61.187515 C 123.744794 63.416681 124.385419 66.135432 124.385419 69.348973 L 124.385419 119.135435 Z M 97.140625 138.00002 L 97.140625 131.291686 L 128.562502 131.291686 L 128.562502 138.00002 Z M 97.140625 39.32293 L 97.140625 32.614596 L 128.562502 32.614596 L 128.562502 39.32293 Z M 141.083337 69.229182 C 141.083337 67.45314 140.54167 66.567723 139.44792 66.567723 C 138.765628 66.567723 138.302086 66.82814 138.057295 67.343765 C 137.807295 67.838557 137.682295 68.463557 137.682295 69.229182 L 137.682295 108.744809 C 137.682295 109.510434 137.828128 110.15106 138.114586 110.666685 C 138.406253 111.161476 138.848961 111.406268 139.44792 111.406268 C 140.046878 111.406268 140.468753 111.161476 140.713545 110.666685 C 140.963545 110.15106 141.083337 109.510434 141.083337 108.744809 Z M 123.614585 138.00002 L 123.614585 131.291686 L 155.031254 131.291686 L 155.031254 138.00002 Z M 123.614585 39.32293 L 123.614585 32.614596 L 155.031254 32.614596 L 155.031254 39.32293 Z M 150.734379 107.109393 C 150.734379 110.984393 149.713545 114.125018 147.671879 116.541685 C 145.651045 118.93231 142.869795 120.125018 139.32292 120.125018 C 135.531253 120.125018 132.656253 118.93231 130.692711 116.541685 C 128.755211 114.125018 127.786461 110.984393 127.786461 107.109393 L 127.786461 70.744807 C 127.786461 66.947932 128.859377 63.916681 131.005211 61.651056 C 133.166669 59.364598 135.942711 58.218764 139.32292 58.218764 L 152.494796 58.218764 L 152.494796 65.67189 L 149.958337 65.67189 C 150.473962 67.197932 150.734379 68.885432 150.734379 70.744807 Z M 177.328131 106.953143 C 177.161464 110.765643 176.062506 113.83856 174.020839 116.166685 C 172.000005 118.479185 169.255213 119.630227 165.791672 119.630227 C 162.000005 119.630227 159.104171 118.437518 157.104171 116.046893 C 155.125004 113.630226 154.135421 110.479185 154.135421 106.583351 L 154.135421 70.250015 C 154.135421 66.432307 155.229171 63.395848 157.411463 61.125015 C 159.619796 58.838556 162.411463 57.692723 165.791672 57.692723 C 169.505213 57.692723 172.348964 58.838556 174.32813 61.125015 C 176.328131 63.395848 177.328131 66.432307 177.328131 70.250015 L 177.328131 82.645849 L 167.432297 82.645849 L 167.432297 68.70314 C 167.432297 66.927098 166.885422 66.041682 165.791672 66.041682 C 165.114588 66.041682 164.651046 66.302098 164.401046 66.817723 C 164.156255 67.333348 164.031255 67.958348 164.031255 68.70314 L 164.031255 108.218768 C 164.031255 108.984393 164.177088 109.625018 164.463546 110.140643 C 164.755213 110.635435 165.197922 110.880226 165.791672 110.880226 C 166.39063 110.880226 166.812505 110.635435 167.062505 110.140643 C 167.307297 109.625018 167.432297 108.984393 167.432297 108.218768 L 167.432297 95.203142 L 177.328131 95.203142 Z M 149.963546 138.00002 L 149.963546 131.291686 L 181.505214 131.291686 L 181.505214 138.00002 Z M 149.963546 39.32293 L 149.963546 32.614596 L 181.505214 32.614596 L 181.505214 39.32293 Z M 193.921882 68.333348 L 192.375007 66.817723 C 192.213548 66.651057 192.026048 66.48439 191.822923 66.322932 C 191.61459 66.135432 191.296882 66.041682 190.859382 66.041682 C 190.286465 66.041682 189.994798 66.598973 189.994798 67.713557 L 189.994798 119.260435 L 180.223964 119.260435 L 180.223964 58.343764 L 189.718756 58.343764 L 189.869798 59.333348 C 190.61459 58.406264 191.828132 57.942723 193.52084 57.942723 C 194.531257 57.942723 195.437507 58.218764 196.244799 58.776056 C 197.046882 59.333348 197.953132 60.281265 198.963549 61.619806 Z M 177.562506 138.00002 L 177.562506 131.291686 L 199.859382 131.291686 L 199.859382 138.00002 Z M 177.562506 39.32293 L 177.562506 32.614596 L 199.859382 32.614596 L 199.859382 39.32293 Z M 207.708341 119.135435 C 204.760424 119.135435 202.625007 118.104185 201.307299 116.046893 C 200.005215 113.96356 199.359382 111.229185 199.359382 107.848976 L 199.359382 68.57814 C 199.359382 65.385432 200.088549 62.79689 201.552091 60.817723 C 203.036466 58.817723 205.223966 57.817723 208.109383 57.817723 C 209.286466 57.817723 210.203133 57.994806 210.859383 58.343764 C 211.541675 58.671889 212.140633 59.041681 212.656258 59.458348 L 212.90105 58.218764 L 222.270842 58.218764 L 222.270842 110.880226 L 224.067717 110.880226 L 224.067717 119.135435 Z M 212.656258 68.70314 C 212.656258 66.927098 212.067716 66.041682 210.890633 66.041682 C 210.213549 66.041682 209.760424 66.322932 209.531258 66.875015 C 209.328133 67.432307 209.223966 68.041682 209.223966 68.70314 L 209.223966 107.848976 C 209.223966 108.531268 209.328133 109.130226 209.531258 109.645851 C 209.760424 110.140643 210.213549 110.385435 210.890633 110.385435 C 211.468758 110.385435 211.90105 110.140643 212.192716 109.645851 C 212.500008 109.130226 212.656258 108.531268 212.656258 107.848976 Z M 197.067715 138.00002 L 197.067715 131.291686 L 225.583342 131.291686 L 225.583342 138.00002 Z M 197.067715 39.32293 L 197.067715 32.614596 L 225.583342 32.614596 L 225.583342 39.32293 Z M 238.989593 119.260435 C 235.031259 119.260435 232.145843 118.187518 230.333342 116.046893 C 228.515634 113.880226 227.609384 110.479185 227.609384 105.838559 L 227.609384 66.567723 L 224.177092 66.567723 L 224.177092 58.218764 L 227.609384 58.218764 L 227.609384 47.177097 L 237.354176 47.177097 L 237.354176 58.218764 L 242.546885 58.218764 L 242.546885 66.567723 L 237.354176 66.567723 L 237.354176 106.708351 C 237.354176 107.984393 237.515635 109.026059 237.848968 109.828143 C 238.197926 110.635435 239.00001 111.036476 240.260426 111.036476 L 242.546885 111.036476 L 242.546885 119.260435 Z M 223.036467 138.00002 L 223.036467 131.291686 L 244.432302 131.291686 L 244.432302 138.00002 Z M 223.036467 39.32293 L 223.036467 32.614596 L 244.432302 32.614596 L 244.432302 39.32293 Z M 266.979178 106.583351 C 266.979178 110.208351 266.093761 113.291685 264.31772 115.828143 C 262.546886 118.364602 259.640636 119.630227 255.598969 119.630227 C 252.135427 119.630227 249.322927 118.541685 247.15626 116.354185 C 245.015635 114.145851 243.942718 111.270851 243.942718 107.723976 L 243.942718 95.203142 L 253.682302 95.203142 L 253.682302 108.218768 C 253.682302 108.817726 253.828136 109.416684 254.114594 110.015643 C 254.421886 110.593768 254.916677 110.880226 255.598969 110.880226 C 256.177094 110.880226 256.588553 110.635435 256.838553 110.140643 C 257.104178 109.625018 257.239594 108.984393 257.239594 108.218768 L 257.239594 97.338559 C 257.239594 96.328142 256.854178 95.479184 256.093761 94.8021 C 255.333344 94.119808 254.322927 93.411475 253.062511 92.666683 C 250.609385 91.057308 248.479177 89.286475 246.661469 87.348975 C 244.848968 85.390641 243.942718 82.937516 243.942718 79.989599 L 243.942718 69.843765 C 243.942718 66.48439 244.953135 63.619806 246.973969 61.250015 C 249.010427 58.880223 251.890636 57.692723 255.598969 57.692723 C 259.390636 57.692723 262.239595 58.901056 264.135428 61.312515 C 266.031261 63.723973 266.979178 66.567723 266.979178 69.843765 L 266.979178 81.010433 L 257.239594 81.010433 L 257.239594 68.57814 C 257.239594 66.885432 256.651053 66.041682 255.473969 66.041682 C 254.281261 66.041682 253.682302 66.885432 253.682302 68.57814 L 253.682302 78.968766 C 253.682302 80.161474 254.062511 81.104183 254.828136 81.781266 C 255.588552 82.442724 256.817719 83.234391 258.505219 84.161474 C 259.348969 84.677099 260.281261 85.296891 261.286469 86.02085 C 262.296886 86.718766 263.229178 87.562516 264.072928 88.5521 C 264.916678 89.52085 265.609386 90.593767 266.145845 91.77085 C 266.697928 92.947933 266.979178 94.296892 266.979178 95.822934 Z M 241.651052 138.00002 L 241.651052 131.291686 L 270.041678 131.291686 L 270.041678 138.00002 Z M 241.651052 39.32293 L 241.651052 32.614596 L 270.041678 32.614596 L 270.041678 39.32293 Z M 267.364595 138.00002 L 267.364595 131.291686 L 282.177096 131.291686 L 282.177096 138.00002 Z M 267.364595 39.32293 L 267.364595 32.614596 L 282.177096 32.614596 L 282.177096 39.32293 Z M 305.125014 112.02606 C 305.125014 115.921893 304.083347 119.072935 302.000014 121.489602 C 299.937514 123.880227 297.177097 125.072935 293.713555 125.072935 C 289.921888 125.072935 287.005221 123.90106 284.963554 121.546894 C 282.942721 119.177102 281.932304 116.005227 281.932304 112.02606 L 281.932304 57.567723 C 281.932304 53.776056 283.026054 50.744806 285.208346 48.47918 C 287.41668 46.187514 290.250013 45.046889 293.713555 45.046889 C 297.26043 45.046889 300.04168 46.187514 302.062514 48.47918 C 304.104181 50.744806 305.125014 53.776056 305.125014 57.567723 Z M 295.22918 56.052098 C 295.22918 54.281264 294.682305 53.395847 293.588555 53.395847 C 292.911472 53.395847 292.44793 53.651056 292.19793 54.166681 C 291.953138 54.661473 291.828138 55.291681 291.828138 56.052098 L 291.828138 113.817726 C 291.828138 115.510435 292.458347 116.354185 293.713555 116.354185 C 294.723972 116.354185 295.22918 115.510435 295.22918 113.817726 Z M 277.880221 138.00002 L 277.880221 131.291686 L 309.296889 131.291686 L 309.296889 138.00002 Z M 277.880221 39.32293 L 277.880221 32.614596 L 309.296889 32.614596 L 309.296889 39.32293 Z M 323.739599 54.015639 C 322.29689 54.015639 321.35939 54.354181 320.92189 55.036473 C 320.510432 55.713556 320.307307 56.776056 320.307307 58.218764 L 320.307307 63.661473 L 324.479182 63.661473 L 324.479182 72.010432 L 320.307307 72.010432 L 320.307307 119.135435 L 310.687514 119.135435 L 310.687514 72.010432 L 307.130223 72.010432 L 307.130223 63.661473 L 310.687514 63.661473 L 310.687514 59.083348 C 310.687514 54.531264 311.697931 51.156264 313.718765 48.973972 C 315.760431 46.765639 318.677098 45.66668 322.468765 45.66668 L 326.89064 45.66668 L 326.89064 54.015639 Z M 305.739597 138.00002 L 305.739597 131.291686 L 327.666682 131.291686 L 327.666682 138.00002 Z M 305.739597 39.32293 L 305.739597 32.614596 L 327.666682 32.614596 L 327.666682 39.32293 Z M 324.864599 138.00002 L 324.864599 131.291686 L 339.6771 131.291686 L 339.6771 138.00002 Z M 324.864599 39.32293 L 324.864599 32.614596 L 339.6771 32.614596 L 339.6771 39.32293 Z M 343.885433 124.703144 L 343.885433 54.786473 L 336.776058 54.786473 L 336.776058 45.66668 L 359.843768 45.66668 L 359.843768 54.786473 L 353.630226 54.786473 L 353.630226 124.703144 Z M 336.901058 138.00002 L 336.901058 131.291686 L 360.708351 131.291686 L 360.708351 138.00002 Z M 336.901058 39.32293 L 336.901058 32.614596 L 360.708351 32.614596 L 360.708351 39.32293 Z M 373.625019 119.260435 L 373.625019 118.114602 C 373.21356 118.531268 372.583352 118.911477 371.739602 119.260435 C 370.895852 119.58856 369.885435 119.755227 368.708352 119.755227 C 365.739601 119.755227 363.598976 118.765643 362.276059 116.786477 C 360.979184 114.80731 360.328143 112.046893 360.328143 108.500018 L 360.328143 58.343764 L 370.223977 58.343764 L 370.223977 108.625018 C 370.223977 110.229185 370.812518 111.036476 371.989602 111.036476 C 373.078143 111.036476 373.625019 110.229185 373.625019 108.625018 L 373.625019 58.343764 L 383.395853 58.343764 L 383.395853 119.260435 Z M 357.671892 138.00002 L 357.671892 131.291686 L 386.057311 131.291686 L 386.057311 138.00002 Z M 357.671892 39.32293 L 357.671892 32.614596 L 386.057311 32.614596 L 386.057311 39.32293 Z M 400.50002 68.333348 L 398.953145 66.817723 C 398.786479 66.651057 398.604187 66.48439 398.395853 66.322932 C 398.192728 66.135432 397.869812 66.041682 397.43752 66.041682 C 396.859395 66.041682 396.572937 66.598973 396.572937 67.713557 L 396.572937 119.260435 L 386.802103 119.260435 L 386.802103 58.343764 L 396.291687 58.343764 L 396.447937 59.333348 C 397.192728 58.406264 398.40627 57.942723 400.098979 57.942723 C 401.109395 57.942723 402.015645 58.218764 402.817729 58.776056 C 403.625021 59.333348 404.531271 60.281265 405.541687 61.619806 Z M 384.140644 138.00002 L 384.140644 131.291686 L 406.437521 131.291686 L 406.437521 138.00002 Z M 384.140644 39.32293 L 384.140644 32.614596 L 406.437521 32.614596 L 406.437521 39.32293 Z M 432.901064 119.260435 L 432.901064 68.854182 C 432.901064 67.083348 432.312522 66.197932 431.135439 66.197932 C 429.963564 66.197932 429.375022 67.083348 429.375022 68.854182 L 429.375022 119.260435 L 419.72398 119.260435 L 419.72398 68.854182 C 419.72398 67.083348 419.09898 66.197932 417.838563 66.197932 C 416.744813 66.197932 416.203146 67.083348 416.203146 68.854182 L 416.203146 119.260435 L 406.427104 119.260435 L 406.427104 58.343764 L 415.953146 58.343764 L 416.203146 60.229181 C 416.614605 59.630223 417.260438 59.104181 418.151063 58.651056 C 419.03648 58.177098 420.078147 57.942723 421.270855 57.942723 C 422.94273 57.942723 424.260439 58.239598 425.229189 58.838556 C 426.218772 59.437515 426.921897 60.062515 427.333355 60.723973 C 428.093772 59.880223 429.046897 59.208348 430.177106 58.713556 C 431.333356 58.197931 432.661481 57.942723 434.166689 57.942723 C 437.218773 57.942723 439.375023 58.942723 440.630231 60.942723 C 441.906273 62.92189 442.546898 65.505223 442.546898 68.70314 L 442.546898 119.260435 Z M 403.645854 138.00002 L 403.645854 131.291686 L 446.07294 131.291686 L 446.07294 138.00002 Z M 403.645854 39.32293 L 403.645854 32.614596 L 446.07294 32.614596 L 446.07294 39.32293 Z M 459.375024 69.229182 C 459.375024 67.45314 458.828149 66.567723 457.734399 66.567723 C 457.052107 66.567723 456.588566 66.82814 456.343774 67.343765 C 456.093774 67.838557 455.968774 68.463557 455.968774 69.229182 L 455.968774 108.744809 C 455.968774 109.510434 456.114607 110.15106 456.406274 110.666685 C 456.692732 111.161476 457.135441 111.406268 457.734399 111.406268 C 458.333357 111.406268 458.755232 111.161476 459.000024 110.666685 C 459.250024 110.15106 459.375024 109.510434 459.375024 108.744809 Z M 441.901065 138.00002 L 441.901065 131.291686 L 473.317733 131.291686 L 473.317733 138.00002 Z M 441.901065 39.32293 L 441.901065 32.614596 L 473.317733 32.614596 L 473.317733 39.32293 Z M 469.020858 107.109393 C 469.020858 110.984393 468.000025 114.125018 465.958358 116.541685 C 463.937524 118.93231 461.156274 120.125018 457.609399 120.125018 C 453.817732 120.125018 450.942732 118.93231 448.984398 116.541685 C 447.046898 114.125018 446.078148 110.984393 446.078148 107.109393 L 446.078148 70.744807 C 446.078148 66.947932 447.145857 63.916681 449.29169 61.651056 C 451.458357 59.364598 454.22919 58.218764 457.609399 58.218764 L 470.781275 58.218764 L 470.781275 65.67189 L 468.250025 65.67189 C 468.760441 67.197932 469.020858 68.885432 469.020858 70.744807 Z M 472.5469 119.260435 L 472.5469 58.218764 L 482.317734 58.218764 L 482.317734 119.260435 Z M 472.5469 45.54168 L 482.192734 45.54168 L 482.192734 54.661473 L 472.5469 54.661473 Z M 468.369816 138.00002 L 468.369816 131.291686 L 487.234401 131.291686 L 487.234401 138.00002 Z M 468.369816 39.32293 L 468.369816 32.614596 L 487.234401 32.614596 L 487.234401 39.32293 Z M 485.718776 119.135435 L 485.718776 45.54168 L 495.48961 45.54168 L 495.48961 119.135435 Z M 483.057317 138.00002 L 483.057317 131.291686 L 499.015652 131.291686 L 499.015652 138.00002 Z M 483.057317 39.32293 L 483.057317 32.614596 L 499.015652 32.614596 L 499.015652 39.32293 Z M 483.057317 39.32293 " stroke="#ffffff" stroke-width="2.770688" stroke-opacity="1" stroke-miterlimit="4"/></svg>