<svg xmlns="http://www.w3.org/2000/svg" xmlns:xlink="http://www.w3.org/1999/xlink" width="500" zoomAndPan="magnify" viewBox="0 0 375 374.999991" height="500" preserveAspectRatio="xMidYMid meet" version="1.0"><defs><g/></defs><g fill="#9e1c11" fill-opacity="1"><g transform="translate(0.0000045, 186.675573)"><g><path d="M 14.1875 -0.15625 C 13.882812 -0.15625 13.1875 -0.234375 12.09375 -0.390625 C 11 -0.546875 10.429688 -1.09375 10.390625 -2.03125 C 10.347656 -2.976562 10.050781 -3.828125 9.5 -4.578125 C 8.957031 -5.328125 8.375 -7.207031 7.75 -10.21875 C 7.53125 -11.300781 7.421875 -12.207031 7.421875 -12.9375 C 7.421875 -14.28125 7.773438 -15.097656 8.484375 -15.390625 C 9.203125 -15.679688 9.5625 -16.128906 9.5625 -16.734375 C 9.5625 -17.023438 9.46875 -17.363281 9.28125 -17.75 C 8.820312 -18.675781 8.59375 -19.644531 8.59375 -20.65625 L 8.609375 -21.234375 C 8.660156 -21.742188 8.6875 -22.40625 8.6875 -23.21875 C 8.6875 -24.289062 8.628906 -25.914062 8.515625 -28.09375 C 8.410156 -30.28125 6.832031 -31.179688 3.78125 -30.796875 L 2.234375 -30.8125 C 0.460938 -31.238281 -0.421875 -31.359375 -0.421875 -31.171875 C -0.421875 -31.148438 -0.382812 -31.113281 -0.3125 -31.0625 C -0.113281 -30.945312 -0.234375 -31.070312 -0.671875 -31.4375 C -1.109375 -31.800781 -1.050781 -32.015625 -0.5 -32.078125 C 0.207031 -32.003906 0.675781 -31.96875 0.90625 -31.96875 C 0.957031 -31.96875 1.09375 -31.925781 1.3125 -31.84375 C 1.53125 -31.757812 3.097656 -31.578125 6.015625 -31.296875 C 8.929688 -31.023438 10.976562 -30.785156 12.15625 -30.578125 C 12.882812 -30.441406 13.773438 -30.375 14.828125 -30.375 C 17.578125 -30.375 19.613281 -30.585938 20.9375 -31.015625 C 21.300781 -31.140625 21.632812 -31.203125 21.9375 -31.203125 C 22.3125 -31.203125 22.640625 -31.113281 22.921875 -30.9375 C 23.046875 -30.851562 23.109375 -30.769531 23.109375 -30.6875 C 23.109375 -30.394531 22.515625 -30.046875 21.328125 -29.640625 C 20.003906 -29.191406 18.847656 -28.96875 17.859375 -28.96875 C 17.660156 -28.96875 17.472656 -28.976562 17.296875 -29 L 17.15625 -29 C 16.226562 -29 15.765625 -28.207031 15.765625 -26.625 L 15.78125 -25.4375 C 15.78125 -23.84375 15.578125 -22.632812 15.171875 -21.8125 C 14.765625 -20.988281 14.5625 -20.078125 14.5625 -19.078125 C 14.5625 -18.835938 14.59375 -18.316406 14.65625 -17.515625 C 14.726562 -16.722656 14.800781 -15.925781 14.875 -15.125 C 14.957031 -14.332031 15 -13.597656 15 -12.921875 C 15.007812 -12.242188 15.332031 -10.429688 15.96875 -7.484375 C 16.382812 -5.546875 16.59375 -4.019531 16.59375 -2.90625 C 16.59375 -2.300781 16.53125 -1.820312 16.40625 -1.46875 C 16.132812 -0.59375 15.394531 -0.15625 14.1875 -0.15625 Z M 12.890625 -1.0625 L 15.96875 -1.796875 L 15.96875 -1.46875 C 15.914062 -1.269531 15.898438 -1.015625 15.921875 -0.703125 C 15.953125 -0.398438 15.96875 0.0195312 15.96875 0.5625 C 16.039062 0.738281 16.113281 0.914062 16.1875 1.09375 C 16.257812 1.269531 16.273438 1.453125 16.234375 1.640625 C 16.203125 1.835938 16.222656 2.019531 16.296875 2.1875 C 16.367188 2.363281 16.445312 2.550781 16.53125 2.75 L 16.53125 5.28125 C 16.601562 5.394531 16.65625 5.507812 16.6875 5.625 C 16.726562 5.738281 16.785156 5.867188 16.859375 6.015625 L 16.859375 7.984375 C 16.953125 8.179688 17.003906 8.332031 17.015625 8.4375 C 17.035156 8.550781 17.082031 8.6875 17.15625 8.84375 C 17.15625 9.488281 17.164062 10.128906 17.1875 10.765625 C 17.207031 11.398438 17.179688 12.066406 17.109375 12.765625 C 16.941406 12.835938 16.804688 12.890625 16.703125 12.921875 C 16.628906 12.847656 16.5625 12.78125 16.5 12.71875 C 16.4375 12.664062 16.382812 12.597656 16.34375 12.515625 C 16.3125 12.484375 16.296875 12.445312 16.296875 12.40625 L 16.296875 12.359375 C 16.296875 12.304688 16.285156 12.269531 16.265625 12.25 C 16.242188 12.238281 16.234375 12.210938 16.234375 12.171875 L 16.234375 4.0625 C 16.160156 3.832031 16.082031 3.613281 16 3.40625 C 15.925781 3.195312 15.890625 2.957031 15.890625 2.6875 C 15.890625 2.488281 15.753906 2.316406 15.484375 2.171875 C 15.179688 2.117188 14.9375 2.265625 14.75 2.609375 L 14.75 4.125 C 14.664062 4.226562 14.613281 4.335938 14.59375 4.453125 C 14.570312 4.578125 14.523438 4.71875 14.453125 4.875 L 14.453125 6.828125 C 14.378906 6.898438 14.332031 6.992188 14.3125 7.109375 C 14.300781 7.222656 14.25 7.351562 14.15625 7.5 C 14.125 7.820312 14.109375 8.125 14.109375 8.40625 C 14.109375 8.695312 14.109375 9 14.109375 9.3125 C 14.109375 9.414062 14.050781 9.46875 13.9375 9.46875 C 13.851562 9.46875 13.800781 9.453125 13.78125 9.421875 C 13.613281 9.304688 13.507812 9.160156 13.46875 8.984375 C 13.4375 8.804688 13.363281 8.660156 13.25 8.546875 L 13.25 6.71875 C 13.09375 6.40625 13 6.148438 12.96875 5.953125 L 12.96875 4.234375 C 13 4.160156 13.023438 4.066406 13.046875 3.953125 C 13.066406 3.835938 13.113281 3.703125 13.1875 3.546875 L 13.1875 0.796875 L 12.96875 0.3125 L 12.96875 -0.3125 C 12.914062 -0.46875 12.890625 -0.640625 12.890625 -0.828125 Z M 14.296875 19.84375 C 14.328125 19.789062 14.359375 19.753906 14.390625 19.734375 C 14.429688 19.710938 14.472656 19.6875 14.515625 19.65625 C 14.546875 19.613281 14.597656 19.515625 14.671875 19.359375 C 14.765625 18.597656 14.765625 17.867188 14.671875 17.171875 C 14.597656 16.984375 14.535156 16.8125 14.484375 16.65625 C 14.429688 16.507812 14.421875 16.335938 14.453125 16.140625 C 14.492188 15.941406 14.460938 15.75 14.359375 15.5625 C 14.265625 15.375 14.195312 15.1875 14.15625 15 C 14.125 14.726562 14.109375 14.476562 14.109375 14.25 C 14.109375 14.019531 14.109375 13.804688 14.109375 13.609375 C 14.035156 13.421875 13.976562 13.269531 13.9375 13.15625 C 13.90625 13.039062 13.863281 12.925781 13.8125 12.8125 C 13.789062 12.65625 13.785156 12.5 13.796875 12.34375 C 13.804688 12.195312 13.773438 12.066406 13.703125 11.953125 C 13.628906 11.953125 13.59375 11.96875 13.59375 12 C 13.550781 12.1875 13.519531 12.519531 13.5 13 C 13.488281 13.488281 13.484375 14.039062 13.484375 14.65625 C 13.484375 15.269531 13.488281 15.929688 13.5 16.640625 C 13.519531 17.347656 13.53125 18.046875 13.53125 18.734375 C 13.644531 18.929688 13.738281 19.132812 13.8125 19.34375 C 13.894531 19.550781 14.054688 19.71875 14.296875 19.84375 Z M 2.96875 -31.09375 L 2.96875 -31.046875 C 3.257812 -29.453125 3.40625 -28.550781 3.40625 -28.34375 L 3.40625 -27.9375 C 3.207031 -27.289062 3.019531 -26.96875 2.84375 -26.96875 L 2.296875 -26.96875 C 1.960938 -27.34375 1.796875 -27.664062 1.796875 -27.9375 C 2.222656 -29.070312 2.4375 -29.957031 2.4375 -30.59375 C 2.132812 -30.769531 2.3125 -30.9375 2.96875 -31.09375 Z M 2.25 -28.25 L 2.125 -28.25 L 2.125 -27.9375 C 2.125 -27.5625 2.269531 -27.328125 2.5625 -27.234375 L 2.703125 -27.28125 C 2.398438 -27.71875 2.25 -28.039062 2.25 -28.25 Z M 2.25 -28.25 "/></g></g><g transform="translate(23.668552, 186.675573)"><g><path d="M 18.34375 -0.453125 C 17.414062 -0.453125 16.953125 -0.957031 16.953125 -1.96875 L 16.953125 -2.53125 C 16.953125 -3.738281 16.785156 -4.953125 16.453125 -6.171875 C 16.285156 -6.765625 16.203125 -7.476562 16.203125 -8.3125 C 16.203125 -9.382812 16.335938 -10.65625 16.609375 -12.125 C 16.742188 -12.894531 16.8125 -13.582031 16.8125 -14.1875 C 16.8125 -15.625 16.316406 -16.648438 15.328125 -17.265625 C 14.347656 -17.878906 12.832031 -18.617188 10.78125 -19.484375 C 9.96875 -19.804688 9.347656 -19.96875 8.921875 -19.96875 C 8.460938 -19.96875 8.234375 -19.765625 8.234375 -19.359375 C 8.234375 -19.203125 8.273438 -18.992188 8.359375 -18.734375 C 8.578125 -18.128906 8.6875 -17.585938 8.6875 -17.109375 C 8.6875 -16.503906 8.519531 -16 8.1875 -15.59375 C 7.707031 -14.976562 7.46875 -14.125 7.46875 -13.03125 C 7.46875 -12.789062 7.476562 -12.535156 7.5 -12.265625 C 7.519531 -12.003906 7.53125 -11.753906 7.53125 -11.515625 C 7.53125 -10.347656 7.25 -9.28125 6.6875 -8.3125 C 6.125 -7.34375 5.722656 -5.925781 5.484375 -4.0625 C 5.242188 -2.34375 4.925781 -1.484375 4.53125 -1.484375 C 4.5 -1.484375 4.351562 -1.53125 4.09375 -1.625 C 3.84375 -1.71875 3.6875 -2.257812 3.625 -3.25 C 3.570312 -4.25 3.09375 -5.390625 2.1875 -6.671875 C 1.613281 -7.472656 1.328125 -8.25 1.328125 -9 C 1.328125 -9.4375 1.503906 -10.035156 1.859375 -10.796875 C 2.222656 -11.566406 2.425781 -12.828125 2.46875 -14.578125 C 2.507812 -16.335938 2.597656 -17.789062 2.734375 -18.9375 C 2.742188 -19.144531 2.75 -19.363281 2.75 -19.59375 C 2.75 -20.675781 2.523438 -22.070312 2.078125 -23.78125 C 1.785156 -24.832031 1.640625 -25.71875 1.640625 -26.4375 C 1.640625 -27.113281 1.769531 -27.628906 2.03125 -27.984375 C 2.300781 -28.335938 2.4375 -28.820312 2.4375 -29.4375 C 2.4375 -30.132812 2.285156 -30.992188 1.984375 -32.015625 C 1.847656 -32.484375 1.78125 -32.878906 1.78125 -33.203125 C 1.78125 -33.941406 2.148438 -34.3125 2.890625 -34.3125 C 3.203125 -34.3125 3.941406 -34.140625 5.109375 -33.796875 C 6.285156 -33.460938 7.078125 -32.78125 7.484375 -31.75 C 7.679688 -31.25 7.78125 -30.773438 7.78125 -30.328125 C 7.78125 -29.816406 7.660156 -29.328125 7.421875 -28.859375 C 7.179688 -28.390625 7.0625 -27.878906 7.0625 -27.328125 C 7.0625 -26.785156 7.222656 -26.03125 7.546875 -25.0625 C 7.878906 -24.101562 8.601562 -23.550781 9.71875 -23.40625 C 10.832031 -23.269531 12.648438 -22.914062 15.171875 -22.34375 C 16.992188 -21.914062 18.113281 -21.703125 18.53125 -21.703125 C 18.664062 -21.703125 18.734375 -21.726562 18.734375 -21.78125 C 18.734375 -21.8125 18.726562 -21.828125 18.71875 -21.828125 C 18.695312 -21.828125 18.6875 -21.816406 18.6875 -21.796875 C 18.6875 -21.628906 18.992188 -20.625 19.609375 -18.78125 C 20.109375 -17.226562 20.359375 -16.03125 20.359375 -15.1875 C 20.359375 -14.8125 20.3125 -14.503906 20.21875 -14.265625 C 19.9375 -13.566406 19.796875 -11.578125 19.796875 -8.296875 C 19.796875 -7.984375 19.800781 -6.773438 19.8125 -4.671875 C 19.832031 -2.578125 20.148438 -1.472656 20.765625 -1.359375 C 20.929688 -1.328125 21.015625 -1.28125 21.015625 -1.21875 C 21.015625 -1.082031 20.4375 -0.875 19.28125 -0.59375 C 18.925781 -0.5 18.613281 -0.453125 18.34375 -0.453125 Z M 5.203125 -2.9375 C 5.117188 -2.03125 4.859375 -0.960938 4.421875 0.265625 C 4.421875 3.691406 4.910156 7.335938 5.890625 11.203125 C 5.347656 12.085938 4.945312 12.554688 4.6875 12.609375 C 4.6875 12.554688 4.640625 12.53125 4.546875 12.53125 L 4.546875 13.125 L 3.875 13.125 C 3.695312 13.125 3.476562 12.925781 3.21875 12.53125 C 3.21875 12.351562 3.300781 12.265625 3.46875 12.265625 C 3.21875 11.898438 3.09375 11.546875 3.09375 11.203125 C 3.707031 6.453125 3.878906 2.273438 3.609375 -1.328125 C 3.609375 -2.035156 3.519531 -2.609375 3.34375 -3.046875 Z M 5.078125 10.125 C 5.078125 10.84375 4.945312 11.332031 4.6875 11.59375 L 4.6875 11.71875 L 4.9375 11.71875 C 5.113281 11.71875 5.203125 11.546875 5.203125 11.203125 L 5.203125 10.125 Z M 12.8125 -19.453125 C 12.289062 -17.585938 12.03125 -16.144531 12.03125 -15.125 L 12.03125 -11.953125 C 12.550781 -10.929688 13.085938 -10.421875 13.640625 -10.421875 L 13.640625 -9.78125 C 13.640625 -9.570312 13.59375 -9.398438 13.5 -9.265625 C 13.59375 -9.023438 13.640625 -8.789062 13.640625 -8.5625 L 13.640625 -8.1875 C 12.953125 -7.25 12.414062 -6.78125 12.03125 -6.78125 C 10.894531 -7.382812 10.515625 -8.363281 10.890625 -9.71875 C 11.441406 -10.363281 11.765625 -11.363281 11.859375 -12.71875 C 11.515625 -14.457031 11.363281 -16.597656 11.40625 -19.140625 L 11.40625 -19.65625 Z M 12.734375 -8.515625 C 12.398438 -7.960938 12.234375 -7.617188 12.234375 -7.484375 L 12.5625 -7.484375 C 12.675781 -7.484375 12.800781 -7.613281 12.9375 -7.875 C 12.851562 -8.007812 12.8125 -8.222656 12.8125 -8.515625 Z M 19.484375 3.765625 C 19.484375 4.171875 19.570312 4.582031 19.75 5 C 19.925781 5.425781 20.015625 5.679688 20.015625 5.765625 C 20.015625 6.296875 19.671875 6.5625 18.984375 6.5625 C 18.210938 6.5625 17.828125 5.582031 17.828125 3.625 C 17.828125 3.3125 18.316406 1.972656 19.296875 -0.390625 C 19.492188 1.328125 19.554688 2.710938 19.484375 3.765625 Z M 19.484375 3.765625 "/></g></g><g transform="translate(46.322734, 186.675573)"><g><path d="M 9.53125 0.765625 C 6.59375 0.765625 4.96875 0.113281 4.65625 -1.1875 C 4.34375 -2.5 4.015625 -3.617188 3.671875 -4.546875 C 3.335938 -5.484375 2.863281 -6.582031 2.25 -7.84375 C 1.789062 -8.800781 1.5625 -9.648438 1.5625 -10.390625 C 1.5625 -10.617188 1.613281 -11.003906 1.71875 -11.546875 C 1.832031 -12.085938 2.03125 -13.125 2.3125 -14.65625 C 2.601562 -16.195312 2.910156 -17.375 3.234375 -18.1875 C 3.554688 -19 4.722656 -20.015625 6.734375 -21.234375 C 8.546875 -22.316406 9.453125 -23.082031 9.453125 -23.53125 C 9.453125 -23.582031 9.4375 -23.632812 9.40625 -23.6875 C 9.375 -23.738281 9.359375 -23.785156 9.359375 -23.828125 C 9.359375 -23.960938 9.507812 -24.03125 9.8125 -24.03125 C 10.09375 -24.03125 10.71875 -23.914062 11.6875 -23.6875 C 12.65625 -23.46875 14.085938 -23.101562 15.984375 -22.59375 C 17.890625 -22.082031 18.960938 -21.304688 19.203125 -20.265625 C 19.367188 -19.554688 19.453125 -18.773438 19.453125 -17.921875 C 19.453125 -17.484375 19.429688 -17.023438 19.390625 -16.546875 L 19.359375 -15.828125 C 19.359375 -14.679688 19.59375 -13.644531 20.0625 -12.71875 C 20.1875 -12.476562 20.25 -12.273438 20.25 -12.109375 C 20.25 -11.671875 19.875 -11.453125 19.125 -11.453125 C 18.738281 -11.453125 18.265625 -11.515625 17.703125 -11.640625 C 16.585938 -11.847656 15.695312 -11.953125 15.03125 -11.953125 C 14.414062 -11.953125 13.992188 -11.859375 13.765625 -11.671875 C 13.546875 -11.492188 13.132812 -11.40625 12.53125 -11.40625 C 11.8125 -11.40625 10.820312 -11.535156 9.5625 -11.796875 C 9.195312 -11.867188 8.863281 -11.90625 8.5625 -11.90625 C 6.851562 -11.90625 5.851562 -10.816406 5.5625 -8.640625 C 5.507812 -8.234375 5.484375 -7.847656 5.484375 -7.484375 C 5.484375 -5.609375 6.25 -4.457031 7.78125 -4.03125 C 9.4375 -3.570312 11.085938 -3.34375 12.734375 -3.34375 C 12.867188 -3.34375 13.421875 -3.351562 14.390625 -3.375 C 15.359375 -3.394531 15.875 -3.71875 15.9375 -4.34375 C 15.957031 -4.539062 16.023438 -4.640625 16.140625 -4.640625 C 16.398438 -4.640625 16.867188 -4.195312 17.546875 -3.3125 C 18.234375 -2.425781 18.578125 -1.832031 18.578125 -1.53125 C 18.578125 -1.363281 18.488281 -1.28125 18.3125 -1.28125 C 17.84375 -1.25 17.609375 -1.03125 17.609375 -0.625 L 17.609375 -0.46875 C 17.609375 0.0195312 15.554688 0.410156 11.453125 0.703125 C 10.765625 0.742188 10.125 0.765625 9.53125 0.765625 Z M 13.28125 -13.34375 C 13.695312 -13.34375 13.90625 -13.546875 13.90625 -13.953125 C 13.90625 -14.046875 13.847656 -14.367188 13.734375 -14.921875 C 13.628906 -15.484375 13.378906 -16.359375 12.984375 -17.546875 C 12.597656 -18.734375 12.257812 -19.566406 11.96875 -20.046875 C 11.726562 -20.421875 11.40625 -20.609375 11 -20.609375 C 10.894531 -20.609375 10.671875 -20.566406 10.328125 -20.484375 C 9.984375 -20.398438 9.394531 -20.050781 8.5625 -19.4375 C 8.070312 -19.0625 7.828125 -18.488281 7.828125 -17.71875 C 7.828125 -17.21875 7.929688 -16.632812 8.140625 -15.96875 C 8.578125 -14.613281 8.882812 -13.9375 9.0625 -13.9375 C 9.125 -13.9375 9.171875 -13.976562 9.203125 -14.0625 C 9.253906 -14.25 9.429688 -14.34375 9.734375 -14.34375 C 10.171875 -14.34375 10.863281 -14.140625 11.8125 -13.734375 C 12.445312 -13.472656 12.9375 -13.34375 13.28125 -13.34375 Z M 17.5 -0.859375 L 17.5 -0.671875 C 17.5 -0.492188 17.4375 -0.332031 17.3125 -0.1875 C 17.3125 0 17.300781 0.1875 17.28125 0.375 C 17.269531 0.570312 17.265625 0.773438 17.265625 0.984375 C 17.203125 1.171875 17.144531 1.335938 17.09375 1.484375 C 17.09375 1.640625 17.082031 1.816406 17.0625 2.015625 C 17.050781 2.222656 17.046875 2.445312 17.046875 2.6875 C 17.015625 2.738281 16.984375 2.8125 16.953125 2.90625 C 16.921875 3 16.875 3.117188 16.8125 3.265625 L 16.8125 4.3125 C 16.757812 4.425781 16.722656 4.519531 16.703125 4.59375 C 16.691406 4.675781 16.65625 4.757812 16.59375 4.84375 C 16.59375 5.03125 16.59375 5.21875 16.59375 5.40625 C 16.59375 5.59375 16.578125 5.789062 16.546875 6 C 16.515625 6.113281 16.484375 6.222656 16.453125 6.328125 C 16.421875 6.441406 16.394531 6.554688 16.375 6.671875 C 16.34375 6.796875 16.332031 6.914062 16.34375 7.03125 C 16.363281 7.15625 16.328125 7.257812 16.234375 7.34375 C 16.171875 7.289062 16.140625 7.234375 16.140625 7.171875 C 16.109375 7.015625 16.09375 6.851562 16.09375 6.6875 C 16.09375 6.53125 16.09375 6.375 16.09375 6.21875 L 16.09375 0.71875 C 16.03125 0.65625 15.984375 0.601562 15.953125 0.5625 C 15.929688 0.519531 15.890625 0.484375 15.828125 0.453125 C 15.703125 0.328125 15.582031 0.28125 15.46875 0.3125 Z M 8.234375 -1.640625 C 8.066406 -0.816406 7.984375 -0.0976562 7.984375 0.515625 C 7.453125 1.160156 7.1875 2.160156 7.1875 3.515625 C 7.144531 8.503906 7.445312 11.523438 8.09375 12.578125 C 8.132812 12.921875 8.15625 13.175781 8.15625 13.34375 C 7.988281 14.175781 7.554688 14.59375 6.859375 14.59375 L 6.671875 14.59375 C 5.710938 14.59375 5.1875 13.957031 5.09375 12.6875 C 5.09375 12.4375 5.460938 11.851562 6.203125 10.9375 C 6.335938 10.425781 6.445312 7.625 6.53125 2.53125 C 6.53125 2.09375 6.1875 1.421875 5.5 0.515625 C 5.457031 0.378906 5.4375 0.226562 5.4375 0.0625 L 5.4375 -0.34375 C 5.300781 -0.34375 6.234375 -0.773438 8.234375 -1.640625 Z M 12.46875 -11.265625 L 12.734375 -11.265625 C 12.828125 -10.242188 12.875 -9.503906 12.875 -9.046875 C 12.875 -8.859375 12.785156 -8.765625 12.609375 -8.765625 L 12.46875 -8.765625 C 12.289062 -8.765625 12.203125 -8.898438 12.203125 -9.171875 C 12.203125 -9.578125 12.289062 -10.273438 12.46875 -11.265625 Z M 12.46875 -11.265625 "/></g></g><g transform="translate(67.646969, 186.675573)"><g/></g><g transform="translate(84.417826, 186.675573)"><g><path d="M 10.75 -0.625 C 9.96875 -0.625 9.394531 -1.191406 9.03125 -2.328125 C 8.664062 -3.460938 7.65625 -5.535156 6 -8.546875 C 4.84375 -10.609375 4.265625 -11.914062 4.265625 -12.46875 C 4.265625 -12.664062 4.335938 -12.765625 4.484375 -12.765625 L 4.625 -12.734375 C 4.800781 -12.691406 4.96875 -12.671875 5.125 -12.671875 C 5.644531 -12.671875 5.90625 -12.972656 5.90625 -13.578125 C 5.90625 -14.191406 5.535156 -15.113281 4.796875 -16.34375 C 4.285156 -17.195312 4.03125 -18.046875 4.03125 -18.890625 C 4.03125 -19.390625 4.125 -19.882812 4.3125 -20.375 C 4.445312 -20.769531 4.515625 -21.15625 4.515625 -21.53125 C 4.515625 -22.445312 4.035156 -23.421875 3.078125 -24.453125 C 2.117188 -25.492188 1.429688 -26.859375 1.015625 -28.546875 C 0.890625 -28.992188 0.828125 -29.398438 0.828125 -29.765625 C 0.828125 -30.722656 1.257812 -31.328125 2.125 -31.578125 C 2.332031 -31.640625 2.539062 -31.671875 2.75 -31.671875 C 3.738281 -31.671875 4.828125 -31.003906 6.015625 -29.671875 C 7.054688 -28.460938 7.578125 -27.546875 7.578125 -26.921875 C 7.578125 -26.679688 7.398438 -26.359375 7.046875 -25.953125 C 6.691406 -25.554688 6.515625 -24.457031 6.515625 -22.65625 C 6.515625 -21.101562 6.789062 -19.929688 7.34375 -19.140625 C 7.90625 -18.359375 8.253906 -16.984375 8.390625 -15.015625 C 8.523438 -13.054688 9.257812 -11.019531 10.59375 -8.90625 C 11.394531 -7.644531 12.019531 -7.015625 12.46875 -7.015625 C 12.769531 -7.015625 13.039062 -7.523438 13.28125 -8.546875 C 13.53125 -9.578125 14 -10.878906 14.6875 -12.453125 C 15.382812 -14.023438 15.859375 -15.445312 16.109375 -16.71875 C 16.367188 -17.988281 16.703125 -19.597656 17.109375 -21.546875 C 17.503906 -23.429688 17.703125 -24.941406 17.703125 -26.078125 L 17.703125 -26.4375 C 17.703125 -27.46875 17.882812 -28.320312 18.25 -29 C 18.613281 -29.6875 20.046875 -30.320312 22.546875 -30.90625 C 23.171875 -31.0625 23.703125 -31.140625 24.140625 -31.140625 C 25.109375 -31.140625 25.59375 -30.773438 25.59375 -30.046875 C 25.59375 -29.804688 25.425781 -29.175781 25.09375 -28.15625 C 24.757812 -27.132812 24.195312 -25.867188 23.40625 -24.359375 C 22.625 -22.847656 22.054688 -21.703125 21.703125 -20.921875 C 21.347656 -20.140625 21.007812 -19.210938 20.6875 -18.140625 C 20.375 -17.078125 19.96875 -15.476562 19.46875 -13.34375 C 18.976562 -11.207031 18.15625 -9.945312 17 -9.5625 C 16.25 -9.289062 15.875 -8.816406 15.875 -8.140625 C 15.875 -7.765625 15.984375 -7.328125 16.203125 -6.828125 C 16.421875 -6.335938 16.53125 -5.859375 16.53125 -5.390625 C 16.53125 -4.578125 16.085938 -3.753906 15.203125 -2.921875 C 14.328125 -2.085938 13.207031 -1.398438 11.84375 -0.859375 C 11.445312 -0.703125 11.082031 -0.625 10.75 -0.625 Z M 6.78125 -10.59375 C 6.1875 -8.382812 5.890625 -6.679688 5.890625 -5.484375 L 5.890625 -1.71875 C 6.484375 -0.507812 7.113281 0.09375 7.78125 0.09375 L 7.78125 0.859375 C 7.78125 1.109375 7.726562 1.3125 7.625 1.46875 C 7.726562 1.769531 7.78125 2.039062 7.78125 2.28125 L 7.78125 2.734375 C 6.96875 3.835938 6.335938 4.390625 5.890625 4.390625 C 4.535156 3.691406 4.082031 2.535156 4.53125 0.921875 C 5.175781 0.171875 5.550781 -1.003906 5.65625 -2.609375 C 5.25 -4.671875 5.078125 -7.207031 5.140625 -10.21875 L 5.140625 -10.828125 Z M 6.71875 2.375 C 6.3125 3.019531 6.109375 3.414062 6.109375 3.5625 L 6.5 3.5625 C 6.644531 3.5625 6.789062 3.410156 6.9375 3.109375 C 6.832031 2.960938 6.78125 2.71875 6.78125 2.375 Z M 15.84375 -5.15625 L 16.53125 -4.421875 L 16.9375 -3.34375 C 16.84375 -3.34375 16.796875 -3.207031 16.796875 -2.9375 L 16.796875 -2.734375 C 16.796875 -2.367188 16.726562 -1.945312 16.59375 -1.46875 C 16.457031 -1 16.523438 0.289062 16.796875 2.40625 L 16.796875 5.328125 C 16.660156 6.753906 16.59375 7.671875 16.59375 8.078125 L 16.59375 8.28125 C 16.59375 8.59375 16.640625 9.15625 16.734375 9.96875 C 16.734375 10.414062 16.800781 10.863281 16.9375 11.3125 C 17.113281 11.988281 17.269531 12.625 17.40625 13.21875 C 17.539062 13.882812 17.609375 14.3125 17.609375 14.5 C 17.609375 14.769531 17.585938 14.945312 17.546875 15.03125 C 17.316406 15.4375 16.976562 15.640625 16.53125 15.640625 C 16.164062 15.640625 15.867188 15.503906 15.640625 15.234375 C 15.460938 15.015625 15.375 14.742188 15.375 14.421875 L 15.375 14.296875 C 15.375 14.109375 15.507812 13.703125 15.78125 13.078125 C 16.09375 11.992188 16.25 10.929688 16.25 9.890625 C 16.34375 8.953125 16.390625 8.300781 16.390625 7.9375 L 16.390625 6.71875 C 16.390625 6.238281 16.273438 5.457031 16.046875 4.375 C 15.910156 3.46875 15.84375 2.585938 15.84375 1.734375 L 15.84375 1.59375 L 15.984375 0.1875 L 15.984375 -0.5625 L 16.046875 -2.390625 L 16.046875 -2.59375 C 16.046875 -2.957031 15.976562 -3.8125 15.84375 -5.15625 Z M 23.921875 -23.265625 C 23.921875 -22.628906 24.023438 -21.945312 24.234375 -21.21875 C 24.410156 -20.882812 24.5 -20.644531 24.5 -20.5 L 24.5 -20.453125 C 24.5 -20.234375 24.457031 -20.050781 24.375 -19.90625 C 24.21875 -19.726562 24.019531 -19.640625 23.78125 -19.640625 C 23.601562 -19.640625 23.4375 -19.757812 23.28125 -20 C 23.164062 -20.082031 23.109375 -20.203125 23.109375 -20.359375 C 23.109375 -20.453125 23.164062 -20.722656 23.28125 -21.171875 C 23.375 -21.554688 23.46875 -21.9375 23.5625 -22.3125 C 23.625 -22.675781 23.65625 -22.976562 23.65625 -23.21875 Z M 23.921875 -23.265625 "/></g></g><g transform="translate(109.86715, 186.675573)"><g><path d="M 18.875 0.71875 C 18.5 0.71875 17.972656 0.253906 17.296875 -0.671875 C 16.515625 -1.753906 15.484375 -2.296875 14.203125 -2.296875 C 13.140625 -2.296875 11.890625 -1.914062 10.453125 -1.15625 C 8.515625 -0.101562 7.171875 0.421875 6.421875 0.421875 C 5.972656 0.421875 5.726562 0.0703125 5.6875 -0.625 C 5.65625 -1.320312 5.082031 -2.234375 3.96875 -3.359375 C 3.414062 -3.910156 3.140625 -4.660156 3.140625 -5.609375 C 3.140625 -6.585938 3.5625 -8.109375 4.40625 -10.171875 C 5.257812 -12.242188 6.238281 -13.476562 7.34375 -13.875 C 8.457031 -14.269531 9.03125 -14.488281 9.0625 -14.53125 C 9.09375 -14.570312 9.875 -14.628906 11.40625 -14.703125 C 12.9375 -14.773438 13.921875 -15.265625 14.359375 -16.171875 C 14.492188 -16.441406 14.5625 -16.738281 14.5625 -17.0625 C 14.5625 -17.789062 14.21875 -18.625 13.53125 -19.5625 C 12.914062 -20.40625 12.148438 -20.828125 11.234375 -20.828125 C 10.660156 -20.828125 9.75 -20.535156 8.5 -19.953125 C 7.25 -19.367188 6.179688 -18.929688 5.296875 -18.640625 C 4.097656 -18.253906 3.4375 -18.0625 3.3125 -18.0625 C 3.132812 -18.0625 3.046875 -18.265625 3.046875 -18.671875 C 3.046875 -18.972656 3.128906 -19.578125 3.296875 -20.484375 C 3.460938 -21.390625 4.015625 -22.050781 4.953125 -22.46875 C 5.898438 -22.882812 7.234375 -23.585938 8.953125 -24.578125 C 10.035156 -25.191406 10.890625 -25.5 11.515625 -25.5 C 11.878906 -25.5 12.265625 -25.3125 12.671875 -24.9375 C 13.085938 -24.5625 13.515625 -24.113281 13.953125 -23.59375 C 14.390625 -23.070312 14.929688 -22.382812 15.578125 -21.53125 C 16.222656 -20.675781 16.75 -20.15625 17.15625 -19.96875 C 17.570312 -19.789062 18.066406 -18.785156 18.640625 -16.953125 C 18.867188 -16.210938 18.984375 -15.519531 18.984375 -14.875 C 18.984375 -13.914062 18.734375 -13.0625 18.234375 -12.3125 C 17.828125 -11.707031 17.625 -11.023438 17.625 -10.265625 C 17.625 -9.421875 17.863281 -8.488281 18.34375 -7.46875 C 19.1875 -5.675781 19.609375 -3.757812 19.609375 -1.71875 C 19.609375 -0.09375 19.363281 0.71875 18.875 0.71875 Z M 9.265625 -4.21875 C 9.335938 -4.21875 9.488281 -4.226562 9.71875 -4.25 C 9.957031 -4.269531 10.722656 -5.109375 12.015625 -6.765625 C 13.003906 -8.023438 13.5 -9.242188 13.5 -10.421875 C 13.5 -10.773438 13.457031 -11.125 13.375 -11.46875 C 13.039062 -12.675781 12.554688 -13.28125 11.921875 -13.28125 C 11.472656 -13.28125 10.054688 -12.601562 7.671875 -11.25 C 6.316406 -10.476562 5.640625 -9.914062 5.640625 -9.5625 C 5.640625 -9.488281 5.75 -9.351562 5.96875 -9.15625 C 6.195312 -8.957031 6.691406 -8.148438 7.453125 -6.734375 C 8.222656 -5.328125 8.648438 -4.554688 8.734375 -4.421875 C 8.828125 -4.285156 9.003906 -4.21875 9.265625 -4.21875 Z M 18.578125 -0.109375 C 18.546875 -0.0664062 18.492188 -0.03125 18.421875 0 C 18.347656 0.445312 18.320312 0.875 18.34375 1.28125 C 18.363281 1.6875 18.375 2.09375 18.375 2.5 C 18.4375 2.757812 18.503906 2.976562 18.578125 3.15625 C 18.648438 3.332031 18.671875 3.519531 18.640625 3.71875 C 18.597656 3.894531 18.613281 4.054688 18.6875 4.203125 C 18.757812 4.359375 18.835938 4.53125 18.921875 4.71875 L 18.921875 6.15625 C 18.835938 6.257812 18.785156 6.367188 18.765625 6.484375 C 18.753906 6.597656 18.710938 6.722656 18.640625 6.859375 L 18.640625 8.6875 C 18.597656 8.800781 18.554688 8.910156 18.515625 9.015625 C 18.484375 9.117188 18.4375 9.25 18.375 9.40625 L 18.375 16.328125 C 18.65625 16.878906 18.722656 17.390625 18.578125 17.859375 C 18.578125 17.929688 18.539062 17.96875 18.46875 17.96875 L 18.375 17.921875 C 18.226562 17.773438 18.128906 17.648438 18.078125 17.546875 C 18.078125 17.359375 18.039062 17.1875 17.96875 17.03125 C 17.90625 16.882812 17.851562 16.722656 17.8125 16.546875 L 17.8125 13.21875 C 17.882812 12.925781 17.957031 12.707031 18.03125 12.5625 L 18.03125 9.734375 C 17.988281 9.660156 17.957031 9.566406 17.9375 9.453125 C 17.925781 9.335938 17.882812 9.210938 17.8125 9.078125 L 17.8125 7.421875 C 17.851562 7.316406 17.890625 7.207031 17.921875 7.09375 C 17.953125 6.976562 17.988281 6.847656 18.03125 6.703125 L 18.03125 3.65625 C 17.957031 3.289062 17.816406 2.988281 17.609375 2.75 C 17.410156 2.507812 17.238281 2.238281 17.09375 1.9375 L 16.75 1.9375 C 16.6875 2.113281 16.617188 2.289062 16.546875 2.46875 C 16.472656 2.644531 16.398438 2.835938 16.328125 3.046875 L 16.328125 9.078125 C 16.140625 9.296875 16.046875 9.523438 16.046875 9.765625 C 16.046875 10.003906 16.007812 10.210938 15.9375 10.390625 C 15.738281 10.515625 15.570312 10.515625 15.4375 10.390625 L 14.953125 9.890625 C 14.953125 9.816406 14.9375 9.742188 14.90625 9.671875 C 14.882812 9.609375 14.875 9.539062 14.875 9.46875 C 14.84375 9.269531 14.859375 9.085938 14.921875 8.921875 C 14.992188 8.765625 15.070312 8.554688 15.15625 8.296875 L 15.15625 3.34375 C 15.226562 3.1875 15.273438 3.054688 15.296875 2.953125 C 15.316406 2.859375 15.363281 2.757812 15.4375 2.65625 L 15.4375 -0.15625 C 15.539062 -0.382812 15.640625 -0.597656 15.734375 -0.796875 C 15.828125 -1.003906 15.910156 -1.195312 15.984375 -1.375 L 15.984375 -1.71875 Z M 5.8125 -3.3125 L 7.421875 -3.203125 C 7.316406 -2.796875 7.265625 -2.335938 7.265625 -1.828125 L 6.71875 0.71875 C 6.71875 1.789062 6.695312 2.800781 6.65625 3.75 C 6.769531 4.175781 6.890625 4.390625 7.015625 4.390625 C 6.960938 4.546875 6.863281 4.84375 6.71875 5.28125 L 7.734375 8.84375 C 7.441406 9.664062 7.175781 10.078125 6.9375 10.078125 L 6.359375 10.078125 C 5.648438 9.640625 5.296875 9.144531 5.296875 8.59375 C 5.296875 8.539062 5.46875 8.066406 5.8125 7.171875 C 5.78125 7.015625 5.765625 6.914062 5.765625 6.875 C 6.003906 6.875 6.101562 5.273438 6.0625 2.078125 C 6.0625 0.0546875 6.023438 -1.109375 5.953125 -1.421875 C 5.953125 -2.128906 5.90625 -2.757812 5.8125 -3.3125 Z M 5.765625 8.296875 L 5.703125 8.296875 L 5.703125 8.65625 C 5.742188 9.320312 6.101562 9.65625 6.78125 9.65625 L 6.9375 9.65625 L 6.9375 9.359375 C 6.425781 8.960938 6.171875 8.707031 6.171875 8.59375 L 6.0625 8.59375 C 6.0625 8.78125 5.960938 8.875 5.765625 8.875 Z M 5.28125 -16.59375 C 5.332031 -16.195312 5.207031 -15.738281 4.90625 -15.21875 C 4.613281 -14.707031 4.347656 -14.523438 4.109375 -14.671875 C 3.566406 -14.960938 3.457031 -15.394531 3.78125 -15.96875 C 4 -16.382812 4.269531 -17.054688 4.59375 -17.984375 C 4.78125 -17.742188 5.007812 -17.28125 5.28125 -16.59375 Z M 5.28125 -16.59375 "/></g></g><g transform="translate(131.980337, 186.675573)"><g><path d="M 5.03125 0.015625 C 4.757812 0.015625 4.476562 -0.00390625 4.1875 -0.046875 C 2.375 -0.285156 1.46875 -0.800781 1.46875 -1.59375 C 1.46875 -1.925781 1.609375 -2.296875 1.890625 -2.703125 C 2.640625 -3.753906 3.015625 -4.597656 3.015625 -5.234375 C 3.015625 -5.453125 2.960938 -5.644531 2.859375 -5.8125 C 2.484375 -6.414062 2.296875 -7.476562 2.296875 -9 L 2.296875 -10.328125 C 2.296875 -11.148438 1.9375 -12.625 1.21875 -14.75 C 0.945312 -15.53125 0.8125 -16.300781 0.8125 -17.0625 C 0.8125 -18.34375 1.304688 -19.765625 2.296875 -21.328125 C 3.484375 -23.234375 5.019531 -24.1875 6.90625 -24.1875 C 7.65625 -24.1875 8.039062 -23.9375 8.0625 -23.4375 C 8.082031 -22.9375 8.316406 -22.6875 8.765625 -22.6875 C 8.972656 -22.6875 9.234375 -22.738281 9.546875 -22.84375 C 9.859375 -22.957031 10.257812 -23.015625 10.75 -23.015625 C 11.6875 -23.015625 13.125 -22.75 15.0625 -22.21875 C 17 -21.6875 18.144531 -21.046875 18.5 -20.296875 C 18.851562 -19.554688 19.078125 -18.46875 19.171875 -17.03125 C 19.273438 -15.59375 19.535156 -14.273438 19.953125 -13.078125 C 20.597656 -11.140625 20.921875 -8.375 20.921875 -4.78125 C 20.921875 -4.34375 20.90625 -3.546875 20.875 -2.390625 C 20.84375 -1.242188 20.082031 -0.5 18.59375 -0.15625 C 18.375 -0.09375 18.164062 -0.0625 17.96875 -0.0625 C 16.820312 -0.0625 16.078125 -0.9375 15.734375 -2.6875 C 15.554688 -3.570312 15.46875 -4.335938 15.46875 -4.984375 C 15.46875 -5.804688 15.617188 -6.429688 15.921875 -6.859375 C 16.171875 -7.210938 16.296875 -7.675781 16.296875 -8.25 C 16.296875 -8.851562 16.082031 -9.773438 15.65625 -11.015625 C 15.226562 -12.265625 14.75 -13.828125 14.21875 -15.703125 C 13.695312 -17.578125 13.300781 -18.929688 13.03125 -19.765625 C 12.832031 -20.335938 12.367188 -20.625 11.640625 -20.625 C 9.398438 -20.625 8.132812 -19.742188 7.84375 -17.984375 C 7.675781 -16.984375 7.59375 -16.453125 7.59375 -16.390625 L 7.625 -16.390625 L 7.625 -16.4375 L 6.734375 -14.390625 C 6.484375 -13.753906 6.359375 -13.113281 6.359375 -12.46875 C 6.359375 -11.59375 6.609375 -10.710938 7.109375 -9.828125 C 7.859375 -8.472656 8.234375 -6.671875 8.234375 -4.421875 L 8.203125 -3.546875 C 8.097656 -1.171875 7.039062 0.015625 5.03125 0.015625 Z M 11.1875 -20.859375 C 10.820312 -20.722656 10.640625 -20.351562 10.640625 -19.75 C 10.328125 -18.832031 10.144531 -18.085938 10.09375 -17.515625 C 10.289062 -16.390625 10.390625 -15.707031 10.390625 -15.46875 C 10.242188 -14.65625 10.171875 -14.148438 10.171875 -13.953125 L 10.171875 -13.59375 C 10.171875 -13.019531 10.410156 -11.648438 10.890625 -9.484375 L 10.890625 -9.25 C 10.765625 -8.4375 10.441406 -8.03125 9.921875 -8.03125 C 9.273438 -8.03125 8.953125 -8.59375 8.953125 -9.71875 C 9.265625 -10.769531 9.503906 -12.144531 9.671875 -13.84375 C 9.671875 -14.15625 9.632812 -14.816406 9.5625 -15.828125 C 9.632812 -16.992188 9.671875 -17.675781 9.671875 -17.875 C 9.304688 -19.53125 8.984375 -20.523438 8.703125 -20.859375 Z M 19.09375 -0.875 C 19 -0.832031 18.929688 -0.765625 18.890625 -0.671875 C 18.796875 -0.460938 18.71875 -0.238281 18.65625 0 C 18.601562 0.238281 18.53125 0.492188 18.4375 0.765625 L 18.4375 7.625 C 18.394531 7.800781 18.347656 7.953125 18.296875 8.078125 C 18.253906 8.210938 18.191406 8.367188 18.109375 8.546875 L 18.109375 10.171875 C 18.148438 10.253906 18.191406 10.351562 18.234375 10.46875 C 18.285156 10.582031 18.351562 10.722656 18.4375 10.890625 C 18.53125 12.148438 18.53125 13.410156 18.4375 14.671875 C 18.21875 15.078125 18 15.28125 17.78125 15.28125 C 17.695312 15.3125 17.613281 15.316406 17.53125 15.296875 C 17.445312 15.285156 17.359375 15.28125 17.265625 15.28125 C 17.390625 14.757812 17.453125 14.300781 17.453125 13.90625 C 17.421875 13.082031 17.410156 12.273438 17.421875 11.484375 C 17.441406 10.691406 17.453125 9.882812 17.453125 9.0625 C 17.453125 8.96875 17.441406 8.859375 17.421875 8.734375 C 17.410156 8.609375 17.40625 8.5 17.40625 8.40625 L 16.9375 7.953125 C 17.019531 7.867188 17.125 7.78125 17.25 7.6875 C 17.382812 7.59375 17.492188 7.503906 17.578125 7.421875 C 17.628906 7.335938 17.675781 7.25 17.71875 7.15625 C 17.757812 7.070312 17.78125 6.988281 17.78125 6.90625 L 17.78125 0.421875 C 17.78125 0.335938 17.738281 0.210938 17.65625 0.046875 C 17.5625 -0.179688 17.429688 -0.363281 17.265625 -0.5 C 17.085938 -0.613281 16.929688 -0.765625 16.796875 -0.953125 Z M 5.796875 2.765625 C 5.796875 3.085938 5.863281 3.40625 6 3.71875 C 6.132812 4.03125 6.203125 4.21875 6.203125 4.28125 C 6.203125 4.675781 5.945312 4.875 5.4375 4.875 C 4.863281 4.875 4.578125 4.144531 4.578125 2.6875 C 4.578125 2.445312 4.9375 1.453125 5.65625 -0.296875 C 5.8125 0.960938 5.859375 1.984375 5.796875 2.765625 Z M 5.796875 2.765625 "/></g></g><g transform="translate(154.431645, 186.675573)"><g><path d="M 3.765625 -0.0625 C 3.253906 -0.0625 3 -0.398438 3 -1.078125 L 3.015625 -3.15625 L 3 -5.59375 C 3 -6.988281 3.132812 -9.195312 3.40625 -12.21875 C 3.539062 -13.632812 3.609375 -14.785156 3.609375 -15.671875 C 3.609375 -16.859375 3.445312 -17.613281 3.125 -17.9375 C 2.800781 -18.257812 2.59375 -19.117188 2.5 -20.515625 L 2.5 -20.671875 C 2.5 -21.984375 3.597656 -22.914062 5.796875 -23.46875 C 6.535156 -23.644531 7.128906 -23.734375 7.578125 -23.734375 C 8.335938 -23.734375 8.71875 -23.488281 8.71875 -23 C 8.71875 -22.863281 8.691406 -22.710938 8.640625 -22.546875 C 8.453125 -21.960938 8.359375 -21.171875 8.359375 -20.171875 C 8.359375 -19.203125 8.453125 -18.015625 8.640625 -16.609375 C 8.773438 -15.609375 8.84375 -14.753906 8.84375 -14.046875 C 8.84375 -12.796875 8.640625 -12.015625 8.234375 -11.703125 C 7.972656 -11.503906 7.84375 -11.171875 7.84375 -10.703125 C 7.84375 -10.015625 8.125 -9.046875 8.6875 -7.796875 C 9.25 -6.546875 9.53125 -5.53125 9.53125 -4.75 C 9.53125 -4.195312 9.289062 -3.648438 8.8125 -3.109375 C 8.332031 -2.566406 7.238281 -1.78125 5.53125 -0.75 C 4.757812 -0.289062 4.171875 -0.0625 3.765625 -0.0625 Z M 4.828125 -30.390625 C 2.804688 -30.390625 1.796875 -30.75 1.796875 -31.46875 C 1.796875 -31.675781 2.019531 -32.125 2.46875 -32.8125 C 2.914062 -33.5 3.691406 -34.0625 4.796875 -34.5 C 5.035156 -34.582031 5.265625 -34.625 5.484375 -34.625 C 6.242188 -34.625 6.835938 -33.988281 7.265625 -32.71875 C 7.347656 -32.414062 7.390625 -32.144531 7.390625 -31.90625 C 7.390625 -30.894531 6.535156 -30.390625 4.828125 -30.390625 Z M 4.3125 -2.078125 L 4.890625 -1.421875 L 5.25 -0.453125 C 5.175781 -0.453125 5.140625 -0.332031 5.140625 -0.09375 L 5.140625 0.09375 C 5.140625 0.40625 5.078125 0.769531 4.953125 1.1875 C 4.835938 1.613281 4.898438 2.765625 5.140625 4.640625 L 5.140625 7.21875 C 5.015625 8.488281 4.953125 9.304688 4.953125 9.671875 L 4.953125 9.859375 C 4.953125 10.140625 4.992188 10.640625 5.078125 11.359375 C 5.078125 11.753906 5.132812 12.15625 5.25 12.5625 C 5.414062 13.15625 5.5625 13.71875 5.6875 14.25 C 5.800781 14.832031 5.859375 15.207031 5.859375 15.375 C 5.859375 15.613281 5.835938 15.769531 5.796875 15.84375 C 5.597656 16.207031 5.296875 16.390625 4.890625 16.390625 C 4.578125 16.390625 4.320312 16.269531 4.125 16.03125 C 3.957031 15.832031 3.875 15.59375 3.875 15.3125 L 3.875 15.1875 C 3.875 15.03125 3.992188 14.671875 4.234375 14.109375 C 4.503906 13.148438 4.640625 12.210938 4.640625 11.296875 C 4.734375 10.453125 4.78125 9.875 4.78125 9.5625 L 4.78125 8.484375 C 4.78125 8.046875 4.675781 7.34375 4.46875 6.375 C 4.363281 5.582031 4.3125 4.800781 4.3125 4.03125 L 4.3125 3.921875 L 4.421875 2.65625 L 4.421875 2 L 4.46875 0.390625 L 4.46875 0.203125 C 4.46875 -0.109375 4.414062 -0.867188 4.3125 -2.078125 Z M 6.5625 -27.9375 C 6.5625 -27.695312 6.453125 -27.441406 6.234375 -27.171875 C 6.023438 -26.898438 5.816406 -26.75 5.609375 -26.71875 C 5.304688 -26.6875 5.15625 -27.09375 5.15625 -27.9375 C 5.15625 -28.113281 5.320312 -28.8125 5.65625 -30.03125 C 5.8125 -29.582031 6 -29.117188 6.21875 -28.640625 C 6.445312 -28.171875 6.5625 -27.9375 6.5625 -27.9375 Z M 6.5625 -27.9375 "/></g></g><g transform="translate(164.868348, 186.675573)"><g><path d="M 9.28125 0.34375 C 8.613281 0.34375 7.957031 0.175781 7.3125 -0.15625 C 6.675781 -0.5 6.019531 -1.046875 5.34375 -1.796875 C 4.675781 -2.554688 3.710938 -3.789062 2.453125 -5.5 C 1.878906 -6.269531 1.59375 -6.816406 1.59375 -7.140625 C 1.59375 -7.410156 1.773438 -7.546875 2.140625 -7.546875 C 2.335938 -7.546875 2.894531 -7.421875 3.8125 -7.171875 C 4.726562 -6.929688 5.300781 -6.367188 5.53125 -5.484375 C 5.769531 -4.609375 6.453125 -4.039062 7.578125 -3.78125 C 7.878906 -3.707031 8.1875 -3.671875 8.5 -3.671875 C 9.34375 -3.671875 10.222656 -3.921875 11.140625 -4.421875 C 12.359375 -5.046875 12.96875 -6.265625 12.96875 -8.078125 C 12.96875 -8.148438 12.953125 -8.675781 12.921875 -9.65625 C 12.898438 -10.644531 12.109375 -11.257812 10.546875 -11.5 C 9.679688 -11.613281 9.0625 -11.671875 8.6875 -11.671875 C 8.414062 -11.671875 8.28125 -11.644531 8.28125 -11.59375 L 8.28125 -11.546875 C 8.28125 -11.515625 8.25 -11.5 8.1875 -11.5 C 7.976562 -11.5 7.25 -11.753906 6 -12.265625 C 4.75 -12.773438 3.851562 -13.878906 3.3125 -15.578125 C 3.101562 -16.242188 3 -16.90625 3 -17.5625 C 3 -18.601562 3.253906 -19.65625 3.765625 -20.71875 C 4.484375 -22.207031 4.976562 -22.953125 5.25 -22.953125 C 5.3125 -22.953125 5.359375 -22.929688 5.390625 -22.890625 C 5.484375 -22.765625 5.648438 -22.703125 5.890625 -22.703125 C 6.296875 -22.703125 6.914062 -22.859375 7.75 -23.171875 C 8.726562 -23.535156 9.832031 -23.71875 11.0625 -23.71875 C 11.5 -23.71875 12.28125 -23.660156 13.40625 -23.546875 C 14.539062 -23.429688 15.585938 -22.847656 16.546875 -21.796875 C 17.359375 -20.878906 17.765625 -20.160156 17.765625 -19.640625 C 17.765625 -19.566406 17.722656 -19.378906 17.640625 -19.078125 C 17.554688 -18.773438 17.066406 -18.492188 16.171875 -18.234375 C 15.910156 -18.160156 15.664062 -18.125 15.4375 -18.125 C 14.851562 -18.125 14.320312 -18.414062 13.84375 -19 C 13.363281 -19.59375 12.359375 -20.046875 10.828125 -20.359375 C 10.429688 -20.429688 10.066406 -20.46875 9.734375 -20.46875 C 8.785156 -20.46875 8.085938 -20.085938 7.640625 -19.328125 C 7.191406 -18.566406 6.882812 -18.109375 6.71875 -17.953125 C 6.65625 -17.890625 6.625 -17.8125 6.625 -17.71875 C 6.625 -17.570312 6.757812 -17.363281 7.03125 -17.09375 C 7.300781 -16.820312 7.679688 -16.351562 8.171875 -15.6875 C 8.671875 -15.03125 9.195312 -14.445312 9.75 -13.9375 C 10.300781 -13.4375 11.425781 -12.921875 13.125 -12.390625 C 14.820312 -11.859375 16.078125 -10.921875 16.890625 -9.578125 C 17.484375 -8.578125 17.78125 -7.910156 17.78125 -7.578125 C 17.78125 -7.472656 17.691406 -7.378906 17.515625 -7.296875 C 17.335938 -7.222656 17.164062 -6.1875 17 -4.1875 C 16.84375 -2.1875 16.066406 -1.023438 14.671875 -0.703125 C 11.804688 -0.00390625 10.007812 0.34375 9.28125 0.34375 Z M 16.484375 -3.0625 C 16.410156 -2.269531 16.171875 -1.316406 15.765625 -0.203125 C 15.765625 2.847656 16.195312 6.101562 17.0625 9.5625 C 16.601562 10.351562 16.25 10.765625 16 10.796875 C 16 10.765625 15.960938 10.75 15.890625 10.75 L 15.890625 11.265625 L 15.28125 11.265625 C 15.132812 11.265625 14.941406 11.09375 14.703125 10.75 C 14.703125 10.582031 14.773438 10.5 14.921875 10.5 C 14.679688 10.1875 14.5625 9.875 14.5625 9.5625 C 15.113281 5.300781 15.28125 1.566406 15.0625 -1.640625 C 15.0625 -2.273438 14.976562 -2.785156 14.8125 -3.171875 Z M 16.375 8.609375 C 16.375 9.242188 16.25 9.679688 16 9.921875 L 16 10.03125 L 16.234375 10.03125 C 16.398438 10.03125 16.484375 9.875 16.484375 9.5625 L 16.484375 8.609375 Z M 16.28125 -16.65625 C 16.34375 -16.269531 16.222656 -15.816406 15.921875 -15.296875 C 15.617188 -14.773438 15.347656 -14.59375 15.109375 -14.75 C 14.566406 -15.03125 14.460938 -15.457031 14.796875 -16.03125 C 15.003906 -16.445312 15.269531 -17.125 15.59375 -18.0625 C 15.78125 -17.820312 16.007812 -17.351562 16.28125 -16.65625 Z M 4.015625 -1.625 C 4.015625 -1.382812 3.90625 -1.128906 3.6875 -0.859375 C 3.476562 -0.585938 3.269531 -0.4375 3.0625 -0.40625 C 2.757812 -0.375 2.609375 -0.78125 2.609375 -1.625 C 2.609375 -1.800781 2.773438 -2.5 3.109375 -3.71875 C 3.265625 -3.269531 3.453125 -2.804688 3.671875 -2.328125 C 3.898438 -1.859375 4.015625 -1.625 4.015625 -1.625 Z M 4.015625 -1.625 "/></g></g><g transform="translate(184.975343, 186.675573)"><g><path d="M 18.34375 -0.453125 C 17.414062 -0.453125 16.953125 -0.957031 16.953125 -1.96875 L 16.953125 -2.53125 C 16.953125 -3.738281 16.785156 -4.953125 16.453125 -6.171875 C 16.285156 -6.765625 16.203125 -7.476562 16.203125 -8.3125 C 16.203125 -9.382812 16.335938 -10.65625 16.609375 -12.125 C 16.742188 -12.894531 16.8125 -13.582031 16.8125 -14.1875 C 16.8125 -15.625 16.316406 -16.648438 15.328125 -17.265625 C 14.347656 -17.878906 12.832031 -18.617188 10.78125 -19.484375 C 9.96875 -19.804688 9.347656 -19.96875 8.921875 -19.96875 C 8.460938 -19.96875 8.234375 -19.765625 8.234375 -19.359375 C 8.234375 -19.203125 8.273438 -18.992188 8.359375 -18.734375 C 8.578125 -18.128906 8.6875 -17.585938 8.6875 -17.109375 C 8.6875 -16.503906 8.519531 -16 8.1875 -15.59375 C 7.707031 -14.976562 7.46875 -14.125 7.46875 -13.03125 C 7.46875 -12.789062 7.476562 -12.535156 7.5 -12.265625 C 7.519531 -12.003906 7.53125 -11.753906 7.53125 -11.515625 C 7.53125 -10.347656 7.25 -9.28125 6.6875 -8.3125 C 6.125 -7.34375 5.722656 -5.925781 5.484375 -4.0625 C 5.242188 -2.34375 4.925781 -1.484375 4.53125 -1.484375 C 4.5 -1.484375 4.351562 -1.53125 4.09375 -1.625 C 3.84375 -1.71875 3.6875 -2.257812 3.625 -3.25 C 3.570312 -4.25 3.09375 -5.390625 2.1875 -6.671875 C 1.613281 -7.472656 1.328125 -8.25 1.328125 -9 C 1.328125 -9.4375 1.503906 -10.035156 1.859375 -10.796875 C 2.222656 -11.566406 2.425781 -12.828125 2.46875 -14.578125 C 2.507812 -16.335938 2.597656 -17.789062 2.734375 -18.9375 C 2.742188 -19.144531 2.75 -19.363281 2.75 -19.59375 C 2.75 -20.675781 2.523438 -22.070312 2.078125 -23.78125 C 1.785156 -24.832031 1.640625 -25.71875 1.640625 -26.4375 C 1.640625 -27.113281 1.769531 -27.628906 2.03125 -27.984375 C 2.300781 -28.335938 2.4375 -28.820312 2.4375 -29.4375 C 2.4375 -30.132812 2.285156 -30.992188 1.984375 -32.015625 C 1.847656 -32.484375 1.78125 -32.878906 1.78125 -33.203125 C 1.78125 -33.941406 2.148438 -34.3125 2.890625 -34.3125 C 3.203125 -34.3125 3.941406 -34.140625 5.109375 -33.796875 C 6.285156 -33.460938 7.078125 -32.78125 7.484375 -31.75 C 7.679688 -31.25 7.78125 -30.773438 7.78125 -30.328125 C 7.78125 -29.816406 7.660156 -29.328125 7.421875 -28.859375 C 7.179688 -28.390625 7.0625 -27.878906 7.0625 -27.328125 C 7.0625 -26.785156 7.222656 -26.03125 7.546875 -25.0625 C 7.878906 -24.101562 8.601562 -23.550781 9.71875 -23.40625 C 10.832031 -23.269531 12.648438 -22.914062 15.171875 -22.34375 C 16.992188 -21.914062 18.113281 -21.703125 18.53125 -21.703125 C 18.664062 -21.703125 18.734375 -21.726562 18.734375 -21.78125 C 18.734375 -21.8125 18.726562 -21.828125 18.71875 -21.828125 C 18.695312 -21.828125 18.6875 -21.816406 18.6875 -21.796875 C 18.6875 -21.628906 18.992188 -20.625 19.609375 -18.78125 C 20.109375 -17.226562 20.359375 -16.03125 20.359375 -15.1875 C 20.359375 -14.8125 20.3125 -14.503906 20.21875 -14.265625 C 19.9375 -13.566406 19.796875 -11.578125 19.796875 -8.296875 C 19.796875 -7.984375 19.800781 -6.773438 19.8125 -4.671875 C 19.832031 -2.578125 20.148438 -1.472656 20.765625 -1.359375 C 20.929688 -1.328125 21.015625 -1.28125 21.015625 -1.21875 C 21.015625 -1.082031 20.4375 -0.875 19.28125 -0.59375 C 18.925781 -0.5 18.613281 -0.453125 18.34375 -0.453125 Z M 5.203125 -2.9375 C 5.117188 -2.03125 4.859375 -0.960938 4.421875 0.265625 C 4.421875 3.691406 4.910156 7.335938 5.890625 11.203125 C 5.347656 12.085938 4.945312 12.554688 4.6875 12.609375 C 4.6875 12.554688 4.640625 12.53125 4.546875 12.53125 L 4.546875 13.125 L 3.875 13.125 C 3.695312 13.125 3.476562 12.925781 3.21875 12.53125 C 3.21875 12.351562 3.300781 12.265625 3.46875 12.265625 C 3.21875 11.898438 3.09375 11.546875 3.09375 11.203125 C 3.707031 6.453125 3.878906 2.273438 3.609375 -1.328125 C 3.609375 -2.035156 3.519531 -2.609375 3.34375 -3.046875 Z M 5.078125 10.125 C 5.078125 10.84375 4.945312 11.332031 4.6875 11.59375 L 4.6875 11.71875 L 4.9375 11.71875 C 5.113281 11.71875 5.203125 11.546875 5.203125 11.203125 L 5.203125 10.125 Z M 12.8125 -19.453125 C 12.289062 -17.585938 12.03125 -16.144531 12.03125 -15.125 L 12.03125 -11.953125 C 12.550781 -10.929688 13.085938 -10.421875 13.640625 -10.421875 L 13.640625 -9.78125 C 13.640625 -9.570312 13.59375 -9.398438 13.5 -9.265625 C 13.59375 -9.023438 13.640625 -8.789062 13.640625 -8.5625 L 13.640625 -8.1875 C 12.953125 -7.25 12.414062 -6.78125 12.03125 -6.78125 C 10.894531 -7.382812 10.515625 -8.363281 10.890625 -9.71875 C 11.441406 -10.363281 11.765625 -11.363281 11.859375 -12.71875 C 11.515625 -14.457031 11.363281 -16.597656 11.40625 -19.140625 L 11.40625 -19.65625 Z M 12.734375 -8.515625 C 12.398438 -7.960938 12.234375 -7.617188 12.234375 -7.484375 L 12.5625 -7.484375 C 12.675781 -7.484375 12.800781 -7.613281 12.9375 -7.875 C 12.851562 -8.007812 12.8125 -8.222656 12.8125 -8.515625 Z M 19.484375 3.765625 C 19.484375 4.171875 19.570312 4.582031 19.75 5 C 19.925781 5.425781 20.015625 5.679688 20.015625 5.765625 C 20.015625 6.296875 19.671875 6.5625 18.984375 6.5625 C 18.210938 6.5625 17.828125 5.582031 17.828125 3.625 C 17.828125 3.3125 18.316406 1.972656 19.296875 -0.390625 C 19.492188 1.328125 19.554688 2.710938 19.484375 3.765625 Z M 19.484375 3.765625 "/></g></g><g transform="translate(207.629525, 186.675573)"><g><path d="M 3.765625 -0.0625 C 3.253906 -0.0625 3 -0.398438 3 -1.078125 L 3.015625 -3.15625 L 3 -5.59375 C 3 -6.988281 3.132812 -9.195312 3.40625 -12.21875 C 3.539062 -13.632812 3.609375 -14.785156 3.609375 -15.671875 C 3.609375 -16.859375 3.445312 -17.613281 3.125 -17.9375 C 2.800781 -18.257812 2.59375 -19.117188 2.5 -20.515625 L 2.5 -20.671875 C 2.5 -21.984375 3.597656 -22.914062 5.796875 -23.46875 C 6.535156 -23.644531 7.128906 -23.734375 7.578125 -23.734375 C 8.335938 -23.734375 8.71875 -23.488281 8.71875 -23 C 8.71875 -22.863281 8.691406 -22.710938 8.640625 -22.546875 C 8.453125 -21.960938 8.359375 -21.171875 8.359375 -20.171875 C 8.359375 -19.203125 8.453125 -18.015625 8.640625 -16.609375 C 8.773438 -15.609375 8.84375 -14.753906 8.84375 -14.046875 C 8.84375 -12.796875 8.640625 -12.015625 8.234375 -11.703125 C 7.972656 -11.503906 7.84375 -11.171875 7.84375 -10.703125 C 7.84375 -10.015625 8.125 -9.046875 8.6875 -7.796875 C 9.25 -6.546875 9.53125 -5.53125 9.53125 -4.75 C 9.53125 -4.195312 9.289062 -3.648438 8.8125 -3.109375 C 8.332031 -2.566406 7.238281 -1.78125 5.53125 -0.75 C 4.757812 -0.289062 4.171875 -0.0625 3.765625 -0.0625 Z M 4.828125 -30.390625 C 2.804688 -30.390625 1.796875 -30.75 1.796875 -31.46875 C 1.796875 -31.675781 2.019531 -32.125 2.46875 -32.8125 C 2.914062 -33.5 3.691406 -34.0625 4.796875 -34.5 C 5.035156 -34.582031 5.265625 -34.625 5.484375 -34.625 C 6.242188 -34.625 6.835938 -33.988281 7.265625 -32.71875 C 7.347656 -32.414062 7.390625 -32.144531 7.390625 -31.90625 C 7.390625 -30.894531 6.535156 -30.390625 4.828125 -30.390625 Z M 4.3125 -2.078125 L 4.890625 -1.421875 L 5.25 -0.453125 C 5.175781 -0.453125 5.140625 -0.332031 5.140625 -0.09375 L 5.140625 0.09375 C 5.140625 0.40625 5.078125 0.769531 4.953125 1.1875 C 4.835938 1.613281 4.898438 2.765625 5.140625 4.640625 L 5.140625 7.21875 C 5.015625 8.488281 4.953125 9.304688 4.953125 9.671875 L 4.953125 9.859375 C 4.953125 10.140625 4.992188 10.640625 5.078125 11.359375 C 5.078125 11.753906 5.132812 12.15625 5.25 12.5625 C 5.414062 13.15625 5.5625 13.71875 5.6875 14.25 C 5.800781 14.832031 5.859375 15.207031 5.859375 15.375 C 5.859375 15.613281 5.835938 15.769531 5.796875 15.84375 C 5.597656 16.207031 5.296875 16.390625 4.890625 16.390625 C 4.578125 16.390625 4.320312 16.269531 4.125 16.03125 C 3.957031 15.832031 3.875 15.59375 3.875 15.3125 L 3.875 15.1875 C 3.875 15.03125 3.992188 14.671875 4.234375 14.109375 C 4.503906 13.148438 4.640625 12.210938 4.640625 11.296875 C 4.734375 10.453125 4.78125 9.875 4.78125 9.5625 L 4.78125 8.484375 C 4.78125 8.046875 4.675781 7.34375 4.46875 6.375 C 4.363281 5.582031 4.3125 4.800781 4.3125 4.03125 L 4.3125 3.921875 L 4.421875 2.65625 L 4.421875 2 L 4.46875 0.390625 L 4.46875 0.203125 C 4.46875 -0.109375 4.414062 -0.867188 4.3125 -2.078125 Z M 6.5625 -27.9375 C 6.5625 -27.695312 6.453125 -27.441406 6.234375 -27.171875 C 6.023438 -26.898438 5.816406 -26.75 5.609375 -26.71875 C 5.304688 -26.6875 5.15625 -27.09375 5.15625 -27.9375 C 5.15625 -28.113281 5.320312 -28.8125 5.65625 -30.03125 C 5.8125 -29.582031 6 -29.117188 6.21875 -28.640625 C 6.445312 -28.171875 6.5625 -27.9375 6.5625 -27.9375 Z M 6.5625 -27.9375 "/></g></g><g transform="translate(218.066228, 186.675573)"><g><path d="M 5.03125 0.015625 C 4.757812 0.015625 4.476562 -0.00390625 4.1875 -0.046875 C 2.375 -0.285156 1.46875 -0.800781 1.46875 -1.59375 C 1.46875 -1.925781 1.609375 -2.296875 1.890625 -2.703125 C 2.640625 -3.753906 3.015625 -4.597656 3.015625 -5.234375 C 3.015625 -5.453125 2.960938 -5.644531 2.859375 -5.8125 C 2.484375 -6.414062 2.296875 -7.476562 2.296875 -9 L 2.296875 -10.328125 C 2.296875 -11.148438 1.9375 -12.625 1.21875 -14.75 C 0.945312 -15.53125 0.8125 -16.300781 0.8125 -17.0625 C 0.8125 -18.34375 1.304688 -19.765625 2.296875 -21.328125 C 3.484375 -23.234375 5.019531 -24.1875 6.90625 -24.1875 C 7.65625 -24.1875 8.039062 -23.9375 8.0625 -23.4375 C 8.082031 -22.9375 8.316406 -22.6875 8.765625 -22.6875 C 8.972656 -22.6875 9.234375 -22.738281 9.546875 -22.84375 C 9.859375 -22.957031 10.257812 -23.015625 10.75 -23.015625 C 11.6875 -23.015625 13.125 -22.75 15.0625 -22.21875 C 17 -21.6875 18.144531 -21.046875 18.5 -20.296875 C 18.851562 -19.554688 19.078125 -18.46875 19.171875 -17.03125 C 19.273438 -15.59375 19.535156 -14.273438 19.953125 -13.078125 C 20.597656 -11.140625 20.921875 -8.375 20.921875 -4.78125 C 20.921875 -4.34375 20.90625 -3.546875 20.875 -2.390625 C 20.84375 -1.242188 20.082031 -0.5 18.59375 -0.15625 C 18.375 -0.09375 18.164062 -0.0625 17.96875 -0.0625 C 16.820312 -0.0625 16.078125 -0.9375 15.734375 -2.6875 C 15.554688 -3.570312 15.46875 -4.335938 15.46875 -4.984375 C 15.46875 -5.804688 15.617188 -6.429688 15.921875 -6.859375 C 16.171875 -7.210938 16.296875 -7.675781 16.296875 -8.25 C 16.296875 -8.851562 16.082031 -9.773438 15.65625 -11.015625 C 15.226562 -12.265625 14.75 -13.828125 14.21875 -15.703125 C 13.695312 -17.578125 13.300781 -18.929688 13.03125 -19.765625 C 12.832031 -20.335938 12.367188 -20.625 11.640625 -20.625 C 9.398438 -20.625 8.132812 -19.742188 7.84375 -17.984375 C 7.675781 -16.984375 7.59375 -16.453125 7.59375 -16.390625 L 7.625 -16.390625 L 7.625 -16.4375 L 6.734375 -14.390625 C 6.484375 -13.753906 6.359375 -13.113281 6.359375 -12.46875 C 6.359375 -11.59375 6.609375 -10.710938 7.109375 -9.828125 C 7.859375 -8.472656 8.234375 -6.671875 8.234375 -4.421875 L 8.203125 -3.546875 C 8.097656 -1.171875 7.039062 0.015625 5.03125 0.015625 Z M 11.1875 -20.859375 C 10.820312 -20.722656 10.640625 -20.351562 10.640625 -19.75 C 10.328125 -18.832031 10.144531 -18.085938 10.09375 -17.515625 C 10.289062 -16.390625 10.390625 -15.707031 10.390625 -15.46875 C 10.242188 -14.65625 10.171875 -14.148438 10.171875 -13.953125 L 10.171875 -13.59375 C 10.171875 -13.019531 10.410156 -11.648438 10.890625 -9.484375 L 10.890625 -9.25 C 10.765625 -8.4375 10.441406 -8.03125 9.921875 -8.03125 C 9.273438 -8.03125 8.953125 -8.59375 8.953125 -9.71875 C 9.265625 -10.769531 9.503906 -12.144531 9.671875 -13.84375 C 9.671875 -14.15625 9.632812 -14.816406 9.5625 -15.828125 C 9.632812 -16.992188 9.671875 -17.675781 9.671875 -17.875 C 9.304688 -19.53125 8.984375 -20.523438 8.703125 -20.859375 Z M 19.09375 -0.875 C 19 -0.832031 18.929688 -0.765625 18.890625 -0.671875 C 18.796875 -0.460938 18.71875 -0.238281 18.65625 0 C 18.601562 0.238281 18.53125 0.492188 18.4375 0.765625 L 18.4375 7.625 C 18.394531 7.800781 18.347656 7.953125 18.296875 8.078125 C 18.253906 8.210938 18.191406 8.367188 18.109375 8.546875 L 18.109375 10.171875 C 18.148438 10.253906 18.191406 10.351562 18.234375 10.46875 C 18.285156 10.582031 18.351562 10.722656 18.4375 10.890625 C 18.53125 12.148438 18.53125 13.410156 18.4375 14.671875 C 18.21875 15.078125 18 15.28125 17.78125 15.28125 C 17.695312 15.3125 17.613281 15.316406 17.53125 15.296875 C 17.445312 15.285156 17.359375 15.28125 17.265625 15.28125 C 17.390625 14.757812 17.453125 14.300781 17.453125 13.90625 C 17.421875 13.082031 17.410156 12.273438 17.421875 11.484375 C 17.441406 10.691406 17.453125 9.882812 17.453125 9.0625 C 17.453125 8.96875 17.441406 8.859375 17.421875 8.734375 C 17.410156 8.609375 17.40625 8.5 17.40625 8.40625 L 16.9375 7.953125 C 17.019531 7.867188 17.125 7.78125 17.25 7.6875 C 17.382812 7.59375 17.492188 7.503906 17.578125 7.421875 C 17.628906 7.335938 17.675781 7.25 17.71875 7.15625 C 17.757812 7.070312 17.78125 6.988281 17.78125 6.90625 L 17.78125 0.421875 C 17.78125 0.335938 17.738281 0.210938 17.65625 0.046875 C 17.5625 -0.179688 17.429688 -0.363281 17.265625 -0.5 C 17.085938 -0.613281 16.929688 -0.765625 16.796875 -0.953125 Z M 5.796875 2.765625 C 5.796875 3.085938 5.863281 3.40625 6 3.71875 C 6.132812 4.03125 6.203125 4.21875 6.203125 4.28125 C 6.203125 4.675781 5.945312 4.875 5.4375 4.875 C 4.863281 4.875 4.578125 4.144531 4.578125 2.6875 C 4.578125 2.445312 4.9375 1.453125 5.65625 -0.296875 C 5.8125 0.960938 5.859375 1.984375 5.796875 2.765625 Z M 5.796875 2.765625 "/></g></g><g transform="translate(240.517536, 186.675573)"><g><path d="M 11.390625 9.578125 C 10.484375 9.578125 9.453125 9.171875 8.296875 8.359375 C 7.148438 7.546875 5.976562 7.066406 4.78125 6.921875 C 3.863281 6.816406 3.40625 6.648438 3.40625 6.421875 C 3.40625 6.347656 3.453125 6.265625 3.546875 6.171875 C 3.722656 6.003906 3.976562 5.921875 4.3125 5.921875 C 4.695312 5.921875 5.195312 6.035156 5.8125 6.265625 C 6.832031 6.640625 7.640625 6.828125 8.234375 6.828125 C 8.554688 6.828125 9.8125 6.691406 12 6.421875 C 13.570312 6.222656 14.359375 5.503906 14.359375 4.265625 C 14.359375 4.109375 14.296875 3.601562 14.171875 2.75 C 14.054688 1.894531 13.144531 1.078125 11.4375 0.296875 C 9.925781 -0.378906 8.539062 -0.71875 7.28125 -0.71875 C 7.101562 -0.71875 6.921875 -0.707031 6.734375 -0.6875 C 6.554688 -0.675781 6.398438 -0.671875 6.265625 -0.671875 C 5.335938 -0.671875 4.875 -0.976562 4.875 -1.59375 C 4.875 -1.707031 4.882812 -1.820312 4.90625 -1.9375 C 4.9375 -2.0625 4.953125 -2.179688 4.953125 -2.296875 C 4.953125 -3.273438 4.207031 -4.785156 2.71875 -6.828125 C 1.238281 -8.867188 0.5 -9.929688 0.5 -10.015625 L 0.515625 -10.015625 L 0.5625 -9.96875 C 0.59375 -9.9375 0.628906 -9.921875 0.671875 -9.921875 C 0.804688 -9.921875 0.910156 -10.140625 0.984375 -10.578125 C 1.066406 -11.015625 1.109375 -11.492188 1.109375 -12.015625 L 1.109375 -12.5625 C 1.109375 -13.25 1.585938 -14.125 2.546875 -15.1875 C 3.503906 -16.257812 4.46875 -17.410156 5.4375 -18.640625 C 6.414062 -19.878906 7.628906 -20.828125 9.078125 -21.484375 C 10.421875 -22.085938 11.503906 -22.390625 12.328125 -22.390625 L 13.28125 -22.34375 C 13.75 -22.34375 14.109375 -22.410156 14.359375 -22.546875 C 14.617188 -22.679688 15.757812 -23.0625 17.78125 -23.6875 C 18.175781 -23.8125 18.53125 -23.875 18.84375 -23.875 C 20.21875 -23.875 21 -22.671875 21.1875 -20.265625 C 21.414062 -17.679688 21.53125 -15.828125 21.53125 -14.703125 C 21.53125 -13.460938 21.207031 -11.988281 20.5625 -10.28125 C 19.945312 -8.644531 19.554688 -7.828125 19.390625 -7.828125 L 19.34375 -7.84375 C 19.332031 -7.84375 19.328125 -7.785156 19.328125 -7.671875 C 19.328125 -7.128906 19.503906 -5.441406 19.859375 -2.609375 C 20.066406 -1.015625 20.171875 0.207031 20.171875 1.0625 C 20.171875 2.050781 20.03125 2.546875 19.75 2.546875 C 19.71875 2.546875 19.679688 2.535156 19.640625 2.515625 C 19.609375 2.503906 19.570312 2.5 19.53125 2.5 C 18.96875 2.5 18.539062 3.59375 18.25 5.78125 C 17.96875 7.96875 17.285156 9.0625 16.203125 9.0625 L 16 9.0625 C 15.707031 9.03125 15.410156 9.015625 15.109375 9.015625 C 14.191406 9.015625 13.289062 9.148438 12.40625 9.421875 C 12.070312 9.523438 11.734375 9.578125 11.390625 9.578125 Z M 8.84375 -4.375 L 9.359375 -4.421875 C 9.703125 -4.453125 10.515625 -4.492188 11.796875 -4.546875 C 13.085938 -4.609375 14.128906 -4.722656 14.921875 -4.890625 C 15.722656 -5.054688 16.125 -5.953125 16.125 -7.578125 C 16.125 -9.179688 15.847656 -11.097656 15.296875 -13.328125 C 14.742188 -15.566406 14.023438 -16.894531 13.140625 -17.3125 C 12.253906 -17.738281 11.164062 -18.519531 9.875 -19.65625 C 9.050781 -20.394531 8.460938 -20.765625 8.109375 -20.765625 C 7.898438 -20.765625 7.75 -20.535156 7.65625 -20.078125 C 7.570312 -19.628906 7.179688 -18.867188 6.484375 -17.796875 C 5.785156 -16.734375 5.4375 -16.179688 5.4375 -16.140625 C 5.4375 -15.941406 5.828125 -13.953125 6.609375 -10.171875 C 7.398438 -6.304688 8.144531 -4.375 8.84375 -4.375 Z M 12.203125 9.5625 C 11.710938 11.34375 11.46875 12.71875 11.46875 13.6875 L 11.46875 16.734375 C 11.957031 17.691406 12.460938 18.171875 12.984375 18.171875 L 12.984375 18.78125 C 12.984375 18.988281 12.945312 19.15625 12.875 19.28125 C 12.945312 19.519531 12.984375 19.734375 12.984375 19.921875 L 12.984375 20.296875 C 12.335938 21.191406 11.832031 21.640625 11.46875 21.640625 C 10.375 21.066406 10.007812 20.132812 10.375 18.84375 C 10.894531 18.226562 11.203125 17.273438 11.296875 15.984375 C 10.960938 14.328125 10.816406 12.289062 10.859375 9.875 L 10.859375 9.375 Z M 12.125 20 C 11.8125 20.519531 11.65625 20.84375 11.65625 20.96875 L 11.953125 20.96875 C 12.066406 20.96875 12.191406 20.847656 12.328125 20.609375 C 12.242188 20.484375 12.203125 20.28125 12.203125 20 Z M 11.609375 -19.03125 L 11.609375 -18.390625 L 11.4375 -16.9375 C 11.4375 -16.507812 11.644531 -15.753906 12.0625 -14.671875 C 11.851562 -14.085938 11.597656 -13.796875 11.296875 -13.796875 C 11.023438 -13.796875 10.785156 -14.195312 10.578125 -15 C 10.929688 -15.894531 11.109375 -16.597656 11.109375 -17.109375 L 11.109375 -17.90625 C 10.960938 -18.414062 10.8125 -18.804688 10.65625 -19.078125 Z M 11.65625 -15.125 C 11.65625 -14.820312 11.535156 -14.535156 11.296875 -14.265625 L 11.296875 -14.21875 C 11.597656 -14.375 11.75 -14.554688 11.75 -14.765625 L 11.75 -15.125 Z M 11.65625 -15.125 "/></g></g><g transform="translate(262.856138, 186.675573)"><g/></g><g transform="translate(279.626994, 186.675573)"><g><path d="M 6.609375 -0.21875 C 6.304688 -0.21875 5.6875 -0.382812 4.75 -0.71875 C 3.8125 -1.0625 3.34375 -1.734375 3.34375 -2.734375 C 3.34375 -3.734375 3.273438 -4.648438 3.140625 -5.484375 C 3.085938 -5.691406 3.0625 -5.984375 3.0625 -6.359375 C 3.0625 -7.421875 3.226562 -9.15625 3.5625 -11.5625 C 3.832031 -13.664062 3.96875 -15.335938 3.96875 -16.578125 C 3.96875 -18.484375 3.613281 -19.828125 2.90625 -20.609375 C 2.738281 -20.785156 2.65625 -21.179688 2.65625 -21.796875 C 2.65625 -22.742188 2.84375 -24.21875 3.21875 -26.21875 C 3.757812 -29.09375 4.03125 -30.925781 4.03125 -31.71875 L 4.015625 -32.109375 C 4.015625 -32.347656 4.164062 -32.46875 4.46875 -32.46875 C 4.78125 -32.46875 5.265625 -32.335938 5.921875 -32.078125 C 7.128906 -31.609375 7.9375 -31.375 8.34375 -31.375 C 8.40625 -31.375 8.53125 -31.394531 8.71875 -31.4375 C 8.90625 -31.476562 9.867188 -31.570312 11.609375 -31.71875 C 13.171875 -31.84375 14.546875 -31.90625 15.734375 -31.90625 C 15.867188 -31.90625 16.28125 -31.894531 16.96875 -31.875 C 17.664062 -31.863281 18.382812 -31.71875 19.125 -31.4375 C 19.875 -31.15625 20.578125 -30.300781 21.234375 -28.875 C 21.898438 -27.445312 22.34375 -26 22.5625 -24.53125 C 22.78125 -23.070312 23.101562 -22.09375 23.53125 -21.59375 C 23.695312 -21.40625 23.78125 -21.128906 23.78125 -20.765625 C 23.78125 -20.160156 23.5 -19.175781 22.9375 -17.8125 C 22.382812 -16.445312 21.640625 -15.546875 20.703125 -15.109375 C 19.765625 -14.671875 18.765625 -14.171875 17.703125 -13.609375 C 17.097656 -13.316406 16.300781 -13.171875 15.3125 -13.171875 C 14.5 -13.171875 13.554688 -13.265625 12.484375 -13.453125 C 12.023438 -13.546875 11.597656 -13.59375 11.203125 -13.59375 C 9.535156 -13.59375 8.4375 -12.859375 7.90625 -11.390625 C 7.488281 -10.203125 7.28125 -9.050781 7.28125 -7.9375 C 7.28125 -7.320312 7.34375 -6.71875 7.46875 -6.125 C 7.738281 -4.800781 7.875 -3.585938 7.875 -2.484375 C 7.875 -2.191406 7.863281 -1.910156 7.84375 -1.640625 C 7.769531 -0.691406 7.359375 -0.21875 6.609375 -0.21875 Z M 8.34375 -14.203125 C 8.75 -14.203125 9.609375 -14.550781 10.921875 -15.25 C 12.234375 -15.945312 13.285156 -16.566406 14.078125 -17.109375 C 14.878906 -17.648438 16.363281 -19.316406 18.53125 -22.109375 C 19.519531 -23.410156 20.015625 -24.5625 20.015625 -25.5625 C 20.015625 -26.738281 19.335938 -27.722656 17.984375 -28.515625 C 16.097656 -29.617188 15.0625 -30.171875 14.875 -30.171875 C 14.84375 -30.171875 14.828125 -30.160156 14.828125 -30.140625 C 14.828125 -30.109375 14.875 -30.054688 14.96875 -29.984375 C 15.0625 -29.910156 15.109375 -29.84375 15.109375 -29.78125 C 15.109375 -29.601562 14.722656 -29.515625 13.953125 -29.515625 C 13.429688 -29.515625 12.710938 -29.554688 11.796875 -29.640625 C 11.359375 -29.691406 10.957031 -29.71875 10.59375 -29.71875 C 8.6875 -29.71875 7.523438 -29.195312 7.109375 -28.15625 C 6.773438 -27.34375 6.609375 -26.457031 6.609375 -25.5 C 6.609375 -24.988281 6.648438 -24.460938 6.734375 -23.921875 C 6.898438 -22.878906 6.984375 -21.578125 6.984375 -20.015625 C 6.984375 -19.171875 6.960938 -18.265625 6.921875 -17.296875 L 6.90625 -16.75 C 6.90625 -15.050781 7.382812 -14.203125 8.34375 -14.203125 Z M 17.21875 -13.234375 C 17.175781 -13.503906 17.019531 -13.828125 16.75 -14.203125 L 16.453125 -14.34375 L 21.890625 -16.171875 C 21.796875 -16.109375 21.710938 -16.050781 21.640625 -16 C 21.578125 -15.957031 21.503906 -15.914062 21.421875 -15.875 C 21.316406 -15.601562 21.21875 -15.335938 21.125 -15.078125 C 21.03125 -14.828125 20.941406 -14.535156 20.859375 -14.203125 L 20.859375 -8.90625 C 20.765625 -8.675781 20.679688 -8.476562 20.609375 -8.3125 C 20.535156 -8.15625 20.5 -7.984375 20.5 -7.796875 L 20.5 -4.875 C 20.5 -4.78125 20.484375 -4.695312 20.453125 -4.625 C 20.429688 -4.5625 20.421875 -4.484375 20.421875 -4.390625 C 20.148438 -4.347656 19.972656 -4.460938 19.890625 -4.734375 C 19.835938 -4.910156 19.8125 -5.09375 19.8125 -5.28125 C 19.8125 -5.46875 19.8125 -5.65625 19.8125 -5.84375 C 19.863281 -5.988281 19.910156 -6.128906 19.953125 -6.265625 C 19.992188 -6.398438 20.0625 -6.585938 20.15625 -6.828125 L 20.15625 -9.46875 C 20.332031 -9.976562 20.429688 -10.328125 20.453125 -10.515625 C 20.484375 -10.703125 20.472656 -11.050781 20.421875 -11.5625 C 20.285156 -11.789062 20.195312 -11.925781 20.15625 -11.96875 L 19.65625 -12.46875 L 19.25 -12.46875 C 18.875 -12.226562 18.609375 -11.96875 18.453125 -11.6875 C 18.296875 -11.40625 18.140625 -11.085938 17.984375 -10.734375 C 17.898438 -10.535156 17.832031 -10.34375 17.78125 -10.15625 C 17.738281 -9.976562 17.671875 -9.726562 17.578125 -9.40625 L 17.578125 -2.171875 C 17.578125 -1.878906 17.503906 -1.734375 17.359375 -1.734375 C 17.179688 -1.773438 17.046875 -1.894531 16.953125 -2.09375 C 16.773438 -2.457031 16.632812 -2.757812 16.53125 -3 L 16.53125 -4.109375 C 16.582031 -4.191406 16.628906 -4.304688 16.671875 -4.453125 C 16.722656 -4.597656 16.769531 -4.757812 16.8125 -4.9375 C 16.863281 -5.175781 16.890625 -5.410156 16.890625 -5.640625 C 16.890625 -5.878906 16.890625 -6.109375 16.890625 -6.328125 C 16.972656 -6.421875 17.023438 -6.539062 17.046875 -6.6875 C 17.078125 -6.832031 17.132812 -6.972656 17.21875 -7.109375 Z M 7.296875 -1.78125 C 6.703125 0.394531 6.40625 2.078125 6.40625 3.265625 L 6.40625 6.984375 C 7 8.191406 7.625 8.796875 8.28125 8.796875 L 8.28125 9.53125 C 8.28125 9.769531 8.222656 9.96875 8.109375 10.125 C 8.222656 10.425781 8.28125 10.695312 8.28125 10.9375 L 8.28125 11.390625 C 7.476562 12.484375 6.851562 13.03125 6.40625 13.03125 C 5.0625 12.34375 4.617188 11.203125 5.078125 9.609375 C 5.722656 8.859375 6.085938 7.691406 6.171875 6.109375 C 5.785156 4.078125 5.613281 1.578125 5.65625 -1.390625 L 5.65625 -2 Z M 7.234375 11.03125 C 6.828125 11.675781 6.625 12.066406 6.625 12.203125 L 7.015625 12.203125 C 7.160156 12.203125 7.300781 12.054688 7.4375 11.765625 C 7.34375 11.617188 7.296875 11.375 7.296875 11.03125 Z M 11.09375 -26.578125 C 11.09375 -26.265625 11.160156 -25.945312 11.296875 -25.625 C 11.429688 -25.3125 11.5 -25.125 11.5 -25.0625 C 11.5 -24.675781 11.242188 -24.484375 10.734375 -24.484375 C 10.160156 -24.484375 9.875 -25.210938 9.875 -26.671875 C 9.875 -26.910156 10.234375 -27.898438 10.953125 -29.640625 C 11.109375 -28.378906 11.15625 -27.359375 11.09375 -26.578125 Z M 11.09375 -26.578125 "/></g></g><g transform="translate(305.617314, 186.675573)"><g><path d="M 7.78125 0.15625 C 7.175781 0.15625 6.875 0.101562 6.875 0 C 6.875 -0.03125 6.882812 -0.0546875 6.90625 -0.078125 C 6.925781 -0.0976562 6.9375 -0.132812 6.9375 -0.1875 C 6.9375 -0.59375 6.019531 -1.492188 4.1875 -2.890625 C 2.613281 -4.085938 1.828125 -4.785156 1.828125 -4.984375 C 1.828125 -5.015625 1.847656 -5.03125 1.890625 -5.03125 L 2.1875 -4.984375 C 2.320312 -4.984375 2.390625 -5.070312 2.390625 -5.25 C 2.390625 -5.582031 2.144531 -6.203125 1.65625 -7.109375 C 1.164062 -8.023438 0.921875 -8.976562 0.921875 -9.96875 C 0.921875 -10.757812 1.070312 -11.582031 1.375 -12.4375 C 1.769531 -13.550781 1.96875 -14.378906 1.96875 -14.921875 C 1.96875 -15.296875 1.859375 -15.519531 1.640625 -15.59375 C 1.503906 -15.644531 1.4375 -15.710938 1.4375 -15.796875 C 1.4375 -16.046875 1.957031 -16.476562 3 -17.09375 C 4.050781 -17.71875 5.46875 -18.671875 7.25 -19.953125 C 9.039062 -21.234375 10.3125 -22.285156 11.0625 -23.109375 C 11.65625 -23.753906 12.238281 -24.078125 12.8125 -24.078125 C 12.96875 -24.078125 13.265625 -24.007812 13.703125 -23.875 C 14.140625 -23.738281 15.195312 -22.726562 16.875 -20.84375 C 18.550781 -18.957031 19.695312 -17.929688 20.3125 -17.765625 C 20.925781 -17.597656 21.515625 -16.507812 22.078125 -14.5 C 22.359375 -13.445312 22.5 -12.65625 22.5 -12.125 C 22.5 -11.644531 22.3125 -11.378906 21.9375 -11.328125 C 21.5625 -11.273438 21.117188 -10.5625 20.609375 -9.1875 C 20.097656 -7.820312 19.753906 -6.40625 19.578125 -4.9375 C 19.410156 -3.46875 18.890625 -2.378906 18.015625 -1.671875 C 17.140625 -0.972656 15.003906 -0.453125 11.609375 -0.109375 C 9.835938 0.0664062 8.5625 0.15625 7.78125 0.15625 Z M 11.40625 -2.390625 C 11.8125 -2.390625 12.289062 -3.023438 12.84375 -4.296875 C 13.40625 -5.566406 14.21875 -6.847656 15.28125 -8.140625 C 16.25 -9.304688 16.734375 -10.253906 16.734375 -10.984375 C 16.734375 -11.035156 16.707031 -11.257812 16.65625 -11.65625 C 16.601562 -12.0625 16.226562 -13.210938 15.53125 -15.109375 C 14.84375 -17.003906 13.929688 -18.429688 12.796875 -19.390625 C 11.671875 -20.347656 11.015625 -20.835938 10.828125 -20.859375 C 10.609375 -20.859375 9.570312 -20.144531 7.71875 -18.71875 C 5.863281 -17.289062 4.9375 -15.847656 4.9375 -14.390625 C 4.9375 -14.335938 4.941406 -13.925781 4.953125 -13.15625 C 4.972656 -12.382812 5.695312 -10.90625 7.125 -8.71875 C 8.5625 -6.539062 9.648438 -4.753906 10.390625 -3.359375 C 10.734375 -2.710938 11.070312 -2.390625 11.40625 -2.390625 Z M 18.171875 -1.78125 C 17.734375 -1.644531 17.515625 -1.207031 17.515625 -0.46875 C 17.128906 0.664062 16.910156 1.570312 16.859375 2.25 C 17.097656 3.632812 17.21875 4.476562 17.21875 4.78125 C 17.03125 5.757812 16.9375 6.367188 16.9375 6.609375 L 16.9375 7.0625 C 16.9375 7.75 17.226562 9.414062 17.8125 12.0625 L 17.8125 12.359375 C 17.65625 13.347656 17.265625 13.84375 16.640625 13.84375 C 15.859375 13.84375 15.46875 13.148438 15.46875 11.765625 C 15.851562 10.492188 16.144531 8.828125 16.34375 6.765625 C 16.34375 6.367188 16.289062 5.554688 16.1875 4.328125 C 16.289062 2.898438 16.34375 2.066406 16.34375 1.828125 C 15.894531 -0.179688 15.5 -1.382812 15.15625 -1.78125 Z M 9.6875 -20.671875 L 11.921875 -20.671875 C 11.367188 -19.179688 11.15625 -17.671875 11.28125 -16.140625 C 11.40625 -14.617188 11.46875 -13.753906 11.46875 -13.546875 C 11.46875 -13.304688 11.65625 -12.65625 12.03125 -11.59375 L 12.03125 -11.203125 C 12.007812 -10.617188 11.695312 -10.328125 11.09375 -10.328125 C 10.375 -10.492188 10.015625 -10.832031 10.015625 -11.34375 L 10.78125 -13.234375 L 10.78125 -13.546875 C 10.726562 -17.578125 10.457031 -19.882812 9.96875 -20.46875 C 9.78125 -20.46875 9.6875 -20.488281 9.6875 -20.53125 L 9.625 -20.53125 Z M 3.296875 -2.484375 C 3.347656 -2.085938 3.222656 -1.628906 2.921875 -1.109375 C 2.628906 -0.597656 2.363281 -0.414062 2.125 -0.5625 C 1.582031 -0.84375 1.472656 -1.269531 1.796875 -1.84375 C 2.015625 -2.269531 2.285156 -2.945312 2.609375 -3.875 C 2.796875 -3.632812 3.023438 -3.171875 3.296875 -2.484375 Z M 3.296875 -2.484375 "/></g></g><g transform="translate(328.068623, 186.675573)"><g><path d="M 3.765625 -0.0625 C 3.253906 -0.0625 3 -0.398438 3 -1.078125 L 3.015625 -3.15625 L 3 -5.59375 C 3 -6.988281 3.132812 -9.195312 3.40625 -12.21875 C 3.539062 -13.632812 3.609375 -14.785156 3.609375 -15.671875 C 3.609375 -16.859375 3.445312 -17.613281 3.125 -17.9375 C 2.800781 -18.257812 2.59375 -19.117188 2.5 -20.515625 L 2.5 -20.671875 C 2.5 -21.984375 3.597656 -22.914062 5.796875 -23.46875 C 6.535156 -23.644531 7.128906 -23.734375 7.578125 -23.734375 C 8.335938 -23.734375 8.71875 -23.488281 8.71875 -23 C 8.71875 -22.863281 8.691406 -22.710938 8.640625 -22.546875 C 8.453125 -21.960938 8.359375 -21.171875 8.359375 -20.171875 C 8.359375 -19.203125 8.453125 -18.015625 8.640625 -16.609375 C 8.773438 -15.609375 8.84375 -14.753906 8.84375 -14.046875 C 8.84375 -12.796875 8.640625 -12.015625 8.234375 -11.703125 C 7.972656 -11.503906 7.84375 -11.171875 7.84375 -10.703125 C 7.84375 -10.015625 8.125 -9.046875 8.6875 -7.796875 C 9.25 -6.546875 9.53125 -5.53125 9.53125 -4.75 C 9.53125 -4.195312 9.289062 -3.648438 8.8125 -3.109375 C 8.332031 -2.566406 7.238281 -1.78125 5.53125 -0.75 C 4.757812 -0.289062 4.171875 -0.0625 3.765625 -0.0625 Z M 4.828125 -30.390625 C 2.804688 -30.390625 1.796875 -30.75 1.796875 -31.46875 C 1.796875 -31.675781 2.019531 -32.125 2.46875 -32.8125 C 2.914062 -33.5 3.691406 -34.0625 4.796875 -34.5 C 5.035156 -34.582031 5.265625 -34.625 5.484375 -34.625 C 6.242188 -34.625 6.835938 -33.988281 7.265625 -32.71875 C 7.347656 -32.414062 7.390625 -32.144531 7.390625 -31.90625 C 7.390625 -30.894531 6.535156 -30.390625 4.828125 -30.390625 Z M 4.3125 -2.078125 L 4.890625 -1.421875 L 5.25 -0.453125 C 5.175781 -0.453125 5.140625 -0.332031 5.140625 -0.09375 L 5.140625 0.09375 C 5.140625 0.40625 5.078125 0.769531 4.953125 1.1875 C 4.835938 1.613281 4.898438 2.765625 5.140625 4.640625 L 5.140625 7.21875 C 5.015625 8.488281 4.953125 9.304688 4.953125 9.671875 L 4.953125 9.859375 C 4.953125 10.140625 4.992188 10.640625 5.078125 11.359375 C 5.078125 11.753906 5.132812 12.15625 5.25 12.5625 C 5.414062 13.15625 5.5625 13.71875 5.6875 14.25 C 5.800781 14.832031 5.859375 15.207031 5.859375 15.375 C 5.859375 15.613281 5.835938 15.769531 5.796875 15.84375 C 5.597656 16.207031 5.296875 16.390625 4.890625 16.390625 C 4.578125 16.390625 4.320312 16.269531 4.125 16.03125 C 3.957031 15.832031 3.875 15.59375 3.875 15.3125 L 3.875 15.1875 C 3.875 15.03125 3.992188 14.671875 4.234375 14.109375 C 4.503906 13.148438 4.640625 12.210938 4.640625 11.296875 C 4.734375 10.453125 4.78125 9.875 4.78125 9.5625 L 4.78125 8.484375 C 4.78125 8.046875 4.675781 7.34375 4.46875 6.375 C 4.363281 5.582031 4.3125 4.800781 4.3125 4.03125 L 4.3125 3.921875 L 4.421875 2.65625 L 4.421875 2 L 4.46875 0.390625 L 4.46875 0.203125 C 4.46875 -0.109375 4.414062 -0.867188 4.3125 -2.078125 Z M 6.5625 -27.9375 C 6.5625 -27.695312 6.453125 -27.441406 6.234375 -27.171875 C 6.023438 -26.898438 5.816406 -26.75 5.609375 -26.71875 C 5.304688 -26.6875 5.15625 -27.09375 5.15625 -27.9375 C 5.15625 -28.113281 5.320312 -28.8125 5.65625 -30.03125 C 5.8125 -29.582031 6 -29.117188 6.21875 -28.640625 C 6.445312 -28.171875 6.5625 -27.9375 6.5625 -27.9375 Z M 6.5625 -27.9375 "/></g></g><g transform="translate(338.505326, 186.675573)"><g><path d="M 5.03125 0.015625 C 4.757812 0.015625 4.476562 -0.00390625 4.1875 -0.046875 C 2.375 -0.285156 1.46875 -0.800781 1.46875 -1.59375 C 1.46875 -1.925781 1.609375 -2.296875 1.890625 -2.703125 C 2.640625 -3.753906 3.015625 -4.597656 3.015625 -5.234375 C 3.015625 -5.453125 2.960938 -5.644531 2.859375 -5.8125 C 2.484375 -6.414062 2.296875 -7.476562 2.296875 -9 L 2.296875 -10.328125 C 2.296875 -11.148438 1.9375 -12.625 1.21875 -14.75 C 0.945312 -15.53125 0.8125 -16.300781 0.8125 -17.0625 C 0.8125 -18.34375 1.304688 -19.765625 2.296875 -21.328125 C 3.484375 -23.234375 5.019531 -24.1875 6.90625 -24.1875 C 7.65625 -24.1875 8.039062 -23.9375 8.0625 -23.4375 C 8.082031 -22.9375 8.316406 -22.6875 8.765625 -22.6875 C 8.972656 -22.6875 9.234375 -22.738281 9.546875 -22.84375 C 9.859375 -22.957031 10.257812 -23.015625 10.75 -23.015625 C 11.6875 -23.015625 13.125 -22.75 15.0625 -22.21875 C 17 -21.6875 18.144531 -21.046875 18.5 -20.296875 C 18.851562 -19.554688 19.078125 -18.46875 19.171875 -17.03125 C 19.273438 -15.59375 19.535156 -14.273438 19.953125 -13.078125 C 20.597656 -11.140625 20.921875 -8.375 20.921875 -4.78125 C 20.921875 -4.34375 20.90625 -3.546875 20.875 -2.390625 C 20.84375 -1.242188 20.082031 -0.5 18.59375 -0.15625 C 18.375 -0.09375 18.164062 -0.0625 17.96875 -0.0625 C 16.820312 -0.0625 16.078125 -0.9375 15.734375 -2.6875 C 15.554688 -3.570312 15.46875 -4.335938 15.46875 -4.984375 C 15.46875 -5.804688 15.617188 -6.429688 15.921875 -6.859375 C 16.171875 -7.210938 16.296875 -7.675781 16.296875 -8.25 C 16.296875 -8.851562 16.082031 -9.773438 15.65625 -11.015625 C 15.226562 -12.265625 14.75 -13.828125 14.21875 -15.703125 C 13.695312 -17.578125 13.300781 -18.929688 13.03125 -19.765625 C 12.832031 -20.335938 12.367188 -20.625 11.640625 -20.625 C 9.398438 -20.625 8.132812 -19.742188 7.84375 -17.984375 C 7.675781 -16.984375 7.59375 -16.453125 7.59375 -16.390625 L 7.625 -16.390625 L 7.625 -16.4375 L 6.734375 -14.390625 C 6.484375 -13.753906 6.359375 -13.113281 6.359375 -12.46875 C 6.359375 -11.59375 6.609375 -10.710938 7.109375 -9.828125 C 7.859375 -8.472656 8.234375 -6.671875 8.234375 -4.421875 L 8.203125 -3.546875 C 8.097656 -1.171875 7.039062 0.015625 5.03125 0.015625 Z M 11.1875 -20.859375 C 10.820312 -20.722656 10.640625 -20.351562 10.640625 -19.75 C 10.328125 -18.832031 10.144531 -18.085938 10.09375 -17.515625 C 10.289062 -16.390625 10.390625 -15.707031 10.390625 -15.46875 C 10.242188 -14.65625 10.171875 -14.148438 10.171875 -13.953125 L 10.171875 -13.59375 C 10.171875 -13.019531 10.410156 -11.648438 10.890625 -9.484375 L 10.890625 -9.25 C 10.765625 -8.4375 10.441406 -8.03125 9.921875 -8.03125 C 9.273438 -8.03125 8.953125 -8.59375 8.953125 -9.71875 C 9.265625 -10.769531 9.503906 -12.144531 9.671875 -13.84375 C 9.671875 -14.15625 9.632812 -14.816406 9.5625 -15.828125 C 9.632812 -16.992188 9.671875 -17.675781 9.671875 -17.875 C 9.304688 -19.53125 8.984375 -20.523438 8.703125 -20.859375 Z M 19.09375 -0.875 C 19 -0.832031 18.929688 -0.765625 18.890625 -0.671875 C 18.796875 -0.460938 18.71875 -0.238281 18.65625 0 C 18.601562 0.238281 18.53125 0.492188 18.4375 0.765625 L 18.4375 7.625 C 18.394531 7.800781 18.347656 7.953125 18.296875 8.078125 C 18.253906 8.210938 18.191406 8.367188 18.109375 8.546875 L 18.109375 10.171875 C 18.148438 10.253906 18.191406 10.351562 18.234375 10.46875 C 18.285156 10.582031 18.351562 10.722656 18.4375 10.890625 C 18.53125 12.148438 18.53125 13.410156 18.4375 14.671875 C 18.21875 15.078125 18 15.28125 17.78125 15.28125 C 17.695312 15.3125 17.613281 15.316406 17.53125 15.296875 C 17.445312 15.285156 17.359375 15.28125 17.265625 15.28125 C 17.390625 14.757812 17.453125 14.300781 17.453125 13.90625 C 17.421875 13.082031 17.410156 12.273438 17.421875 11.484375 C 17.441406 10.691406 17.453125 9.882812 17.453125 9.0625 C 17.453125 8.96875 17.441406 8.859375 17.421875 8.734375 C 17.410156 8.609375 17.40625 8.5 17.40625 8.40625 L 16.9375 7.953125 C 17.019531 7.867188 17.125 7.78125 17.25 7.6875 C 17.382812 7.59375 17.492188 7.503906 17.578125 7.421875 C 17.628906 7.335938 17.675781 7.25 17.71875 7.15625 C 17.757812 7.070312 17.78125 6.988281 17.78125 6.90625 L 17.78125 0.421875 C 17.78125 0.335938 17.738281 0.210938 17.65625 0.046875 C 17.5625 -0.179688 17.429688 -0.363281 17.265625 -0.5 C 17.085938 -0.613281 16.929688 -0.765625 16.796875 -0.953125 Z M 5.796875 2.765625 C 5.796875 3.085938 5.863281 3.40625 6 3.71875 C 6.132812 4.03125 6.203125 4.21875 6.203125 4.28125 C 6.203125 4.675781 5.945312 4.875 5.4375 4.875 C 4.863281 4.875 4.578125 4.144531 4.578125 2.6875 C 4.578125 2.445312 4.9375 1.453125 5.65625 -0.296875 C 5.8125 0.960938 5.859375 1.984375 5.796875 2.765625 Z M 5.796875 2.765625 "/></g></g><g transform="translate(360.956634, 186.675573)"><g><path d="M 11 -0.265625 C 10.382812 -0.265625 9.171875 -0.546875 7.359375 -1.109375 C 5.546875 -1.679688 4.109375 -2.84375 3.046875 -4.59375 C 2.472656 -5.507812 2.1875 -6.390625 2.1875 -7.234375 C 2.1875 -8.015625 2.425781 -8.765625 2.90625 -9.484375 C 3.507812 -10.398438 3.8125 -11.1875 3.8125 -11.84375 C 3.8125 -12.257812 3.691406 -12.617188 3.453125 -12.921875 C 2.984375 -13.503906 2.75 -14.488281 2.75 -15.875 C 2.75 -16.3125 2.769531 -16.785156 2.8125 -17.296875 C 2.84375 -17.617188 2.859375 -17.925781 2.859375 -18.21875 C 2.859375 -19.84375 2.398438 -21.003906 1.484375 -21.703125 C 0.453125 -22.492188 -0.0625 -22.910156 -0.0625 -22.953125 L -0.046875 -22.953125 C -0.015625 -22.953125 0.617188 -23.082031 1.859375 -23.34375 C 3.097656 -23.601562 3.835938 -24.617188 4.078125 -26.390625 C 4.316406 -28.171875 5.234375 -29.234375 6.828125 -29.578125 C 7.015625 -29.617188 7.171875 -29.640625 7.296875 -29.640625 C 8.066406 -29.640625 8.453125 -29.113281 8.453125 -28.0625 C 8.453125 -27.5 8.335938 -26.78125 8.109375 -25.90625 C 7.898438 -25.101562 7.796875 -24.425781 7.796875 -23.875 C 7.796875 -22.613281 8.347656 -21.984375 9.453125 -21.984375 L 9.78125 -22 C 10.832031 -22.101562 11.539062 -22.15625 11.90625 -22.15625 C 12.113281 -22.15625 12.21875 -22.140625 12.21875 -22.109375 C 12.21875 -22.097656 12.144531 -22.050781 12 -21.96875 C 11.863281 -21.882812 11.117188 -21.75 9.765625 -21.5625 C 8.410156 -21.375 7.734375 -20.484375 7.734375 -18.890625 L 7.734375 -18.640625 C 7.734375 -17.078125 7.863281 -15.03125 8.125 -12.5 C 8.382812 -9.976562 8.703125 -8.492188 9.078125 -8.046875 C 9.460938 -7.597656 10.050781 -6.410156 10.84375 -4.484375 C 11.488281 -2.941406 12.035156 -2.171875 12.484375 -2.171875 C 12.585938 -2.171875 12.695312 -2.210938 12.8125 -2.296875 C 12.988281 -2.460938 13.109375 -2.546875 13.171875 -2.546875 C 13.179688 -2.546875 13.1875 -2.53125 13.1875 -2.5 C 13.1875 -2.414062 12.992188 -2.054688 12.609375 -1.421875 C 12.117188 -0.648438 11.582031 -0.265625 11 -0.265625 Z M 10.65625 0.609375 L 10.65625 2.140625 C 10.65625 2.554688 10.703125 3.398438 10.796875 4.671875 C 10.796875 5.941406 11.007812 7.316406 11.4375 8.796875 C 11.71875 9.421875 11.859375 9.882812 11.859375 10.1875 L 11.859375 10.265625 C 11.859375 10.679688 11.773438 11.015625 11.609375 11.265625 C 11.304688 11.691406 10.96875 11.90625 10.59375 11.90625 C 10.050781 11.90625 9.65625 11.625 9.40625 11.0625 C 9.269531 10.945312 9.203125 10.71875 9.203125 10.375 C 9.203125 10.164062 9.285156 9.660156 9.453125 8.859375 C 9.628906 8.140625 9.84375 7.335938 10.09375 6.453125 C 10.21875 5.773438 10.28125 5.203125 10.28125 4.734375 C 10.414062 3.710938 10.484375 2.976562 10.484375 2.53125 L 10.484375 2.25 C 10.484375 1.789062 10.394531 0.648438 10.21875 -1.171875 C 10.507812 -0.703125 10.65625 -0.109375 10.65625 0.609375 Z M 3.40625 -1.78125 C 3.40625 -1.539062 3.296875 -1.285156 3.078125 -1.015625 C 2.867188 -0.742188 2.660156 -0.59375 2.453125 -0.5625 C 2.148438 -0.53125 2 -0.9375 2 -1.78125 C 2 -1.957031 2.164062 -2.65625 2.5 -3.875 C 2.65625 -3.425781 2.84375 -2.960938 3.0625 -2.484375 C 3.289062 -2.015625 3.40625 -1.78125 3.40625 -1.78125 Z M 3.40625 -1.78125 "/></g></g></g></svg>